<mxfile host="app.diagrams.net" modified="2022-10-26T01:49:55.953Z" agent="5.0 (Macintosh; Intel Mac OS X 10_15_7) AppleWebKit/537.36 (KHTML, like Gecko) Chrome/107.0.0.0 Safari/537.36" etag="EV8GQF01xvNWJOYSiH4Z" version="20.5.1" type="github">
  <diagram id="d13OVZXu8e_oNzu_O2Un" name="Page-1">
    <mxGraphModel dx="1375" dy="985" grid="1" gridSize="10" guides="1" tooltips="1" connect="1" arrows="1" fold="1" page="1" pageScale="1" pageWidth="1100" pageHeight="850" math="0" shadow="0">
      <root>
        <mxCell id="0" />
        <mxCell id="1" parent="0" />
        <mxCell id="8tucULJYZbGx7OZ7GhKJ-1" style="edgeStyle=orthogonalEdgeStyle;rounded=0;orthogonalLoop=1;jettySize=auto;html=1;exitX=1;exitY=0.5;exitDx=0;exitDy=0;entryX=0;entryY=0.5;entryDx=0;entryDy=0;startArrow=classic;startFill=1;" edge="1" parent="1" source="8tucULJYZbGx7OZ7GhKJ-2">
          <mxGeometry relative="1" as="geometry">
            <mxPoint x="439.59000000000015" y="425" as="targetPoint" />
          </mxGeometry>
        </mxCell>
        <mxCell id="8tucULJYZbGx7OZ7GhKJ-2" value="" style="shape=image;verticalLabelPosition=bottom;labelBackgroundColor=default;verticalAlign=top;aspect=fixed;imageAspect=0;image=data:image/png,iVBORw0KGgoAAAANSUhEUgAABLAAAASwCAMAAADc/0P9AAAABGdBTUEAALGPC/xhBQAAACBjSFJNAAB6JgAAgIQAAPoAAACA6AAAdTAAAOpgAAA6mAAAF3CculE8AAAC61BMVEXYZhPZaxvjklfuu5b118H66t/88uz89e/89O766+D228fvwZ/lmmTbcCPcdizuvJf99fD////++vjxx6jfgDvZaBfrsYf9+fb//fzabh/cdCn23crfgT3dejLhikvbcyb56d3YZxT00rr56d7abR7no3DuvJj78en+/PrefDXpp3fwxqf449P+/fvcdy7vwqHmnWj++/ntt5DuvprcdSryzrPtuZPzz7X9+PXstIv99vHacCLrsIX89O3qrH777uTZahnnonDmnmn559rYZxXlmWLnoG3gh0b//v7klVvlmmP34dHfg0DjkFT007v23MnhiEfhi0z12MP01r/ijlHhiUnz0bjghUL34M/yzLDll1///v3fgDz45NXxyKrmnGbYaBb56Nvww6LdeTDZaRjuvpvopXTcdiv77+btupXpqXvabBz88uvstY3qroL99/L88+zss4nabyHqrYDsto/78erbcSX9+PTpqHn77uX++vfopHLvwJ767ePnn2vwxKTdezPxyaz45dfefznkll344tLfgz/jkVbijE7hiUr22sfghUP3387449TefTb67OLbcyfZaxr78OjbcSTabR355tnefjj44tPfgj723cvghkX22sbghkTklFr34NDyyq7efTf45dbefDTvwaDdeC/77+ftuJLqq33bcibss4rabiDrr4T99/PcdCjopnbuvZncdy3noW/lmGHyy67z0Lb3383jj1P01Lz12cXhiEj12cT01b7ij1L23Mjz0Lfjk1jghEHyy6/lmGDxx6n56NzwwqLnoW767OHopnXtuZTpqnzstYzrr4PqrH/pp3joo3HmnmrwxaXxyq3efzrklVzjkVX118L11sDijU/z0bnyzbLuu5XqrYHrsonrsojsto7opHPvv5znoGzwxKPhi0vmm2X01L3klFnkl17yzbHijlDzzrTwxabtuJHrsIbpqn3mnWf33szlm2TpqXrijE3deTH55tjvv53xyKsztHjNAAAAAWJLR0QR4rU9ugAAAAd0SU1FB+ULCw4rBFEPgvsAAERoSURBVHja7d15gFfT/8fxKaJF+LRoiuSjqKhIRVo0GJlE2YpMNDKylDZEiBSyMy0K0SJKhEJZ0qLsIZKd7JIlO3/+vr6/r+8XQ6/b3M/nfM773Ofj75pz3ue8z3vu3HvuPXl5AAAAAAAAAAAAAAAAAAAAAAAAAAAAAAAAAAAAAAAAAAAAAAAAAAAAAAAAAAAAAAAAAAAAAAAAAAAAAAAAAAAAAAAAAAAAAAAAAAAAAAAAAAAAAAAAAAAAAAAAAAAAAAAAAAAAAAAAAAAAAAAAAAAAAAAAAAAAAAAAAAAAAAAAAAAAAAAAAAAAAAAAAAAAAAAAAAAAAAAAAAAAAAAAAAAAAAAAAAAAAAAAAAAAAAAAAAAAAAAAAAAAAAAAAAAAAAAAAAAAAAAAAAAAAAAAAAAAAAAAAAAAAAAAAAAAAAAAAAAAAAAAAAAAAAAAAAAAAAAAAAAAAAAAAAAAAAAAAAAAAAAAAAAAAAAAAAAAAAAAAAAAAAAAAAAAAAAAAAAAAAAAAAAAAAAAAAAAAAAAAAAAAAAAAAAAAAAAAAAAAAAAAAAAAAAAAAAAAAAAAAAAAAAAAAAAAAAAAAAAAAAAAAAAAACDKlXeYssqW22dPFWrVa+xTU0SALBj2+22TyVZrdp1SALAhro71EslXX6N+iQCYECDHVNIparsRCoA3mtYjWL1b9vvTDIAnmu0C6Xq94rFjSzAb+ldKVT/1bgJCQH4bDfK1B/sTkIAHmvSlCr1B82akxKAv/agSP3JnqQE4K8W1Kg/admQnAB81YoS9Rd7kRSAr/amQv1F61ZkBeCpfahQf9WGrAA8tScFqtx70G1JC8BP7ShQ5exLWgB+2o/6VE77RuQFQMGyYn/yAqBgWdGhI4kBULCs6ERiABQsKzrz8VGAgmXGAWQGQMGyomklUgOgYFmxB6kBULCs6FJAbgAULCsOJDcACpYV1eqSHAAFy4qDSA6AgmXFwYVkB0DBsuIQsgOgYFnRIk16AKYKVteaoTq0SFasbqQHYKpgHZbka8vuXGIBFCw/HK4vsY4gPwAKlh96yILVk/wAKFh+OFLfdz+KBAEoWH44WhasY0gQgILlh2P1JVYvMgSgYPmhuixYvckQgILlh8r6Eus4UgSgYPnheFmw+pAiAAXLDyfIglXclxwBKFheSJ8oK9ZJ5AhAwfJDP1mw8puTJAAFywslJ8uK1Z8kAShYfugqC1azU8gSgILlhdJqsmKdSpYAFCw/DJAFq9ZppAlAwfJCwemyYp1BmgAULD+cKQtW+0bkCUDB8sLAQbJinUWeABQsPwyWBWtITRIFoGB5oclQWbF2IFEACpYfhsmCVbU+mQJQsLwwfHtZsc4mUwAKlh/OkQXr3IGkCkDB8sKI82TFOp9UAShYfthCFqyRBeQKQMHyQoMLZMW6kFwBKFh+uEgWrFGlJAtAwfJCq9ayYl1MsgAULD9cIgtW4xKyBaBgeWF0S1mxtiFbAAqWHy6VBWtMIekCULC8MLZYVqzLSBeAguWHdrJgXZ4mXwAKlheuKJIVaxz5AlCw/LCrLFg7ki8ABcsPh8qClbqShAEoWH7YUhasLUkYgILlhyv1JdZVZAxAwfLD1bJg7UrGABQsP4zTl1jXkDIABcsP18qC1Y6UAShYfrhMFqyincgZgILlhfR1smJdSs4AFCw/bCMLVv71JA1AwfJC4RhZsS4haQAKlh8ulgWrWUOyBqBgeaGksaxYF5E1AAXLDxfKgtV6W9IGoGB5ofQGWbG2IG0ACpYfzpcFq96N5A1AwfJC2XhZsc4hbwAKlh/OlgVryAQSB6BgeWHiUFmxhpE4AAXLDzvIgtVhOJkDULC8MHx7WbEGkzkABcsPZ8mCNbQJqQNQsLww4jxZsc4kdQAKlh/OkAWraSVyB6BgeaHBBbJiDSB3AAqWH06VBWtUAckDULC80Kq1rFhdSR6AguWH/rJgValL9gAULC80bCkrVj+yB6Bg+eEkWbAmFZI+AAXLCzcVy4p1AukDULD80EcWrMlp8gegYHlhSpGsWJXJH4CC5YfesmDdTP4AFCw/3CILVupYEgigYPnhGFmwjiaBAAqWH3rpS6ydySCAguWHW2XB6kEGARQsPxyhL7GmkkIABcsPPWXB2o8UAihYfrhNFqyiKeQQQMHyw+2yYk0jhwAKlh8OkQUrfzpJBFCwvFA4Q1asPUkigILlh4P0JdZMsgigYHmhZBdZse4giwAKlh8OlAWr2SzSCKBgeaH0BlmxdieNAAqWH/aQBatWW0YJoGB5oexOWbHuYpQACpYfZsuC1X4OowRQsLwwcStZse5mlAAKlh86yYLVoSOjBFCwvDB3a1mx7mGUAAqWH/aXBatzE0YJoGB5YcK9smLNZpQACpYf9pUFq2klRgmgYHlhXj1Zse5jlAAKlh/ulwWrSwGjBFCwvPBAa1mx5jNKAAXLD3vJglWtLqMEULC80LClrFh7M0oABcsPe8qCNamQUQIoWF6YmS8r1gJGCaBg+eFBWbBapBklgILlhTrFsmLdxigBFCw/PCQL1sMMEkDB8sPhRbJiLWSUAAqWHxbJgvUIgwRQsPzwqCxYqaMYJYCC5YfHZMF6nEECKFh+WKwvsXoxSgAFyw9PyIK1hEECKFh+WCoLVtEyRgmgYPnheFmxljNIAAXLD0/KglXcl1ECKFheSM+QFWsFowRQsPzQTxas/OaMEkDB8kLJSlmxnmKUAAqWH56WBavZKYwSQMHyQukzsmKdyigBFCw/PCsLVq3TGCWAguWFgtNlxXqOUQIoWH54Xhas9o0YJYCC5YWBg2TFeoFRAihYflglC9aQmowSQMHywtytZcXagVECKFh+GCYLVtX6jBJAwfLC8A6yYr3IKAEULD/sIwvWuZUYJYCC5YU558mK9RKjBFCw/LCdLFgjCxglgILlhba1ZMV6mVECKFh+qCELVrW6jBJAwfLCrNayYq1mlAAKlh9ekQVrlxJGCaBgeWF0S1mxGDyAguWJV2XBGlPIKAEULC+sKZYV6zVGCaBg+aGdLFjd04wSQMHywhVFsmKtZZQACpYfesiCtSODBFCw/HCkLFipKxklgILlh9dlwXqDQQIoWH54U19iXcUoARQsP1SXBestBgmgYPmhsr7EuoZRAlwVrBcWu3PkmgJzw3e8LFhvk2OAq4LlVssZZ0y1NXyXyZiK65BkQJAF6zcPL7Y0fOkTZUCXkmRAsAUrleozwdD4bSPDyW9OlgHhFqzUqDV2xq/kZBnOJWQZEHDBSm09xc4AXiyjaXYKaQYEXLBSp59mZgDrVpPRXESaASEXrNQbdr59d6EMpvW25BkQcsFKXWxmBEtHyWDeIc+AoAvWyDIzQ3i+DKZ9IxINCLlgpQaYGcKy8TKYc0g0IOiCNarAzBi+K4MZUpNMA0IuWKmnzYzhxKEymPfINCDoglXFzlHv78tgqtYn1YCQC1aqn5lBHL69DOZdUg0IumBNsrMXa50MZmgTcg2I7W1/C1bqSTOjOKe9DOZMcg2I7RWPC9ZkO+eQviODGV9GsgFx3e1xwUotNTOMDS6QwXxAsgFxLfC5YN1sZxw/lME8U0q2AXHvvhT7XLHsfH20VWsZzEdkGxDXrT4XrEfsjOPHMpiVJWQbEFM/nwtW6hMz4zi6pQzmU7INiKn0ZJ8L1md2BvIkGcyMNOkGxPS515dYdo79WqPvBq4n24C4+vtcsJbYGccvZDDducQC4iq72uOCVbTMzDhOKZLRVCbbgLhqPuFxxVpuZxzfksH0JNmA2CrV9rdgFd9kZhgP1dFsINmA+J68wduKtcLOKB4jgzmaVAMycSPrwsmeFqyWo80M4lE6mqtINSAjGu52au9HbndNf/uuv50h1I8vepBngGEHyjVu6Kj3tSFtLANQTqm+e9bGTjQ9ZTBfMuWAYXvINV7rNDPBdNMby3ZiygG7yu6Ui/w5M8Gku8tgXmXKAcNmyzVu6Kj3w2Qw+dOZcsCuiVvJRf6CmWAKx8hgvmLKAcM6hXTU+2r91LMhUw7YNXdruch3MBNMyS4ymBpMOWCYPrrH0FHvu8lgWm/LlAN2TbhXLvIXzQQTYWPZdkw5YNhdco2fO9BMMC/pjWVtmXLArnn15CI/30wwETaWfc2UA4btLtf4yAIzwRygN5bNYcoBu9rWkov8ZTPBRNhYNowpBwy7Q67xanXNBPONDKZDR6YcsGuWPur9YjPBzNUf+VrFlAOGfSXXeOMSM8G8IIPp3IQpB+yamS8X+TZmghmhN5ZtZMoBw6bJNT6m0Eww+8pgmlZiygG7Ihz1fpmZYOZdIIN5likHDPtSrvHL7Rz13kYG06WAKQfsOlwf9T7OTDAP6Kee85lywLAeco3vaCeYp2QwVeoy5YBdR+pDst40E0zDljKYb5lywLDX5Rrf0k4wtWUwkwqZcsCuDSEd9X6Tfur5JFMOGFY9pKPel8tgJqeZcsCuyvoS6xozwdTRl1ifM+WAYdfKNd7OTjBLZDDfMeOAYetDOup9md5YtpgpB+xKnxjSUe+fyWAeY8oBw74P6aj3R/UtuU+YcsCukpPlGn/FTjSPyGA+Y8oBwz4K6aj3xfoSaypTDthVWi2ko96fkME8xJQDhl0Y0lHvn+unnsuYcsDwJdaokI56v10Gs5wpBwz7IaSj3hfIYIrrMOWAXWXjAzrqPT1DBlObKQcMOzuko96/1RvLmjPlgF0ThwZ01HvJShnMXkw5YNj7IR31Pl9vLDuFKQfsGq6Per/HTDClz8hg2jDlgGHrQjrq/T791PM0phywa8R5AR31XnC6DGZfphww7IyQjnrfqJ96NmLKAbsa6KPe7zMTzMBBMpj9mXLAsFNDOur9npCeegIop1VIR73P3VoG8w1TDhjWP6Sj3u/WTz3rM+WAXRGOet/bTDAT7pXBHMCUA4atCOmo969lMOdWYsoBuyIc9b7ATDBz2stg9mDKAcP6yDXews5R77vLYEYWMOWAXVP0OaS3mQmmbS0ZzG5MOWCYPur9YTvB1JDBVKvLlAN2RTjqfaGZYGbpjWUHMeWAYY/LNd7TTjBfyWAOLmTKAbt66XNIjzITzMx8GcxhTDlgmD7q/XE7wUwL6akngHIW6kusXmaCWaM3lnVjygHDeso13ttOMF/KYLpziQUYpo96Tx1nJpjD9VPPI5hywDB91HsfO8H0COmpJ4ByIhz13tdMMEfq68UfmXLArghHvZ9kJ5qjZTDHMOWAYUEd9b4hpKeeAMqJcNR7fzvRVA/pqSeAcoI66r1ySE89AZQT4aj3D+1Ec7wM5gumHDDsWbnGW9s56n29DKaoL1MO2BXhqPczzASTPjGkp54Ayolw1PuNZoL5NKSnngDKiXDU+zozwZScLIP5mCkHDFsl1/iQmmaC6aqfev7ElAN2RTjq/X0zwZRWC+mpJ4Byhsk1XtXOUe8fhPTUE0A5HTvIRf6umWCCeuoJoDx91PuggWaCOTOkp54AyplznlzkP5gJpmx8QE89AZS3nVzj48vMBDM4pKeeAMppe4Fc5B+YCabJ0ICeegIo7yK5xkcVmAnmvZCeegIoJ8JR7x+ZCWb49jKYs5lywLBX5BpvXNdMMOfIYM4dyJQDdo1uKRf5p2aCGRHSU08A5V0q1/jPhWaC2SKkp54Ayhmrj3pfbyaYBvqp54VMOWBYO7nGL7dz1Psv+qlnKVMO2HWFPuq9splgWumnnhcz5YBhu8o1frOdYC7RTz1LmHLArkP1IVkbzAQT4ann90w5YNiWco0fbSeYX0N66gmgnCv1JdbOZoKJ8NTzMqYcMOxqucZ72Anm7ZCeegIoZ5y+xJpqJpignnoCKO9aucb3sxNMUE89AZTzmj7qfYqZYCI89XyTKQfsSl8n1/g0O9G8IYPZkikHDNtGH/U+3UwwQT31BFBO4Ri5xve0E01QTz0BlLNaX2LNNBNMhKee1zDlgF0lu8g1foedaPRTz3ZMOWDYy3KNN5tlJpgITz13YsoBZ9LH3fPF5Go3nLjf3b1KMvIDS2+Qi/x+O6Ojn3peSg4BjpSdv/J/S69Lp7mZ+JkvyTVeq62ZAQrqqSdg22uj/rz4tuqaiSJ4p1zkd5kZoQhPPV8hjwAH6v7N6advT4z/c1+Ua7z9HDODpJ96NmtIKgHZ/3Owx98tv4drxv7BE7eSi3x/M6MU4annReQSkPU/dv7h8ylXxz+/6hu5xjt0NDNO+qln623JJiDLVv3T+vsw9o+eq49672RmnCI89dyObAKyq06zf9xZdGzsH/6CXOOd65sZqfNlMPVuJJ+ArNrEx55axP5W+Yh75SI/wMxIRXjquQ/5BGTTLZtafwti//jn5Bo/t5KZsdJPPc+bQ0YBWfTQptZfi9jfKp+nj3rfw8xYRXjqOYyMArJHHAlzW+wG2sg13qXAzGjtENJTT8CeFZtefw/HbuABfdT7bmZGa7h+6rmKnAKypVUzsf4Wxm5iL7nGq9U1M15n6aeeTcgqIEtOVeuvZ+wmGuqj3g8yM14Rnno+T1YB2XFjPbn+jordSG3ZxsF2jnrXTz2bViKvgKxYp7/8e0zsRprny0YOMzNiEZ56DiCvgGyI8OZMKtUrdjMPyjbG2LnEkn9Ep0YVkFlAFrwboV6lesdupk6xbKSbmTFrpZ96Pk1mAZlXMD5KwUodF7uhh2Qb3dNmRq2/DKZKXXILyLgBkepV6ovYDS0rko2sNTNqEZ569iO3gEwraRytYBX1jd3UItnIjnbGbYUMZlIh2QVkWL9URL/GbupR3ciPZsbtJn1L7gSyC8is9OSoBSu/eezGHpONvGFn5PrIYCanyS8go25LRfZx7MaO1Y1cZWbkpuhbckvJLyCjnohesJr95KC1t+wM3RIZzHfkF5BJR6U2Q/yvuy91sX3ClQhPPY8lw4AMWrQ5BSsDx8EcLxt5287gPS6DeYwMA5zeh/mjd2I3eIKL7ROu9NIj9gk5BmTM8s2qVxk4DiZ9ooPtE87cKoNZRI4BmTI6f/MKVmpd7Cb1tq/8682M30I9YlPJMiBD+m9mvUoNiX1wfclK2cgldgawpwxmP7IMyIwGtTa3YKXei91oVxfbJ1zRu9iKppBnQEa8s9n1KlU19gnNpdVkI7/YGcLbZTAPkmdAJky4d/MLVurd2M0OcLF9wpVDZDDFdcg0IAPeq0C9Sg2NfRxMwemykS3MjGHhDBnMnmQaEN/ArSpSsFJnxm74TAfbJ5zZWz/1nEmuAQ7qxt8aXxa7Ug6SjZxjZhRLdpHB3EGuAXGVjqpYwUp9ELvpwQ62TzhzoH7qeQrZBsT0dAXrVQaOg2ky1MH2CWeF/wYZzP1kGxBP4c8VLViprrEb17f7Oww3M5L3yWBqtSXfgFgWVLheZeA4mOH6JMTBZkay4E4ZzF3kGxDL8RUvWKlPY7d+joPtE87MlsG0n0PCATEcEaNeZeA4mBHnyUaeNzOWE/X+kP3JOCCGx+IUrAwcB7OFbKNpJTOD2UnfkutIygEVdkusepWB42AaXCAbGWBmNOduLYPpRM4BFfZQvIKVqhy7B7842D7hzN0ymM5NSDqggsYWxyxY8Y+DadVaNvK0mfGM8Br5bLIOqKAVqbjiHwfzsYPtE87cFdItOcAvrZrFLljxj4MZ3VI20s/MiM6rJ4PZg7wDKuTDVHzxj4P51cH2CWful8F0KSDxgAq4UT+hGyn/xWexuxHhRtqTZsb0AX1L7kAyD6gAvc384bUujoP5wsH2CWfukMFUq0vqAZttrn6Rr1vetfLfPBS7IxFOcV1qZlRn6fuCe5N7wGYbHOXe0WsujoN5y8H2CWf2DOmWHOCLsvFRLgXS3R0cB3Oo/sNzsZlxnakPpT2E7AM207N6i3npv/7ZYS6OgznGwfYJZx6UwbRIk37AZimpItfVfb/9u8Ix8t/Vjt2ZH11sn3BljX7qeRv5B2yWb+WqGvT/e7JX6+NgmsfuzdUOtk84s59++kr+AZsjfaJcVav+cymmj4PZK3Z3jnCxfcKVw/VTz4VkILAZbtMH1vz+6abdXBwH09PB9glnFslgepKBwGZ4Qq6pfX7/pxGOg2kTuz/d9PaJZWYG91F9vXgUKQhEpu9y/+GElz30Pz4t9p+oevvEcjvDe7QM5nFyEIjsM7mifvnfPy7Tx8HsG7tHh7jYPuHKsfoSqxdJCESkX4bJH/2Hf36APg6mUdwuFc5wsH3Co7+4e5OFQER95Ho66Y//PMJxMC/E7tNBLrZPuLJUX2IdRxoCkYyWb48U9f3Tf+gU/ZlihUXYPvGUnSHWxz32IQ+BSPRXiZf8+T9EOA7mm9i9OtDF9glXTtC35PqSiEAE27be7FvC++vjYOrH7ZaT7ROuRNiYu4JMBCJ4R66lR/76XyIcB/Ni7H652D7hTL+QbskBuROh+Kwt95/2lf/n3NjHwUTYPvGcmVEuWSmD6U8uAtJ7Ffn8SYTjYF6K3bPZDrZPOPN0SLfkgFyZOLRCH5jTx8GMLIjdNRfbJ1wprSaDOZVsBITn9cGlJX/z3yIcB/Ny7L652D7hzICQbskBOfrFP0quo/l/+x9dHAfjZPuEKwWnB3RLDsiN+XIVnf73f9pFOA5mdeze6e0TVeubGernQ7olB+RCoX549fw//Fd9HEzjkrjdc7J9wpWBg2QwZ5GRwCbojyJUbfIP/zXCcTDbxO7fXXr7xEAzg60PUhtSk5QE/tntcg2994//d5r8v2Nin7gXYfvE+WYGu4l+ILsDKQn8I330fPs5//ifIxwH81rsHrrYPuHMsJBuyQHOPSZX0Bab+N/6OJjLY5+417aWg+0TrgzvENAtOcC1W/Tu61mb+O8RjoMZF7uPLrZPOLNPSLfkAMeWyPXz8Sb/fw/5/3eM3cdZeofqxWYGfM55Ad2SA9waK29CFV+/yR9wpP6Q5pWxe/mVg+0TzmwR0i05wKmTYn8GUx8Hs2XsXjrZPuFKgwsCuiUHuBRhr7r60PgGfYl1Vex+utg+4cxFId2SAxz6Ra6dz+TPqC5/Ro/Y/YywfeIyO78lQrolB7hzo/7r5Ef5QyrrS6xrYvf0SwfbJ5x5JaRbcoAz+hH7dxF+yrXyp7SL3VMn2ydcGd0yoFtygCtzt5cL57YIP2a9/ClFO8Xuq4vtE85cGtItOcCRVXLdTIqybiIcB/Nq7L5G2D7xppmBH+vijSYgLGXj5bLZO9IP+lQfBzM9dm9fd7B9wpl2MpjuaRIU+KNnM/V4veRk+ZNeid1bJ9snXLkipFtygAslVeSieTbij/pIv5DYMHZ/XWyfcCaoW3KAA3vLNTMo6rmCEY6DqRG7v062T7hyqIs3moBwpGfIJTM48g+7UP6s1tvG7rGL7RPObCmDeYMcBf6rWybPz4pw8M52sXvsZPuEK2+GdEsOyLqecsGcsxk/7Qd94l7b2NeELrZPOKNvye1KkgL/cWVmK0yELRJfx+7z9y62T7gyLqRbckCWPS6Xy4eb9fPOjvNp+IicbJ9wRt+Se5s0Bf5NbwTKH71ZP3CiPg5mWOxeO9k+4cpl+pZcXxIV+M0XcrWs2Myf+L78iR06xu21k+0TrqSvk8FcSqIC/zI6P+O/3YfrN6nvid1vJ9snXIlwS+56UhXIy/tYrpUlm/0z18mf2blJ7EssF9snXIlwS+4SUhXI21Z/87LXZv/QEfo4mI2xe+5i+4QzF+tbcj+RrIA+uOWxCvzUM+RPbVopbs+dbJ9wdonVWAbzC8mKxJugr4WOqMCPjXAczH2x++5i+4QzQd2SA7JkmFwnkyv0NaZT5c/tUhC37062T7gS4ZbcFqQrEi7Cml9QoR/cSt8amx+79y62Tzijb8nVu5GERbJtlKukSknFfnJ/ByfuRdg+scrMVES4JXcOCYtEi/B3yNMV/NEN9XEwe8fuv4vtE87oW3JDapKySLID5RoZWVDRn70iM8dabJKT7RMe/Xn+HimLBCtZKZfI8xX+4TcVZ+n22B+52D7hjL4lt/1wkhbJdZhcIVVj/EXVR/70FrGPg3GyfcKVCLfkBpO0SK7bs/o3yBR9HMxtsUP40MH2CWf0LbmhTchaJNXaLG+8XCJ//sOxY3CyfcKVCLfkziRtkVSPyOXxTqyfv0xfYi2MHYTePlGlrpkZ0bfkxpeRt0gmfbxUs1nxWtCfMu0ZOwon2ydciXBL7gMSF8nUWy6O/jFb6KW/VX5U7DBcbJ9wRt+SG1VA5iKJxsptB/G/Gaf/6DwmdhxOtk+4EuGWXFdSF0n0q1way2O3sVBfYvWK3YiL7RPOBHVLDsiYCPd+jovfyhOykd6x23CyfcKjafmU5EXyXCQXxqIMtPJ5ykFZdLF9wpmTZDA/F5K9SJp5Fzi4H54XZW/qF7HbcLJ9whV9azF1AumLpNlHLovvMtLOAhcn7rnYPuGMPnVtcpr8RbLM3d7RfZ/0DNnQSbEbcbJ9wpUIt+Qqk8BIllXONi99q0/cax67Eb194nE7c6P3x91MAiNRInzd8tsMNRXhEzYfx27EyfYJV27RwWwghZEk9zn4fvHv5rs4ca+ng+0TzhwjgzmaFEaC1H1GLokBGWusVDf2YexGnGyfcOVHHczOJDGS4yC5IM7N4Hc6n3Vx4p7ePtHHzvzcKoPpQRIjMSI8uXs3g80VnJ7lz9j8Rm+fKO5rZoKO0JdYU0ljJMVr+niWjB7n97yDE/ecbJ9wRt+S+5I0RlLo5bAuo+0NHOSgQSfbJ1zpprfbTiGPkQxvytVQq0FmW9S7vuKfuBdh+0R/M1OU7i6DmUYiIxn0U/NTM9zi3K0dnLgXYfvEKWbm6BB9vTidTEYSXCFf/Wj5U6bbHKbPE6sftw0n2ydcKdS35L4ilZEE+uXaFRlvc3gHB88lI2yfOM3MLOmdJ80akssI33T5+ZKiLDz/1x+HiH/iXoTtE2eYmaaSXWQwd5DMCN8lciE8lIVW57g4cW+jPmexkZl52i3rZxoB/ntAn3KQldeEt3Nw4p6T7ROulN4gg9mddEbodOHIzou1Tk7cc7F9wpk99O6TtuQzwjZB/2mWpa8J62/Ixz9xL8L2iffNTFXZnTKYr0lohO3unH1/d5aLE/dcbJ9w5gB9S24OGY2QTRwqF8GT2Wpb3+2Pf+LehHtlI2fbmaytZDB3k9II2Wy5BE7O2hlSo12cuPe1bGPQQDOz9Y0MpkNHchrhKu0il8DT2Wv9UgffkY+wfeIHM9MV4ZbcPSQ1wqX39owsyF7rTk7cc7F9wpn9ZTCdm5DVCFWEDxqcmc3233Zwx79tLQfbJ1yJcEtuI2mNUB2mn6Fl9Rf2FS5O3KvhYPuEM/vKYJpWIq8RqNtzvUtpVwfHTUfYPvGRmRmbp7fb3kdeI0zjcr6v51D9rfJjYzfyimyjcV0zc9ZGBtOlgMxGkPRZLFn/mMEbDl4McrJ9wpUIr37OJ7MRIn15k4HTtoQr9SXWJ7EbeVW28XOhmVnby8F2W8BDb8nUfyr7nbhadmJR7DYibJ9Yb2bWGurrxW/JbYRnjVzGLk6VWevixL12so3L02bmrbaD7baAd/Q+8wdddONaB98PdLJ9wpXm+TKYBWQ3QhPhT4tlLvqhD3HNwIl7evvEzXZm7kEZTIs0+Y3AXOTg5lEUEU7ci3+lF2H7xAYzM1dH35L7nPxGWCLsQDzKTU/0dvviOrEb2TJH31XNioccbLcFvPK1N0lfOEZ2pXbsRiJsn9jZzNwt07fkFpLhCMnc7f35s2J1ysHjSr19ooed2ftMBvMIKY6Q3OPRXsoIJ+7tFbuRcS62T7jyqIvttoA3yprKjO/nrjcRTtw7JXYjevvEfnbm7zEZzGckOcKhT4yq5vD9jggn7rWJ3YiT7ROuLNaXWI+S5QhF6TN+fdQuwol7p8VtI32dbGSanRl8QgazhDRHKPRt7nOdfgYuwol7+8ZuZBt9b3+6mRn8XF8vLiPPEYb0DN/Ovopw4l6juG1E2D6xp505PF4Gs5xERxgu0we4D3fbowgn7r3g4Loyf6aZOXzSxXZbwAc7ymRf57pLnXQNjX3iXoTtE3eEdJVcm0xHCN7Ut7gbuO5ThBP3vondyMt6+8QsM7P4rYvttkDuHSNT/VT3nYpw4l79uG1E2D5xv5lZjHBE21PkOuzTH4dq9pP7XkU4ce/F2I28pK8t25qZx6ddbLcFcu1tP29+7Otgq0WE7RN3mZnHCJvp2pDtsG66/JpSUd9c9GtePbn+XordyIs5P9gsg551sN0WyDF9Sl+O3qm7X3ZsZEHcNiJsn9jfzEwWnC6DeY58h20RzrV71NuevRy7kW9kGx06mpnLjQ622wI5tbtM8tdz1bU7HLyRHeE7YJ3MzOXAQQ622wI5NOI8meOLc9W3Wc1k31bHbuQFvX2iiZnZXOVguy2QQ3q7Uw5P6NtTdq5xSeyKrbdPzDYzm0622wI5M7GzzPAnc9e7mfrEvW1iN/KcZ1+qiGWYg+22QM7Mlgl+ci5PDZ4muzcmdvciHBe0h5n5dLLdFsiRCA/Cu+ayf2v0iXuvxW6kjWyjS4GZGf06pOtF4M92c7DVKZb9HNxii7B9YjczMzpHP0R5ibyHTRG+r/JDbnt4uD5xb1zsRp7y6oP2MW3n++8goKK28f+Rfg/ZxR1jt9GwpWzkIDNz2rZWQNeLwB91l7m9Q667eKQ+DubK2I3Ulm0cXGhmUmuEdL0I/E9l/SbHiJx38mjZyS1jt9Fcb584zMysztK35FaT+zBIn9buwbuyG/Ql1lWxG1ku22iRNjOtX4V0vQhE/2urtQ9fI6kuu9kjdht19PaJbmbmdXTLgK4Xgd/tKvN6Lxt/uKauid3IQ7KN7nYusV51sN0WcGwnuWPAk0MLrpXrr13sNpbp7RNrzczsmpCuF4H/d6nM6gf96Oh6fajxTrEbWeRg+4QzX4Z0vQj8JsLmo2V+9DR9ouzpq7EbeVT/4fmjmbk9PKTrReA3NRzcy86QT/WJe9NjN/KYbOQNO5PbI6TrRSDSNwo+8aWvJSfLvr4Su5FjXWyfcOXIkK4Xgby8u2RG3+xPZz/SJ+41jN3IE7KRt+xM7+shXS8CwzvIjF7qT29Lq8ne1ojdyFJ9VXKcmfndENL1ItBJ5vN1Pj1HulDvcd02diPHy0betjPB1UO6XkTSlTWV+fypT/0tHSX7u13sRk7Q2yf6mpnhyiFdLyLpXrL2Rv8P+lDjtnHbiLB94lc7U6y3237BOoANpTfIbL7Qs0vC8bLHX8dupJ/ePnG9mTleH9L1IpLtYnsf/j5bfwpnTtw2SlbKRi4xM8dhXS8iydJjZC6f7VufJw6VfR4Wu5GuevvET2Zm+dOQrheRZJfJVO4w3LtOv687HftQ4wjbJ34xM8sRttt+zFqAATvKTD7Lv04P3172+p7YjQxwsX3ClY9Cul5EculNhfVu9LDb6xycmBHhnMYtzMxzhOvFD1kN8N4bMo/b+NjtEfrEvY2xGznTZjH/ex+EdL2IpNLfHml2ipcdP0Ouv6axn20OHCQbOcfMTBfo7bbvsB7guXYyi/f0s+MN9Acm7ovdyGDZxpCaZqb6h5CuF5FM0+X3c4vqeNr1D+X661IQt40mevvEe2bmOsJ223WsCHhNHwL1pa9db6VP3Jsfu5H3LO75+CfvhnS9iCR6QC/6R73tfH8Hr0BG2D4x2MxsR9hu+z5rAh6738FBylkT4Tv0e8du5BzZxtAmZqZbXy9Wrc+igLci7A1Y7HH3V8jeTyp0MERnmpnvCNeL77Iq4K39Zf5e7vMBUDfpE/cWxG5kCwfbJ5zR220HDWRZwNd7Gp1l/p7gdQB9ZP9bxC64EbZPDAjpkvoH1gU8dYDM3pP9PsR8ij5x77bYjfwi2xhVYGbK35HBjC9jYcBLBXfK7P3I8xCWyAgejt1GhO0TT5uZ8wjXix+wMuCll2XujvT90mGZvsRaGLuRS2QbVeqamfSgrheRJCWNA7if8ZmM4bHYbYzW2yf6mZn1CNeLH7E24KHvHXygJet66eNgdordyK8Otk8487EMpnEJiwPeSU+WmbuDgTAekVHcFbuNsXr7xJNm5j3C9eL3rA54Rx9Vd6+FF8sWyzBOjN/I27KRyWkzE6+vF38uZHnAN/ow4H1NxPGECqN4Yuw2ImyfWGpm4iNcL65necAzV+nvT55mIpDPZSBT4jfylmzkOztTr68XL0+zQOCXXWXW7mUkkttVIG/Gb+NQfW9/sZmpj3C9WJkFAmNJmz/TSCjfqEjWZqCRYxxsn3BGXy/ezAqBV16VOTvNSCSFu7j4oteP+hLrEzOTH+F68U2WCDwS4VNSy4yE8qSMJCNnwVwtm/nMzvTrk5JeZ43AIzVkxvawEsrN8pt0GWnmCH1VMtXM9Ee4XtyZRQJvzLsgmIQ9SkbSJzMN9ZQNPWQnAa4O5xcWEuAuma/VrYTS28Fnkv+tm2yoaJmZBFirL7GuYZnAEx2HBLMPco182tk5Q98DTXeXg7bcTgpca/e0JCSO3AiQus7KzsFXZCj7Z6qpQ2RTxXXMpMBr+npxJxYKvDBwK5mtnxoJ5TT5sZTWDTLVVuEMOWy1zeRAhOvFV1kp8ML5Ds7zc0TfjKuRucYOko3lNzeTBIfpYKazVOCB0htkrl5oJJT68tiq4gyWkBK5RTX1lJksKBwjg3mFtQIPXCwz9Vwr51bpUzTezmRzB8rmmp1iJg1W62AasliQ+7sX+lfri1auFUfJUB7NaHv62rSNmTyIcL1Yg9WCnFsv87TD8GCuFW/NbIN7yAZrnWYmEfQZJK23Zbkg13aUefqClWvFFjKUzzPbYpk+GO05M4kQ4XpxO5YLcuxYmaX1GhkJRX/k+eBMf+t3tmyyfSMzqfCSvl5sy4JBbm0ps/R+K6E8JkPpmukmJ24VzPVppOvFfVgwyKmp4TzoukaG0jTzp653ko0O6WgmGV6UwZw3hyWDXPpS5uhXVkLpI0M5O/ONzt1atvqNmWSIcL04jCWDHLpJnphSZOV9uIb58piybFzr7C/XeNX6ZtJBv1TaoSOLBrnzlczQdlZC+SU3D+wm3BvMNrZ/XS/KNwVSq1g0yJkH5LvCmd1pmUUj2subcbOy0rB+fdHMiwJ5eS/IYDo3YdkgV+6X+bmllVCGyVD2zE7D8+rJll8ykxAj9PXi8ywb5Co9z5PpeayRUAYOdXF+agWr/sgCMynxnH7UWomFA1//ALjWSij6JZmsfZS8bS3Z9stmUiLC1/2fZeEgJ+rrR/LrjYRSUkWGcmXWGr8jnO+J5eW1kcF0KWDpIBf0PsGMv8qSLfrzc8dnr/FZzWTrq80kRYTnME+zdJADBfpNjIutxPKdDOWQLLa+p2y9cYmZtHhKBlOlLosH7l0YzsX/m7n9o2ym3LOa2sZMWkQ4BPxbFg/c3/bZJZzH8T1yfKd4mmx/TKGZxFghg5lUyPKBa5/qPYITjYTStyjHoayRbzilLjOTGPp1rdSTLB+4dnk4b+3WlqG8l+Ue7Cd7cHnaTGYsl8FMTrN+4NZSmZX31jQSyrbywVbWv0F4uLzGS40zkxp19CXWUhYQ3Kouk3JfK6GcIUP5MOt90HfRdrSTG0tkMN+xgODUkfrEASvHJ8ztII8AnenBeKbeNJMcy/T14mKWEFzSVwR3WAllsAxluYNevB7Oe+R5eY/LYB5jCcGhKfJ3qJlT1iPsfz3UQTc26Eusq8ykx6M6mE9YRHBHbxx61Uoo82UoRzvph74p2MNOfjwig1nEIoIzEXYzH24klPTPMpTKTjqiDxlLXWMmQRbqYKayjODKXjIdd7USSjcZygxHm4auDedz03l5PWUwD7GM4EgD/QWnna3Eov8SW+2oJ+tlT4p2MpMin+tgprCQ4Ib+rOTVVkK5RYZyeoGrP05PDOfGYF7e7TKYB1lIcGJ4B09u+2SAPldxtrO+fC/7kj/dTJIskMEU12EpwYUdZC5eZ+VdsebyLZIhw511puRkObCvmEmS9AwZTG2WEhwYqM/3/d5KLPrrxF877M1HsjfNGppJk7319WJzFhOy7/xwPkF+ozwywekLRqXV5NDWMJMmJStlMHuxmJD9VXVDOIe86GN/LnHaH/0R19bbmkkUvSO32SksJ+T+75amZVb+uO0sn727vTFcOkoO7nZ2frM9I4O5n+WELEuPkWl4gJVYfpCh9PauR7XamkmV+3Qwp7GgkF0nyCzsMNxIKCX6lpHrV3TLxnv1FCCeCK+V78uCQnbdLJNwfyuh9PPw4OqzZZ/azzGTK7N1MI1YUcimxTIH65nJwe4ylhOc92niUNmpYWaSZeKgcH67wSb9nbndrYSivyhQrcR9r97Xf3J3NJMt94QUDAyaGtCj6mNkLBfmoFfDt5fdWmUmXeZuLYPpxKJC9uhX776yEor+aOqgSrno1zp93mMTM/lytw6mPqsK2aLPyCwy80brpZ6eqzinvezYRjMJM+FevTX35dguXn/cQBYnytsznG/MtWomnx7k6HGcPnVsfJmZjPk65UZ+9dkjWJ/4yyKXJ46mjrQSy+7ebsNuqz+PeJ+ZlJlXL+VKrS0msETxR21k0rxhJZSa58nf2aNz1bcP5TB3KTCTM7un3NmqG2sU/zNC313ZYCWWTh5/3TPChex8M0kT4Xoxc4qGsUrxX2d5uDO8ggr0KzDLcte7/rJzjeuayZo7Ui69wDLFf9TXm2ousxLLy17/cTtan6K2t5m0adjMacXqykLF/9OvuR1caCSU9CQZyxG57N8K2b1JhWby5iunBav99axU/PuvKP3u/WorsegTtXL7VXq93y21wEzizMx3WrE+Y6niNx8E9OxKH/P5bW472Ed2cHLaTOZMc1qwUj+yVpGXV9JYZspLVmLZWYYysjS3PdTvDaVuM5M6a4qdFqy3WazIy/tUvxU20UosS2QsZ+a6i71lFx+2kzv7OS1YrXk7EXl5l4fz3v10+Rt/65y/XqxPpE4tNJM7x7n9m5Dto8hbKtPk3ppWYvlYxrIu9518XHayp53s6eG0YLF7FHnVZZrcZSWUeXLvdWsPDnr4RC/Mo8xkTy+nBWsayzXx9PJpbeYAlH1kLE/50M1HZDcft5M/R7ssWItYr4mnr+nNHElcX37Ss2isD/3UX89PHWomfza4LFiPsF6TTj9lz59pJZaNMuH386OjerNYbzsZVJ2CBXcelElyqZVQIhyu3MuPnn6ul+ZxZjKoMgULzjSUL+MWHW4lloNkvj/hS1dvl13tYyeHjqdgwZWnZI68ZSaWyTKW13zp6gLZ1eK+Zsb9BAoWHGmgv8F2lZVYxslQTvbmOwjpGbKzJ5lJovSJFCy48ZxMkavNxKIPgj3Qn85+Kzvb0syzjgjvdlGwkAk19VFNla3Eoh93nuvRiTQlK+XI9zeTRoW3U7Dgwg4yQ1qY+dSJftzp1bHKT+v9urPM5NFRxRQsZN/ArWSGbGMlFv24s71Xp9uV3iDH/kM7mfQ1BQvZ94NMkGpmTkQ4Vcbyjl8dfjagV6LyStpRsODBL/ndrMQyQR5G2Myzv7DK7rRWYjcZzZcULGRZV5kfTc0cnP6+jGWFb11+Xp+60MhOMpW8kE/BQjYV/izzY7aZX/BNZSxX+NbnifoO4jpL+XTkzRQsZNGTMj2qmvki7QAZi4cnrqySnR5S01JCpdfudwEFC9miXwG728zfI7vIWI71r9dz9fG17xvLqUqLN+5+SZ8YbqVg4e8tlKulnplbKPrVPC/3kw0L6BrXTVZSsJJLv8myu5lY9N2T733s9gT9osHZFCwKFv5lqlwrzU6xEsuPMpZn/NxPpvdbDhpIwaJgIcqBcq+YiWVXGYunB8HOkbvHUj9QsChYyLtJvv1VvCacWKo28bTr28mCNb4sUXlJwcLfqi1Xip1jwb+y+7izrf4e2YUULApW4rVqLRfKNVZi2VbGUquBt52vIedhVAEFi4KVdPpV4WPMxLKvjOUifzs/S//m+IiCRcFKuBHt5TJ500osc+VhhMXNPe7+K3ImGpdQsChYybZOrpKHzcTyoozlC5+7P7qlzT1kFCx4dFHiz/kySmkXGcuRXgfwquz/z4XJSU0KFsp7V66Rg82skY+svzA7Vn9eeD0Fi4KVYAXj5RJZbSWWCOdlLfU8BP2xzsvTiclNChbK+UCukC4FVmJZav9i8Qp53I+do4soWMi4ksZygexhJphHAtgV0EPGcDMFi4KVWP0CeuNWv8J9p/8Xi4fqD9dtoGBRsBIqfblcHveYCeaLIL7PsqWM4mgKFgUroT7XH+btaCWWhvLgg3stxHKlvsTamYJFwUqmJ+Ti+NpMLBfJWPY1EcfVMo4eFCwKViIdpc/vbGsllkbyzINmrUwEMk5fYk2lYFGwkmiR5VeF/+JuGctXRiK5VkayHwWLgpVAU+Smn/yZVmIZOFTFUtTXSCivyYJVNIWCRcFKnuVyZfxqJpaXZCy7WgklfZ2MZRoFi4KVOPqxWtHhVmIpqSIX+Y9mJmYbGUv+dAoWBStpnpLr4q2A1vi1diamcIyMZk8KFgUrYRroT4hfZSaY72QsCwxNzepUODcXKVjIjDPkqrjVTCwbZCzVSgxNTckuMp47KFgUrESJcNLwODPB6P0ZA0xNzsv6ZNtZFCwWcZK8L9dECzNfXtpJ7s/oPNHU5JTeIGfnfgoWizhBBm4ll8RhZoJZIWN539j06F0atdoGn6MULPzXmXJFVDFz1+cBeTxWvTnGpqfsTjk/d1GwkBilo+SCONBMMO/IWE41N0H6/J/2c0JPUgoWfve0XA9Ny6zEMreD3AQw2twETdR/su9PwUJCFP4sl8NsM8GskrE8aHCKvpFRdegYeJZSsPAfC+RqqFrfSiwRzv051OAURTgvshMFC8lwvFwMd5uJ5UAZy+sm5+gFGVfnJhQsJMFCuRbqNbISS1r/dTvO5CSNuDegP9spWIjhaLkUtjMTi/561IlGjx59TkZ2biUKFsJ3S0gvfujP0h9kdJrmyY8+GzozkoKFCntILoRLAiq+IwuszlObgE7lpmChosYWq3VQvMZMMF/KRb3R7ETpHfyGdvdSsFBB+s27L8zEcr0svkOG250p/YnFanUpWAhbq2ZyGVxjJpi9ZCz7GJ6qhi2DvUFHwUJEH8pF8LiZWG6U96Vbn2Z5rmrLuTq4kIKFkOk1nnrTTDBnyVg+Nj1ZzeU5IalDKFgI2Tq5BB42E8vEzvLcnzW2Z0ufxNYiHWyqUrAQ5RW118wEoz/qtcT4dNWRDxVS3ShYCNe7cgFMMnNXpK7+kPDO1udL75nrHuwlFgULET5tYOe507cB/XX7T5bJz9Wn1lKwEKoBevN0qZlgLpfBrLc/Y5/JIHekYCFQJY1l+t9nJpgjZCwrA3jm/6iMMvUjBQth0n9EDbLzAYA3ZDAvhzBnj8kw36BgIUjpE2XyrzITzJSigIrvJhyrL7GuomAhRLfJ1B9i5zvhryblE8L6AzpvUbAQIp36dt68069Eth8Rxqwt1ZdYx1GwEJ4fQzpO+H4ZzO6hzJv+Av/bFCyEZ5FM/F/MxFLzPHkYYcNQ5u0EOW9FfSlYCI2+S50/00ww+ti+S4OZuAjPSn6lYCE0ywNK+4KmMphl4cxcPxls/vUULIRltPxUSdFOZoK5UC7hYwKaupKVAX2Fn4KFSPrLpO9tJpbCSTKYhSHNXVd9ztFPFCyEpEGtgPYf6tvQ1wX1DYPSagE9L6FgIYJ3ZMobSoAdZTD9wpo9/dJ6620pWAjHBH3wuZ3PlHwS0jcnIik4XYa8BQUL4XgvpG/t9pbB/BDa/OmPq9a7kYKFUEwcGtBpBtPld4O3bhLaBA4cJCfwHAoWQvG8TPcqJWaCuUQGc1Z4MzhYv7hek4KFMJSOCujQ83nyeWfrtuFNYRN9jfweBQthmC+T/fQCM8F8LYPZK8Q51HchOwynYCEEhT/LZN9oJpj68qCy4rEhTuJwfUDbYAoWQrBApnrV+maCmS2D+TLMWTxHBj40rGcNFKyk0h9UGmYmlgi343qFOYsj5Bd1UmdSsGCfPl6m/RwzwayWwVQPdR63kKE3rRRSvBSshNLnrhjaJT05uWe3N7hAxj6AggXrbtGv+s8yE0xlGczJhcHO5C8y+FEFFCwYt0Sm+cd2gjlaBjM/3Jls1VpG35WCBdvGFge0DeAauWLPLQt4LvUe/yp1KVgw7SSZ5H3sBLM8aXuR/mx0yyR9V4eClUSz5Pl9hk61aygX7L0dg57NX+VkTgrnFh4FK4k+lCn+eEjBnJH0v+9TJ1CwYNeN+lH4lWaCmdA+oOedFfO2nM7JwXwcmoKVQPp9joftBKPf/10R+nzqwyVTSylYsGqufmPWzj7LgVvJYK4IfkbfkmPwHQULVg0O6SbtszKYReHP6KFyEFKLKViwqWy8zO69zQRT0lgGsyEBc/qGHIXHKFiwSV+TjLJzvMwhMpjbkzCnP+pLrE8oWLCopIrM7WftRHOzDGabRMzq1XIcPqNgwaK9ZWoPsvM9kitlMNXqJmJW1+pLrKkULNiTnhHSiyw9ZDB7JGRee8qReIiCBXu66ZOh7LzIMlZuQKo6kXn9j6JlFCwE+Jt4HzvB7BnQZ57jXjl3l2OxnIIFa/TjpFp2zu/bVn4Kqta8xMysfl5aXIeCBWM+k2n9i51gngspmLgK9c3J2hQs2KLfOssfbSaYuR1kMDMTNLcHyYKV35yCBVP6yKQ+yU4wZ4f0FcL4SnaR4/EUBQuWjM6Xj5L6mgmmtItcoEcmanYP1AeLnELBgiEfy5ReYieYrol5fy5qBb9BjkgbChbs0E/VDB2QnB4jg6mcsPndQz8CPo2CBTO2COma5HMZzMGFCZvfsjvlmDxHwYIVE86T+XyEnWhulcF8lLgZni3HpH0jChaMGCbTuYWdT39PlcGcXpC4GZ6oP7/6AgULRrJ5qMzmQ+xEow9eeDGBc9wppDdFKVjJ9rw+IbjETDAN5QaNIcMTOMdzt5aT/A0FCxaUjpK5PN9ONDVkMHclcpb3l+NStT4FCwbMD+mmjz5ZsVmrRM7yhHsD/1OZgpUQhStlJj8f0oXEKwmd57vkyJxbyXJ8FKyE0F8fqdrETDAD5fODojoJned59eREv0TBgvdul3n8np1gXpLBvJXYib5fjs3IAsPhUbCSQR9S0H6OmWAiHPxzVGJn+gH9/tXLFCx47hGZxe/YCeZ7Gcy1CZ7qO4I+SYiClQj6LPNms0L68/bJBM/1rGZyeFZTsOC13jKH+9sJ5lh9CVGS5MnWR3M0tjs+FKwkGFssDyi43k40+rv0HyR6tmfKtwAMH4dNwUqCk0L6mPBO8rv0gyole7qnyekeY/bLOxSsBGjYUmbwcSFV3x0SPt9r5AV16jUKFrz1i8zfz+wE84C8p1xvTtInfD854ZenjYZGwQqffvEu9aOdaPRnU9skfsYPl381p8ZRsOCpfWT2fmcnmJry7V5DJytmTQ855TtSsOCnudvL7L3NTjT3yGCmMeV5R8pRSr1JwYKXVsncnWTnmVHBeBnNLUx5Xt7Rcpi2pGDBR2V6iX9rJ5rdQl2IGbZBX2JdRcGCh+4L6dWy9CQZzVqm/DfV5UD1oGDBPxG+bDDATjSXyWBOTDPnv6msL7GuoWDBOwfJvLW0L7ynjGZvpvz/XSuHqh0FC979DTVD5u1gO9HcEvbH6TJqvRyrop0oWPBMt6AOqtM7uJ9nyn//VXWiHKxXKVgw9zfUOXaCuV6+I9dhOFP+O/2Zw/zpFCx45UqZtLXa2onmqZCqb9aVnBzi0UIUrKA9LnP2QzvB3FhLBdO6LVP+Px/pz8w2pGDBI1fIl2Bb/mQnmnUhfTbVgdJqcsBqULDgkS9kxq6wE8zEzvKx1xqm/I8ulNPfelsKFrwxWn4rt6ivnWiel8vvIab8z5dYo+SQbUfBgjcuCWmJ170h0LfjsuiHoJ65ULACF+FIzV52otlbBvMwU/4XEV58/5qCBU9sJ7P1aEPRXC6juYwp/6uzQzrwm4IVtgnnyWw9wk40a2UwKwuZ87+aOFQO2zAKFrwwTObqZENfNthSRrMbU17e+3LYOnQ0FRAFK8G/XBfYiWYKhxFWyHD9fexVFCx4YKPM1ColdqLRZ4Pew5T/Hb3btnMTChZyLsIenKftRPOTPAq2/Qjm/O+M0HcyN1KwkHMH6u/KPHqcGXpH2e5M+d87Qw5d00oULORYycpUorQ8hTn/ew30MbrPUrCQY4clq16lfmXK/8mp+i7WG3Z0p2AF6faEFazDmfJ/0qp1gvKAgmXTuITVq8eZ8n/Wn4IFz92asIK1mCn/Zw1bUrDgtUMTVq9acBjhppxEwYLXeiesYH3KlG/KTcUULHhsbHGy6tUzdZnzTepDwQJ/AnjjB6Z80/SbmBQs5Eyj1smqV1WbMOfcI6BgmXV+wi6wzmLKlWVFFCz4alGy6lWteUy59DgFC76qmqyCdQczrvWiYMFTDZJVr4qvZ8ojuJWCBT/VSVbBaseMR7GQggU/HZ6sgvUoMx5JTwoWvNQ8UfXqaiY8ms8pWPDSxETtc+/GhEeUiC8O9WCe7WmcoHo1icMIo3oyCfnAhxwNeipBBetppjuq9IwE5MM3zLM9S5NTr8YXMN2RfZuAhFjLNNtTckNiCta7zPZm5EX49wrqcZquRQOSUq8G1WeyN8P84BPiKybZorozElKwDmSuN0dptcDzoeg4JtmkOrUSUa8W8WXkzfN94AnxIFNsNTOTsBfr5wlM9OZJ7xp0Qmw/iym26oP88OvVA0zz5mowMuCEKGYTsWHdQv/IzCKuryqgb7hpUXQf02vZA+1CLldDB3D/qkLGhrrnpdlHTK5xR05rHWhyVhs8nOmtoAlfBJkSK6cytfbVX7/Pkuq3h+WNrzZewdVVHEeE9xr0oNkFzCsQ6rX3/ScHdCrFVg9+T7kCgtZkypWLgzC1AZMJAAAAAAAAAAAAAAAAAAAAAAAAAAAAAAAAAAAAAAAAAAAAAAAAAAAAAAAAAAAAAAAAAAAAAAAAAAAAAAAAAAAAAAAAAAAAAAAAAAAAAAAAAAAAAAAAAAAAAAAAAAAAAAAAAAAAAAAAAAAAAAAAAAAAAAAAAAAAAAAAAAAAAAAAAAAAAAAAAAAAAAAAAAAAAAAAAAAAAAAAAAAAAAAAAAAAAAAAAAAAAAAAAAAAAAAAAAAAAAAAAAAAAAAAAAAAAAAAAAAAAAAAAAAAAAAAAAAAAAAAAAAAAAAAAAAAAAAAAAAAAAAAAAAAAAAAAAAAAAAAAAAAAAAAAAAAAAAAAAAAAAAAAAAAAAAAAAAAAAAAAAAAAAAAAAAAAAAAAAAAAAAAAAAAAAAAAAAAAAAAAAAAAAAAAAAAAAAAAAAAAAAAAAAAAAAAAAAAAAAAAAAAAAAAAAAAAAAAAAAAAAAAJMP/AQfM6fNgx0/TAAAAJXRFWHRkYXRlOmNyZWF0ZQAyMDIxLTExLTExVDE0OjQzOjA0KzAwOjAwcuiEjAAAACV0RVh0ZGF0ZTptb2RpZnkAMjAyMS0xMS0xMVQxNDo0MzowNCswMDowMAO1PDAAAAAASUVORK5CYII=;" vertex="1" parent="1">
          <mxGeometry x="240" y="385" width="80" height="80" as="geometry" />
        </mxCell>
        <mxCell id="8tucULJYZbGx7OZ7GhKJ-3" style="edgeStyle=orthogonalEdgeStyle;rounded=0;orthogonalLoop=1;jettySize=auto;html=1;exitX=0.5;exitY=1;exitDx=0;exitDy=0;entryX=0.5;entryY=0;entryDx=0;entryDy=0;" edge="1" parent="1" source="8tucULJYZbGx7OZ7GhKJ-4" target="8tucULJYZbGx7OZ7GhKJ-11">
          <mxGeometry relative="1" as="geometry" />
        </mxCell>
        <mxCell id="8tucULJYZbGx7OZ7GhKJ-4" value="" style="shape=image;verticalLabelPosition=bottom;labelBackgroundColor=default;verticalAlign=top;aspect=fixed;imageAspect=0;image=data:image/jpeg,/9j/4AAQSkZJRgABAQAAAQABAAD/2wCEAAkGBxAODw0NDQ0QDg8NFRASDg8SEBEXEA4PFxUWFhYWFhUZHCggGBonHxcTIT0jJykrLi8uFx8zODMsNygtLisBCgoKDg0OGxAQGy0mHSYtLS0tLS0tLS0tLS0tLS0tLS0tLS0tLS0tLS0tKy0tLS0tKy0tLS0tKy0tLS0rKystLf/AABEIAOEA4QMBIgACEQEDEQH/xAAbAAACAwEBAQAAAAAAAAAAAAABAgAGBwUDBP/EAD8QAAEDAgIHBAUKBgMBAAAAAAEAAgMEEQUhBhIxQVFhcQcTIoEUMkKCkRYjUmKSk6Gx0dIVF0NTVMEkM6Ky/8QAGgEBAQEBAQEBAAAAAAAAAAAAAAECBQMEB//EADURAAIBAgMGBAQFBAMAAAAAAAABAgMRBCExBRJBUXHwYZGh0TKBseETFBVSwSJTkvEkM0L/2gAMAwEAAhEDEQA/AOQmSIrR+gjhMkRCAdFKigGRSooApkoUQHo1FImagGRCVFAFFKEUKMilRCgGTJEUA6KVFAMEQlRCAdMvMJggHRSoqAKiCiAr6iVMtkCmSIqAcJkiIQDopUUAyKVEIApkqiA9GopEzUAygQRQBRShFCjBFKioB0UiZAMilRQDBEJUQgHCZeYTBAMolUQFfRSorRkdQJUyFCmSBFQDhMvNdvRHDBV1kMbxeMEvkG4sbmR0Js33kMznGEXOWiV/I6+i+hT6prZ6hzoYXZtAA7yRu4i+QHMg34WsVbhorhkXhfDHrHfJK7WPxdl5L5tPNIXUcbIIDqyzAkvG2KIZXA4k5DhY8llr3lxLnOc4uzc5xu5x4knMlTNnFowxWNX4sqjhF6KP11Xn5ZWNMxXQGCRpdSOdC/2WucXRHzN3Drc9FntbSSQSOilaWvYbOad/Ag7xzXW0U0kko5WMe4upnkCRhdcNv7bPokbctvwItnaVhrXwNqwBrwFrXn6UTjYfBxH2ih60qtfDV40a0t6Mvhlxvyfb1TXjmyZKoqdc9EU0VLI8XZG5wGRLWuIB8gvT0Cf+xL90/wDRLkcktWeSgXv/AA+b+xL90/8ARH0Cf+xL92/9EuTejzPBFezqKYAkwygDMkxvAA62XgE1Npp6DIpUVAMEyRFAOilRQDBEJUQgGUQUQFfCKRMFoyMilRQDqBKmQoQrf2YzBtcWnbJFKG83XY78muVPC+rD6x9PLFPGbOicHN4G20HkRcdCozxxFL8WlKHNNe3qW/tSicKqCUjwOhDWn6zXuLh/6b8VTFr/APxcapNp3GwI7ynlt+eZ5EKoTdnVUHEMmhczc4ue0+bdU28iVEczA46nTpKjWe7KOWfevDMqEbC5zWtBcXWaGja4nIAcyVremZ7rC5WPN3asLBzcHM/QnyXy6L6FNpHNnnkEszfUDR83GeOebjzytwvmq72g4+KmQUsJvHTudru+nKLtPkPEOpPJXUzOqsbiqcaWcYPeb8tPKy6vgrlSCKVFDtlz0N0ngooHxTtlL3yF41Ggi2q0byM/CVYPl/R/Rn+zH+9ZYipY59bZeHqzc5Xu9czU/l/R/Rn+w39yPy+o/oz/AGGfuWWJ1N08/wBHwvJ+ZruDaU01Y8xRd41+qXAPAFwNtrE55qi6aYN6LUFzBaGa72cGne3yJv0I4Lh0NU+CSOaM2dG4Oad1xuPI5joVqlfTx4pQhzLazxrxE/05gCNUnrrNPUo8j5XSWzq8Zx/65ZPwfea8LoydFfZBg1S+4jppnWJBtG+wINiL2te6Wrw2eD/tgljHEseG/atZW53fxI33bq/K58yKVFDQyZImQDIpUUAVEFEBXwilCK0ZHCKRMEAyKVFAOolTBCn1UFfLTvEtPK+Nw9pp2jgRscORuFZ4O0StaLOZA/6zo33/APLwPwVOCKjVzxq4alV+OKfy7Zo+iWmctRU9zVloEwAh1W6rWSi/h4+LmdoA3r4u0jA+7kFZE3wTnVmA9mW3rcgQPiOapDHEEOBIIsQQbEEbCDuK1/BayPFqBzJrFzh3VQBa7ZLXDxw3OHA9FDlYqmsFVjiKStDSSX174rxMjRX0YpQvpZpYJB4ozqk7nDaCOVrHzXzKnaTTV1oMilRQoUyVRAei07s+oJYaYvlNmzESRx/Rbb1r/WFsuAHFZxhdOJp4IjskkiYeheB/taVp7WGCi1I/D3zhEbZWj1XEgdQ23S6jOTtSUqjhho/+3m+SXfpbiDE9OKaFzmRh85btcywj8nHb1AtzT4XpfS1Z7mQGJz/DqyBpjeT7Ots8ja6y1S9s+Cti/ouG3LK9+d/4071Lpppoy2Eel0zdVlwJYxsYTkHD6t7C2643bKctW0cmNbh7WzZl7XwyE7XWu2552seqyk7Tfbv6qI3sytUkp0qucoO1+evtrysFFKih0xkyRFAMogogK+EQkCYLRkYIpQigHCKRfdhFA+qnip4h4pXBt7ZNG1xPK1z5IRtJXehatANFmVbZaiqYXQ2McTbkXefWcCM/DkOpPBV/SShipqqWCnldI2M6us4C4f7QuMjY5XsM75ZLUMero8Iw9rIcnNb3NMDYkvtm88bZuPE9VjZd7RJJO0k3JPEneoszmYCrUxFSddtqDyiunHvi3yHUSplTqhV87LKeXvaiVp1YANVw9l8l7gdQLn3uao9JTvleyKNus97gGN4uJsOg5rX3uiwbDrZOMbbNvb5+oI/IkE8mjkozmbVrNUlRjnKeSXz99PPgfTidNh0shNV6K6UANPePYHgDMA533n4r5f4bg/Ci+8Z+5ZFPO6Rz5HvLnPJc9x2ucTclKCeJUseMdkSjFL8WXy0+WZr/APDsH4UX3jP3KNwzCSQA2jJcQAA9hJJ2AC6yG54lM1x3Eg7iNoPVLGv0qX96Xr7l0080cZThlTTM1YnkMlaL2Y/2SOAOzqBxVNC1rAK1mKUJZNm4gxVAyvrWyeBuvk7kb8Fl+KUD6WaWCTbGbX3OG0EciLHzRHps2vNqVCr8cPVc/HrysLQ1BhlhlAuYnscBxLXB3+lqmldD6fRB0F3Eas8Nv6g1TkOrXHzssjVv0O0u9FHo9Td0FyWPAu6InaLb27+I57jLtChUluVqWc4PTmsvbt2KqRbblbaOBTwxOe5rGNJLiA1oFy5x2ABaxPheHYh86GwyuO18b7OJ+tqEG/VfThmEUdM4iCJjJLG93F0urvzcSQPwS588tt04x+CW9yennr6I+ahjGG4d4yLwsc9/DvXXOqDv8RDR5LJhtKt/aJiM5mFK9upC0Ne2x/7Sb2ceniFuRPC1QRH0bMoyjTdWbvKb3n/H1fTQKKUIqnTGCKVEKAZRBRAV5FKEQtmRwiEiYKAYLVezHAu5hNbKCJKgWiv7MGRv7xF+gHFUPRDBTX1ccWfdt8czhujBFxficm+d9y0HtExsUlKKSEhslQ3VAbl3dOMnWtsv6o97gozk7RqSqSjhKestfBd59F4lI02x306rJYbww3ZBwc2/id7xF+gauAkCZU6dOnGnBQjoshkUq6GA4W+tqIqdmWsfG76DBmT5D8bDehqUlFOUnZIu/ZhgW3EJW/SZT34bHPH4t+0uP2g476VU9xG68NKSBbZJLse7nbYOh4q56W4mzDKFsNP4Xub3VO0es0AZv8hv4kLIL71lZnJwEXiK0sXPpFclp9urYyZIEVTsDhMkRCA7+h2NehVTXOPzUtmzcGtJyd7pz6a3FXHtFwXvom1kQvJALSW9uDM390m/QuWYrUOz/FxU07qSWzpKcauqc9enOQ629Xpq8VGcjaNOVKccXTWaykua7y8nwMyCi6ulODmiqnxC/du8cJO9h2C/EZjyvvXKVOrCcZxUou6eaDt25rp6P4o6jqI5231RlI0e1GfWb/vqAuYohqX9UXGWaeTRq+l+FtrqQTw2c+NvewuHtxkXLR1FiOYCywFX7s4xq4dQyOzZd8BO9m1zPLb5nguJpxg/otQZGC0NRdzeDX+034m/Q23KHHwEnh6ssJN6Zx8Vr9/lIrygQRVOwFFKEUKMooolgV0IpUQtGRgiEoRCAsuguOChq2uebRTfNzH6AJyd7p/AlXPtQwHvYm10Qu+ABsoHtQ3Nj7pPwceCyla92d422tpDST2fJTtDCHZ95TkWbe+22bT5cVlnI2jCVGccXBZrKXiu8vLkZIEV19LMENBVSw2+bPihcfaiOzPjtael965Oqba2q630reH4qnWpyVSKnDNPQIXX0Wxc0VVFPa7fUkG90brXtzGXm0LjXTBCTgpxcJaPJmt6fYOK2kFVBZz4GmRjm595CRdwFtuVnDzG9ZOCtN7Mcf7yM0MrvnIQXQ39qG4uPdJ+DhwVU05wL0KqdqNtDPd8VhkzPNnukjyc1RHK2fOVGcsJU1WcfFd5+fIr6gSplTsBTJAiFAOtL7NsD7uM1sg8UwLYr+zFfN3VxA8mjiqRoxhDq2pjhFwweKVw9mMW1s+JytzPJaBp5i4o6VtLDZsk7SxrW5d3ABZxHDKzR58FGcnaVSVRxwtP4pa+Efvr06lM00xoVlUSw3ih+biI2OAOb/M/gAuElCKp06dONOChHRZDKIL68JoH1U0UEe2QgX3NbtcTyAufJDTaSbeiLj2b4NrOdWyDJl2Q83Wzd5A26k8F8faDjAnnFPGbsprh3OY+t8LW63Vr0grmYZQhkPhdbuqcZX1rG7zxtm6+8kcVk5dvJvzO0qHIwKeJrSxU9FlBeHPvi2OikTKnYGUCCKAKiCiFK8igotGRgiEqIQDLvaEzzsr6Y0zdd7nasjNgdEfX1juAFzfi0bdi4C03sfoBq1VWRc3bCw8G2a9/xuz7Kj0Pkx1VUsPOTV8rW65F3xY0sYbU1YhaIrhkkrWksLrEht87mwyGeS4ze0LDi7V76QDZrGJ+rf8AP8FnnaBjD6qumYXERUxfHGzcC06rndS4HPgAq2FLHMw2xqcqSdaTu1onpfPk/wCM8jY8a0Vo8Si7+lMccjge7nit3bzweG5HhfaPwWTVtM+CSSGYFr4yWvadxH5jYb7wQrP2aYy+GrbTEnuam7S32WyBpLXDnlq87jgF0O1qiDJqWobkZmuY/m6Mt1T1s8j3QiPfCuphsR+WnLei1eLevHL0az46WKZhlc+mminjNnxODm8DuLTyIJHQrXcZo48Yw9r4bFzx3sBNrtlsQWE7vaYeHksXV67NtI2wPdSVDwyKU60TnGzWS7xc7AR+I5oz02lQk4qvT+OGfVfbXpfjYpbgQSCCCCQQRYgjIgjcUFs9TgeFzPdLIyBz3kue7vbazjtNg6y8/k5hH9qn++P71N5HkttUXrGXkvcx5ELYPk5hH9qn++P700eAYU0tc2KC7SHD54kXBuMi6xTeRf1qj+2Xkvc8dDcJbh9G6aezJJG97O939OMC4aeguTzcVm2kGKuramWd1wHHVjYfZiHqt/31JWp6YUb6qhlbTvJItJqtsRM1uZZccduW8Dcsa5KpGdk2rOpiJO827dF99Pl1GCZIiEO0OtN7OsF7iF1ZKLPnHzd/YgyN/eIv0DVmK7zNLar0Z9G5wc1zAxryDrtZvbrbwRlnnntRnxY+jVrUvw6bSu878u+HHRE0vxr02pc5p+aiu2EfSZfN3vHPpq8FxUoRQ+qnTjTgoR0WQUyVRDZ6IpEyAKiCiAr6K8060ZCigohRgtT7H65piqqa+bXNmaOLXNa026Fo+0Fla6WAYvJQ1EdRFtZcPafVew+sDyP4EA7lGfLjcO69CVNa8Oqz9TpadYY+mr6nWB1J3PljduLHkuNuhJHlzVfC22KfD8cgAcGyEZ92Tq1FO7iLG46jI81zW9mVGHX76pLfoa0efIu1FLnwUdq06cFCunGSyeXLj38iodm+GPnr45bHu6a8j3bgbWa3qSb9GldrterBr0dODm1r5H9HlrR/8uVsrp6bBaMvjgIjaQAyMXMkhyBe89ANY8hnkFjOJYhJVTS1EztZ8hu62wbg0DcAAB5IMLKWLxP5m1oRTUfHn9X0yWep86KUIhU7I4RCRMFTW8+YyZIioN58zR+zDHbh2Hyn1dZ9OTvG1zPzcPe4LjdoGBei1BnjbaGoJcLbGS7Xt5cR1I3Kr0lQ+J7JY3ar43BzHcHA3HUclsJEWM4dlZpkFxxgqAPyBPm081GcTE/8PErEL4JZS68/58c1xMcTLtQ6H4g++rSOFiQddzW5g2y1yLjmNq+bEMAq6Ua09M9jd7wNZg6vBIHxQ60a1KUt1Ti3yTV/I54TLzCYIeg6KVFAMilRQBTJQogGUUUQFdRQCi0ZPRFeadAFFBRCnoyQtILXFrm5tcCQ5p5EbF0TpDWkWNdU24ekzfquWiEsRxUtUbbo5iEeL4e6OfxO1e5qm5X17Czxwvk4HcQeCyLGMOkpJ5qeX1onFt9z27WkcrWPmunoLj3oFUwuNoZrMnG5rSfC7yOfQu4rS9LND48SfHL3phka0tL2sDtdl7tBzGw3+0VnRnEU47PxMoyypzzXg+8ulrmLBELS/wCVTP8APd9yP3I/yrZ/nO+5H7kufZ+q4T9/o/YzRFaX/Kxv+c77kfuXI0m0EbQ00tSKkyamp4DGG3u623WKXNQ2lhpyUIyu27LJ6vJcCmhFImVPuHH5rYdDsI/htG6SokLTIBLMHGzIAG7OoG08uQWZaJQCWvo2Ozb3jXEcdW7rdMrK9dq1c5kEEDSQ2dz3O592BZp5XcD7oUZydpOVapTwsXbezfRf6b8XYTEe0qNri2mpnStHtvcG63RoBy62PJfbgOnNPWOEM0XcSP8ACNZwdHITlq3sCCeBFt11k6YHMHgljctkYWUN1Kz53bfq7ei8LF50+0WbT/8AMphqxOIbLGNkTzsc3g0nK24kW25UhbDTyem4ReTN0tO8OJ3yNaRrddZt1j19qI1sytOdOVOo7yg7d+TGCZIiEOkOilRQDIpUQgCooogK8iEqK0ZCiEAoEB6KJAnQBRSooUZdml0pr4mCOOslaxgAY3WB1WjYASCbLiohDMoRmrSSfVJne+WOI/5sn4foj8sMR/zZfw/RcFEKWPP8vR/ZH/Fex3vlhiP+bL+H6LxrtIayojMNRUvkjdYljthINxsHEBcgJghVQpJ3UI/4r2GCKUIhD1Ohgdb6NU09RuiexzgNpYDmBztrLVNOcHNfRslp7SSRfORWsTJG4eINPMapHGwG9Y4rpodpsaRopqlrn07fUe3N8N9osfWbvtt22vkBGc3H4epKUK9H44cOa7v5viVC1rgtIIJBBFiCNoI3FfXhmHy1UrIYGFz3bBuaN5J3AcVrLpcIrfnXuo5HOGZe5jZLfWBs74pZcewzDmEQuhuf6dOGOe931i3IHm4hTePF7Um/6YUZb/J/6T+gcekZh2FPiBuWxCnjOxz5HNsXW4+s7yKx8LraTaQyYjJrv8ETLiKMG4YDtJO8nLPkuQqkfXs/DSoU3v8AxSd333mwpkgRQ+4cJkiKAdFKigGUSqICvJkiK2ZHRCVFQBRCAUQHookCdAFFBRCjBEJUQgGCIShFAOEQkTBQDBFKiEA10wSJggGRSooB1AlTIUITJAiFAOmSIhAMolUQFfRSorZkdFIEUA6ISoqAKIQCgQHoivMJ0AUUFEKMEUqIQDIpUQgHCKQJgoBgilCKAcIpEwQDIpUUA6iVMEKFMkCKgHUQUQFdCdRRbMhRCiiAIUUUUAyIUUQBRaoogGCiiiFCioogCEyiiAKIUUUAUwUUQBCKiiAIRCiiAZFRRChRaiooAqKKID//2Q==;" vertex="1" parent="1">
          <mxGeometry x="650" y="310" width="80" height="80" as="geometry" />
        </mxCell>
        <mxCell id="8tucULJYZbGx7OZ7GhKJ-5" style="edgeStyle=orthogonalEdgeStyle;rounded=0;orthogonalLoop=1;jettySize=auto;html=1;exitX=1;exitY=0.5;exitDx=0;exitDy=0;entryX=0;entryY=0.5;entryDx=0;entryDy=0;startArrow=none;startFill=0;" edge="1" parent="1" source="8tucULJYZbGx7OZ7GhKJ-6" target="8tucULJYZbGx7OZ7GhKJ-12">
          <mxGeometry relative="1" as="geometry" />
        </mxCell>
        <mxCell id="8tucULJYZbGx7OZ7GhKJ-6" value="" style="shape=image;verticalLabelPosition=bottom;labelBackgroundColor=default;verticalAlign=top;aspect=fixed;imageAspect=0;image=data:image/png,iVBORw0KGgoAAAANSUhEUgAAAJYAAACWCAMAAAAL34HQAAAAkFBMVEXMImT////LHWH9+frLAFrKIGD88fbLAFz+/PzJGV399PjbcJjMI2bxvtT99/rLFV/43unTO3jmlrTqo7/YWIv0yt3ebprlj7Hge6H42+nrqcTyxNjTVID87PTWR4DQPXTQMG/RMXfSKHLwtc/PHWrbY5L00d/YZI3hgqTlha3OAGTPTHj75fTVT4PjfqnacpSK7U7eAAAKIUlEQVR4nO1b63aqOhDGIJdoAA0gAgWpd1vtfv+3O5lJ8IoVFduus/h+7W0hTOY+k4mmtWjRokWLFi1atGjRokWLFs2DKfw2HccwjkF+mxoBQojneZZldSXEvyzxwy+SxoAoVrz1eZIOOiXMpcPHqwmDv/2GRIlBSD5OwqzXOYfei51oMSU/L0/iWdORk/XsC5oUXDPmufWj0mTEK1aJLr8PhNl6z1TQdfUbIB7vGNV+SJaEzkepCR+Hz+tm7CR83VfgfBZudVv9VY/9IaE/Q1Q3cMySI9lsvZoUjJE9GCs+//G0FKY9iKbdl4uSEbZwpOxsM45ycAfio8ffJYR6XncuNM9VxrkpXkyXkJ+fqY8lo3dy1XkKK/R2PJQsdZ3AM15GkxCVFzhSo0x/pVECynxFocXPlBTRQBpA9uW9SsOYRllkKk59dL0arxDvox/ruA9n9yKTZLTwUSj2bMHq7t2g71xuZRmQl2gYHTpIlclrEwWCp1ogzXIwfoVzpcES1cTJ71QTYSZS9jpvnC5CRjEs3Uvm9O61iTbaIl3rZuUoRLHAJEGPCnq34oJRBiHKf90kvwRVQ6Qqy+9nlYQwl1KOjdkjozl69sHoUaoEXfMZRtBxc+wi8wSWzEZPLCncywy3FjTlV4mXgA0KCT61jIhbQNe2KbpoH6jqbR6XIELwC/Xe8Ywm1IsOwTXYPntaK2iATuarCXMkUif8JmItXUD60XtGRyVEfF5D2hRP7/dXFSBrFOPz+Zcxz0Cx+s3oqTGH+Ohuuk+vxNELNhM1BO934JfNZ3lPA9CG5bAxZ6NxKI2i53ZJGKZYo4qIUYd/Fc/Q9yU41ef26a1MoVnOZelCoEXzrf+BTKui3BdBX7qbJ6giVoL6fpEgEzb2fZFNfJcH02Lj88X5hphhgVONd0+I0ZhD/pZe2jP5jG3bTazrjl8kf46r2xXvemuoa9d1aoFqMDIGs6kI+uQNy7IwQNd/xjL4Ly3G6NHDii1hDBpYD5doZAoLLKeXC5DCxxbEQNTyZ6UiwyJxOMNGTq8qjyFojPnjlSM6v6gqcVNpiqzlZZtNEUA8zxryWNa4Pqv4ON0JVmfBgzQJYgyrWKfvVdtidB6XbQZHtiEY9B8Y+1zx5f4vVqUfYBHPLfJo2UiIQak2vaLVdGyWX5dNG76OOE+c7aHnFe+qnblgv0ENYmj3WyPBjqhledeMjRRJ+X3Z4tJ7rq4ft+Fszq5wRPVbvauLX6WKrSInDMPUXxWkuiqQccnO9M4FXNT3cF75USHsYrX20zDl47c7KmGhOGyRmGrjvXB95d15Au6jz0/bp3Zvm645/NKv3I5YrO/IxW196+9qJwGMWtw8dBo7vdn8REfKhWiOXk2DZvMsDQXvBmGa8P5nIV3A3CifJyeL+0eL24Ovbs0cmhaJVBhdVwIKj6sLsptINhhdMMYZK1vzFrblhbcgE/B3M4ykDBp1h3xb1HahXNwuhV8zGxdZA/Z+spRz7sS4rzTfv0pHcZpL7llAfjxBp2UIuzUM6VsxwNsyvAiF8M1ob3Po73BxnychtgvdqBZddNTDFsiigDRhx5HXSZlEYNXvDCkkB94/YXnm20V088bi90z+TmGT5mb/Osctz1bg6Cb/Qqz0VvT2yYLxMRCP6mUYpl3ZfRhKRSHzEJZdIl30c9ux3fElWVxGQ4hDXoTc2Uh3bwxd8T9BpYwL1EqAyvR2C5MRzIeSQu1AaM4GzMovtztCKh2QI+qQzc/JMiwHdU7uY4fdrd5GSgoIdjkr2aNiWHC7MeFB7TvID7ZnTGHhWHh7OGPyFPdAjqRwIKM7rxcMS7ygi0TPA3RRxwVdQo5kDnEpPXR9GEHn59/McsgUzOuYA+JVYPyCTEb/AKtIWqcQK6bUqXWmscQaQFWiTfry+S8ZpQS/yAKS3RPeMOTCtQh3WPN9C28e+xLjQ4cUxeubLqBnloatMfBP4XnmZFidk+eVs80WhPTh3Y+j50Fn7M72/aYtIln5CaVd3L2wu5MII2JLJVnM6KL3P3/e7Mvns9PKYIdk3aIKyOp0dqdkZZIs276PrNPnS7IG52R1apAlhbggJ0KUQhltJeoJca2ez7ZbSZ2oKlCI+iNCJFMwtKRK5dknYrKpp/JMk89/DjEtFAtUqTwafnxT5eVz5qL0LKLcK8BBLEWWAgdgVIvc0kFo0kFc+i3lIPDEjObouLALKM38qBoSIXJQy0EAb+Cr+xqQMg50cEmj5kW9C3d65gxLdwo5tHCn6LZU25XAnnuRJt+ALWNHdXHbnRpeiMFH9t+F+9wA410VfGQDRwUfKMts99+V4IMh3JDBx1SdSWMoG4tdehx8Bh+3gw+jK/zyYD2BaLrCiK/zMrOhwdVQvY+3F6FaSFDKjVCOJ2z+G+yqgKNJQeWoVorKpJz02HGcpTz8nRWViY1/lNgcDWcgF/eJTeHHh8Y5RXUUzssRWVOa4ZbrJlzapnMKJz9OT6vSQJEDQhbYxdkMWTc7+zRwd3iZSQsoc0xQLJEV1KEKvvc1OKpqTN+6njSLurl4G4ukGb3AMp3x/ptKmqfG6fOKrjkU3LZa3M6ibu0WHCG5H7tYZ9nmrP9tibERJcZJlOllaYQlxteVimned1SYtE0/0O4p+omWj7kjaqb1SgipstxTBZmpH1UjCrIgW86ra2qh630O1V4Sre4pyJAueqPCvChfXZjNOClf/eqTbGHsVNXGD3ToiWaIYp/UKvZDx4cJjUgU+/Gh2Bd+obrYn0+JWPnRERxmeLm/LGq0Rgp06FCSFJPT1kglu/xwPYTY8FhzhEzhA1caSY4U1FI2kg4bB2/xzpUlJ1UHAyQHpew/3D39pu3Gyrbb/ErbLUERu1HVshjsH2+73WxSOoFGteomJRthDVjZpASHmj3epPy+pav3kuqumnxCuE298ngHW7p29HhL9/sGOO9/f5xOCx6Ho4ufVQP8qTPTb48LrvS9Sog6ejK5cAKMBp1njwted7iSP+izylXkUVTdIF8DER5FPb0MHtxFjR3cBY0c3GGW3KmbQN4E9fCY8xkzRDBCkevLaSN0yUPhtAGdUGHGb+I4Xh6hu42wnuYQlEU5+vzAwQ6D+NMiVKvheIY5fnaP5XjG7fKrFpoaZvGaHWZpdPQnWzTmAhsblLJh4K0pqiD5fsdE5m+NlWmqxn9yCM8GP9rs0CJRw4EPjSwaZBHLTd1bf9UgbHEY8LyLYTDgmSkJNjI/dIqHx2F3rxyHRbVVw8MBqytJGB6W90e2Lxoe1g6j1tl9o9ayGnnV7YeTwfSk/mB6B+dgX3n14dEx/sULx/gB+0sP0KuBKzPdv3DpQfujV0QkYbUv1Lg/dqFGu+v60eTnrh8Bbl7W0rMfv6wlCcOrbX5YQRrINQp+42qb9u1FwLffuwioQEg5mvFHrk0eQMhfu2S6x1+8ktuiRYsWLVq0aNGiRYsWLf43+A9bY78j3c8dyAAAAABJRU5ErkJggg==;" vertex="1" parent="1">
          <mxGeometry x="800" y="385" width="80" height="80" as="geometry" />
        </mxCell>
        <mxCell id="8tucULJYZbGx7OZ7GhKJ-7" style="edgeStyle=orthogonalEdgeStyle;rounded=0;orthogonalLoop=1;jettySize=auto;html=1;exitX=1;exitY=0.5;exitDx=0;exitDy=0;entryX=0;entryY=0.5;entryDx=0;entryDy=0;" edge="1" parent="1" source="8tucULJYZbGx7OZ7GhKJ-8" target="8tucULJYZbGx7OZ7GhKJ-2">
          <mxGeometry relative="1" as="geometry" />
        </mxCell>
        <mxCell id="8tucULJYZbGx7OZ7GhKJ-8" value="" style="shape=image;verticalLabelPosition=bottom;labelBackgroundColor=default;verticalAlign=top;aspect=fixed;imageAspect=0;image=data:image/jpeg,/9j/4AAQSkZJRgABAQAAAQABAAD/2wCEAAoGBw4REQ8REBMSDg4OFhEPDg4SGBEUGA4ZGhYaGhYcGRgaHysiGhwrHRYWIzcjKSwuMT4xGiE3PDcvOyswMS4BCwsLDw4PHBERHTAiHyQ7OzsxMC4yMDAwMDAwLjEwLjAwLjAwLjAuLjAwLjAwMC4wMDAwLjAwMDAwMDAwMDAuMP/AABEIAOEA4QMBIgACEQEDEQH/xAAbAAACAwEBAQAAAAAAAAAAAAAAAQIFBgcEA//EADsQAAIBAgIGBwcCBgIDAAAAAAABAgMEBxEFBhIhc7ITMTM0QVHCImFxcoGRwaGxFDJCUoKSQ+FTYtH/xAAaAQEBAAMBAQAAAAAAAAAAAAAAAgEDBAUG/8QAMhEAAgECAQkHBAIDAAAAAAAAAAECAxEEEiExNEFRcbHwBRMyQoHB0SIzYaGR8RQj4f/aAAwDAQACEQMRAD8AqRiA+uOkkMiMAYxAASGRGDJIBDAGMiMAkAhmQBIiAMkhiAAYxAASGRGASAQwBkiAwCQxAAAAABVDEBgkYxAASGRGAMYgAJDIjBkkAhgDGRGASAQzIAkRAGSQxAAMYgAJDIjAJAIYAyRAYBIAAAqgIkjBIDEAAxiAAkMiNADHmaLQuo95X2ZTSt6T351M9pr3Q6/vkbrQ2qdnbZOMOkqeNSp7T+i6o/RHHXx1Klmvd7l86OZLmkckQy+xAtqdK9mqcVCMoQm1Hctp55vL6FAdNOanBTW0pMkAhlmRjIjAJAIstWKEKl3bQqJTjKa2ovqlkm9/2MSlkxb3BuxXpjOtaU1ds7iOU6cVJblUh7Ml9V1/BmM0zqLc0s5UGrimt+S3VF/j1P6fY46HaFKpmf0v8/P9EKomZgYSi02mnGUd0ovc0/evAR3GwYxAASGRGASAQwBgIACqGRGYJJgRJAASim2kt7e5Jb2yw1Z0O7y4jR29hNSnOeWbSj15Lz3nTtH6E0fo+HSZU4OK9q4rOO1/s+r4I5MRi4UXk2be5dcrkymkYjQeol3WylVX8NSfjPfOS90PD65G30Zq9YWMOkyinDfK4rOOa+r3R+mRR6cxFpxzhaQ6WXV0s81FfCPXL65fUxOk9LXFxLarVJVH1qLfsw+WPUjm7rE4n7jyI7tvXF+hNpS0m603iHShnG0j00+rpJpqC+C3OX6EMPdL3NzXuZVqjnlCOzHqjH2n1RW5HPDbYUdrdcOHMy6+GpUsPLJWe2nbp60GXFKLPFiX36XCpeozJpsS+/S4VL1GYOnC/YhwRUdCJDIjOgokAhgDLfU/v1r865WU5b6nd+tfn9LNdX7cuD5Mw9DNpiDpCtQp206M5Ql0jTa8Vsvc11NHg0LiAt0buOT3LpaaeX+Uev7fY++KfY2/ElyM5+efhMNSq4dZa359unf83IjFOOc6zcWNhf09r2KqfVVg8pR+vWvgzI6a1EuKWcrd/wARBf0vKM1+JfT7Gbsr2tRlt0qk6c/OLaz+K6mvczYaFxBe6F1DPw6an6oflfYz3GJw/wBp5Udz65P0GTKOjOYyrTlCTjJOMo7pRkmmvimI6vVtbC/htZU666lOOW3T92a3x+DMBrZoJWdSMYzc4VE5wzWUo5PJp+fxN+HxsaryGsmW7r3KjNN2KcYgO0skMiMAYAABVAIZBIyRAZQNVhj36PCq+ksMWm+ktV4bE3l4Z7SK7DDv64VX0lhi321rw58yPNlry4fJHnMSMQHpFjNthN2t1w4czMSbbCbtbrhw5mcuN1efAmfhPFiZ358Kl6jMnSdatS6t5cOtGrCEXCENmUZN7s/FP3nObilsTnBvNwlKDfnk2vwYwdWEqUYxd2kriDurEBmq0VqFVr0aVaNaEI1oqai4ybjn78yl1g0PK0rOjKam1GM9qKaW/PwfwNsMRTnLJi7v4Mppux4Bl5qzqtUvYVJwqxpqnJQalFvPdn4Mes2q1SyhTnOrGopycEoxay3Z+LHf0svu7/VuM5SvYoy21O79a/Ov2Z8NX9ESu6qoxmoNxlPakm1uy8F8TYaE1Eq0K9KtKtCapy2nFRkm9zXXn7zXiMRThGUZOztzRiUlax9MU+xt+JLkZz46Din2NvxJcjOekdn6uvXmYp+EkAhncWaXDhv+M9zp1M159R7cUO1tvknzI8OHHfVw6n4Pdij2tt8k+ZHnS1+PD5Nb8aMeMQHom0YxAASAQAFUMiMgkkAhgGqww7+uFV9J78XO1teHPmRX4X9/XCq+kscXO2teHPmR58tfjwfJkPxmJAiSPSLA2+E3a3XDhzMxBtsJe1uuHDmZy43V58CZ+E9uuett5a3To0XTVNQhP2o7Tzeee/P3GBq1XOUpv+ablOXxbzf7mkxM78+FT9Rlxg6cY0oySs2lcRSsaHR+ut7QpU6VN0timlCGcM3kvN5lbpbSlW6q9LV2XNqMPZWysl1bvqeEZujRpxllJJPeVZFvoPWS5tIzhRcFGbU5bUdrfll5j01rJc3cYQrODjBuUdmOzvyy8zzWehbqtSlVo0pVIQexJx3vPLPq631njlFptNOMluaaaa+KJVOk55SSyv2Mx7ND6Uq21XpaOyppOPtLNZPr3fQ1Or2uV7XuaFKfR7FSWzLKGTyyb3PP3GKLfU3v1p8/4ZNejTlGUpJN2fJkySsa3FTsbfiS5Gc9OhYq9hb8SXIznpq7P1devMU/CMZEZ2lmmw577Hh1fwe7FHtbb5J8yPBhv31cOr+D3YpdrbfJPmR50teXD5Nb8aMcSIgekbSQxAAMAAAqgEMggYyIwZNVhd39cKr6Sxxd7a14c+ZFdhd35cKr6Swxe7W14c+ZHnS16PD2Zr85iBkRnpmwmbbCTtbnhw5mYc3GEfbXXDhzM5cdq8+tqJn4Tw4m9+lwqXqM9ZWlWtONOlBznPdGC8fwl72abEG3lV0lClHJSrRt6UW+pOUnFZ/c2ugNAW9jSbj7U8m6tdr2pZb3kl1R9y/U5/8AKjQw8NrazL5MZVooxemdRKlC2VWM+lqwzlXgupR84+Ly35/9GUNJrdrjUu26VLOnarw6pVsvGXkv/X7ldqpo7+Iu6FLrhtKpU+WL2pffLL6nTQdWFNyr6dPBbutGgyrpZzper1tGysKe3u6OnKvVfvec5fvl9EY7QWqtW/jWuq03S6ZylSaye3JvNtp/0LevB/bfocS9I9FaKlHdK4kqfwival+0V/kYzVbWitZSy31LeTzqUm+r3w8n+5w4aFWVKdWHjk+Tvm4smKdm0eHSui61tUdOtHYks9l9amvOL8UezUzv1p8/pZ0m7srXSNvFyW1CpHbpVMsp0211rPqZgtEaOlbaWo0JSU3TmltLdtJw2k8vDdJG+ni1WpzjJWkk7r9f2ZyrpmixW7C34kuRnPDoWK3YW3ElyM54X2fq69eZmn4SQCGdpZpsOO/Lh1fwe7FPtbb5J8yPBhv31cOr+D34p9rbfJPmR50teXD5NfnRjgEM9I2ASIgDJIAAAqgEMggYCGAavC3v8eFV9JYYvdra8OfMivwt7/HhVfSe/F/trX5J8yPOlr0eHsyPOYgBDPRNgzcYR9tdcOHMzDG5wi7a6+SHMzmx2rz62omeg8WJc3G/2otxlGnRlGS3OLTbTXvNBqbrtGvs0LpqNfqhV3KNXyT8pfo/0M7if398Kl6jMGuGHhXw0FLdme1ZjCinFHRNe9UaThUuqLjRnBbdam3swqebXlL3dT+J8sKNH9vcSXlQp80/QvozJXun7utRp0KlRzp03nFP+aXltP8Aqy8PidP0JQjY6Pg6ns9FS6at82W1Jffcc+I7yjh+7m7uTsuHVv5sYldRsYjEjSXSXjpp+zbRVNe+TSlL90voz26h6p060Y3NdxqU02qdFPPNr/yeW/8Ap+/kY+5uJVZzqS/nnKU5fFvM9midO3Nqqioz2FVWU92eT/uXlLwzO2dGcaCp03Zq2fnn2FWeTZHQ9bdbKVpF0qWU7nLJRWWzR3bnL3+Uf2MTqtczqaRt51JOU51Nqcn1yeyyklJttt5uTbk3vbb3tv3ltqb3+04npkRDDQoUZKOmzu/T9IZKima/FbsLbiS5Gc7Oh4r9hbcWXIznY7P1devMU/CSGRGdpZp8Nu+rh1fwe7FTtbb5J8yPBht31cOr+D34qdrbfJPmR50teXD5NfnRjRkRnomwkAhmQAAAMlWBEkQQMBDANVhZ39cKr6Sxxg7a1+SfMiuws7+uFV9JY4wdrafJU5kedLXo8PZkeYwwyIz0TYSNzhF2118kOZmFNzhD2t1w4czOXG6vPraiZ6Dw4n9/fCpeozBtsQNAXte8dSjRnUh0dOO3HZyzWea3v3mJnBxbjJZSi3GS8mnk0XhJRdGKTvZCDzDjJpprc1k0/Iu7rW+9q0J29SSnCpspzaSnknnlmtz6vI81rq3fVYRqU6FScJrahNbOUl59Z47+xq0J9HWg6c8lLYllnk+p7i/9U2tDa4XRnMz4jPZo3Q11cKUqFKVWMHsycdnc8s8t7HpHQ11bqMq1KVKM3sxctne8s8tzL7yN8m6vuvn/AIM3R4i41M7/AGvE9MiusLGtWn0dKDqVMnLYjlnkuvrNHqtq5fUry2qVKE4QhPOU3s5RWy/ea69SKhJNpOz2rcYloL3FjsLbiy5Gc7OiYsdhbcWXIznRp7P1devMxT8IxiA7SjT4a99XDq/g9+Kva23yT5keDDXvy4dX8HvxV7W2+SfMjzpa8uHyR5zGgIZ6JsGMiMAkAgMgqgEMgkkBEkAarCzv64VX0ljjB21pw58yK7Cvv64VX0ljjD21pw6nMjzpa9Hh7MjzGGAQz0Sxm6wg7W64cOZmEN1hB2t18kOZnLjdXn1tRieg0WsWu9KzrOjOlUqSUYz2ouCW/PzfuOWXdZTqVJrcpznNJ+G1Jv8AJosUe/vhUvUZcxgqMIU1KKztK5iCzXN5oHEChQt6NGVKrOVKCg5Jwyll5ZszmtmmYXlw60IyhFwhDZlk3uz8viUwzbTw1OE3OKzv87ylFLOanUzWylY060J051XUmpJwcVllFLxHrnrZSvqdGEKc6bpzc25uLz9lrwMsMf41PvO9t9QyVe5b6p6ZhZ3CrTjKcVCcNmOSe/Lz+ButE6/ULitSoxo1Yyqy2VJuGS3N78n7jl5b6ld/tOJ+JGvE4WnUTnJZ0t+5ZjEorSbDFnsLbiy5Gc6Oi4s9hbcWXIznJjs/V168xT8JIZEZ2lGow078uHV9J78Vu1tvknzI8GGnfo8Kr6T3Yr9ra/JPmR5steXD5I85jBkRnpGwkAhgDAQAFUMiMkkkAhgGswr7+uFV9JdYr6NuKs7epSpTqU4QnGcoJy2W5JrNLf4GJ0BpipZ1oV6ajKUU4yhLPKcX1rd1fE6JovEyyqZKvGdtLxeTqR+8Vn+h52IhVhXVaEcpJdfnaQ073Ry1DO017HRekI7WVG4z/wCSDW0v8o70ZzSmGFN5u2rSg+tU6qUl8FJJNL45lw7QpPNO8X+evYKaOdG6wf7a6+SHMzP6U1P0hb5uVGU4L/kpZVIv7e0vqkaDCDtrvzUIJry9qReLlGeHm4u6/wCozJ/SeDFLv8uFS9RljUYo9/fCpeoyxswv2YcEZhoJAIZvKGMiMoEy31L7/acT0yKYuNS+/wBpxPTI11vty4PkzEtDNji12FtxZcjOcnRcWuwtuLLkZjdGatX1fLo6M3F/8ksoRXvzlln9MzkwMlHDpydln05tpMPCVg8zeaMw0e53NbLzhRS5pL8GjtdC6Nso7exSp7O/parTf+0vwKnaNKOaN5P8dewdRGQw10dXVyqzpzjR6Oa6RpqLbyyyb6/offFftbXhz5kXWksQLGnmqW3cSW72Fsx/2lln9MzCay6fqXtWNScYwjBOFOEc3km83m31v7GujGtUxCrTjkq1gk3K7KsYgPTLJDIjBkYCAAqhiAkgkMiMGSQCGAfSjXnBqUJShJdUoNxa+q3mk0Tr9pCjkpSVzBeFXfL/AHW/75mXJEzpwmrSVzDV9J1LRWJVpUyVeE7afi/54/dJP9DSaNuLKs5VbeVGpKSUZ1Kew5NLelJrf49T8zhJOlVlB7UJShL+6LcX90cFTs2m88G4/tfP7JcFsNPifOLv5ZNPZp0oyy35Pe8n796MuEpNttttve297f1A7qUMiChuKSsMZEZZRIBDAGXGps1G+tHJqK6Rb3uW9NL9WUw0JRyouO/3DR3PSE7aCjO4dKMab2oTq7C2G92acup+G4oNKYg2NLNUlK5murY9mP8As/D4JnL6tac8nOUptbk5Nyy+GYjzqfZkF423+l8kKmtpqNJ4g3tXNU9i2i/7Pal/tL/4jO3F1VqvaqznUl/dOUpP7tnxA76dKFPNBJdb9JaSWgYxAbASGRGAMYgAGAAAVYCGSSAxAASGRGDJIBDAJARJADAQwBgIYAxkRgySAQwBjIjKBMCJIABiAAYxAASGRGAMBAAVRIiBBJMBDMgBiAAkMiMGSQCGASAiSAGAhgDAQwBjIjBkkAhgDGRGUCYESQADEAAxiAAYCAArAACCQJABkDBAAA0AADIxoAAGhoQAEgAABghgAAwAGUMYAAAwAygMAAyBoaGAAIaEAAAAAH//2Q==;" vertex="1" parent="1">
          <mxGeometry x="80" y="385" width="80" height="80" as="geometry" />
        </mxCell>
        <mxCell id="8tucULJYZbGx7OZ7GhKJ-9" style="edgeStyle=orthogonalEdgeStyle;rounded=0;orthogonalLoop=1;jettySize=auto;html=1;exitX=0;exitY=0.5;exitDx=0;exitDy=0;entryX=0;entryY=0.5;entryDx=0;entryDy=0;" edge="1" parent="1" source="8tucULJYZbGx7OZ7GhKJ-11" target="8tucULJYZbGx7OZ7GhKJ-11">
          <mxGeometry relative="1" as="geometry" />
        </mxCell>
        <mxCell id="8tucULJYZbGx7OZ7GhKJ-10" style="edgeStyle=orthogonalEdgeStyle;rounded=0;orthogonalLoop=1;jettySize=auto;html=1;exitX=1;exitY=0.5;exitDx=0;exitDy=0;entryX=0;entryY=0.5;entryDx=0;entryDy=0;startArrow=none;startFill=0;" edge="1" parent="1" source="8tucULJYZbGx7OZ7GhKJ-11" target="8tucULJYZbGx7OZ7GhKJ-6">
          <mxGeometry relative="1" as="geometry" />
        </mxCell>
        <mxCell id="8tucULJYZbGx7OZ7GhKJ-11" value="" style="shape=image;verticalLabelPosition=bottom;labelBackgroundColor=default;verticalAlign=top;aspect=fixed;imageAspect=0;image=data:image/png,iVBORw0KGgoAAAANSUhEUgAABLAAAASwCAMAAADc/0P9AAAABGdBTUEAALGPC/xhBQAAACBjSFJNAAB6JgAAgIQAAPoAAACA6AAAdTAAAOpgAAA6mAAAF3CculE8AAAC61BMVEXYZhPZaxvjklfuu5b118H66t/88uz89e/89O766+D228fvwZ/lmmTbcCPcdizuvJf99fD////++vjxx6jfgDvZaBfrsYf9+fb//fzabh/cdCn23crfgT3dejLhikvbcyb56d3YZxT00rr56d7abR7no3DuvJj78en+/PrefDXpp3fwxqf449P+/fvcdy7vwqHmnWj++/ntt5DuvprcdSryzrPtuZPzz7X9+PXstIv99vHacCLrsIX89O3qrH777uTZahnnonDmnmn559rYZxXlmWLnoG3gh0b//v7klVvlmmP34dHfg0DjkFT007v23MnhiEfhi0z12MP01r/ijlHhiUnz0bjghUL34M/yzLDll1///v3fgDz45NXxyKrmnGbYaBb56Nvww6LdeTDZaRjuvpvopXTcdiv77+btupXpqXvabBz88uvstY3qroL99/L88+zss4nabyHqrYDsto/78erbcSX9+PTpqHn77uX++vfopHLvwJ767ePnn2vwxKTdezPxyaz45dfefznkll344tLfgz/jkVbijE7hiUr22sfghUP3387449TefTb67OLbcyfZaxr78OjbcSTabR355tnefjj44tPfgj723cvghkX22sbghkTklFr34NDyyq7efTf45dbefDTvwaDdeC/77+ftuJLqq33bcibss4rabiDrr4T99/PcdCjopnbuvZncdy3noW/lmGHyy67z0Lb3383jj1P01Lz12cXhiEj12cT01b7ij1L23Mjz0Lfjk1jghEHyy6/lmGDxx6n56NzwwqLnoW767OHopnXtuZTpqnzstYzrr4PqrH/pp3joo3HmnmrwxaXxyq3efzrklVzjkVX118L11sDijU/z0bnyzbLuu5XqrYHrsonrsojsto7opHPvv5znoGzwxKPhi0vmm2X01L3klFnkl17yzbHijlDzzrTwxabtuJHrsIbpqn3mnWf33szlm2TpqXrijE3deTH55tjvv53xyKsztHjNAAAAAWJLR0QR4rU9ugAAAAd0SU1FB+ULCw4rBFEPgvsAAERoSURBVHja7d15gFfT/8fxKaJF+LRoiuSjqKhIRVo0GJlE2YpMNDKylDZEiBSyMy0K0SJKhEJZ0qLsIZKd7JIlO3/+vr6/r+8XQ6/b3M/nfM773Ofj75pz3ue8z3vu3HvuPXl5AAAAAAAAAAAAAAAAAAAAAAAAAAAAAAAAAAAAAAAAAAAAAAAAAAAAAAAAAAAAAAAAAAAAAAAAAAAAAAAAAAAAAAAAAAAAAAAAAAAAAAAAAAAAAAAAAAAAAAAAAAAAAAAAAAAAAAAAAAAAAAAAAAAAAAAAAAAAAAAAAAAAAAAAAAAAAAAAAAAAAAAAAAAAAAAAAAAAAAAAAAAAAAAAAAAAAAAAAAAAAAAAAAAAAAAAAAAAAAAAAAAAAAAAAAAAAAAAAAAAAAAAAAAAAAAAAAAAAAAAAAAAAAAAAAAAAAAAAAAAAAAAAAAAAAAAAAAAAAAAAAAAAAAAAAAAAAAAAAAAAAAAAAAAAAAAAAAAAAAAAAAAAAAAAAAAAAAAAAAAAAAAAAAAAAAAAAAAAAAAAAAAAAAAAAAAAAAAAAAAAAAAAAAAAAAAAAAAAAAAAAAAAAAAAAAAAAAAAAAAAAAAAAAAAACDKlXeYssqW22dPFWrVa+xTU0SALBj2+22TyVZrdp1SALAhro71EslXX6N+iQCYECDHVNIparsRCoA3mtYjWL1b9vvTDIAnmu0C6Xq94rFjSzAb+ldKVT/1bgJCQH4bDfK1B/sTkIAHmvSlCr1B82akxKAv/agSP3JnqQE4K8W1Kg/admQnAB81YoS9Rd7kRSAr/amQv1F61ZkBeCpfahQf9WGrAA8tScFqtx70G1JC8BP7ShQ5exLWgB+2o/6VE77RuQFQMGyYn/yAqBgWdGhI4kBULCs6ERiABQsKzrz8VGAgmXGAWQGQMGyomklUgOgYFmxB6kBULCs6FJAbgAULCsOJDcACpYV1eqSHAAFy4qDSA6AgmXFwYVkB0DBsuIQsgOgYFnRIk16AKYKVteaoTq0SFasbqQHYKpgHZbka8vuXGIBFCw/HK4vsY4gPwAKlh96yILVk/wAKFh+OFLfdz+KBAEoWH44WhasY0gQgILlh2P1JVYvMgSgYPmhuixYvckQgILlh8r6Eus4UgSgYPnheFmw+pAiAAXLDyfIglXclxwBKFheSJ8oK9ZJ5AhAwfJDP1mw8puTJAAFywslJ8uK1Z8kAShYfugqC1azU8gSgILlhdJqsmKdSpYAFCw/DJAFq9ZppAlAwfJCwemyYp1BmgAULD+cKQtW+0bkCUDB8sLAQbJinUWeABQsPwyWBWtITRIFoGB5oclQWbF2IFEACpYfhsmCVbU+mQJQsLwwfHtZsc4mUwAKlh/OkQXr3IGkCkDB8sKI82TFOp9UAShYfthCFqyRBeQKQMHyQoMLZMW6kFwBKFh+uEgWrFGlJAtAwfJCq9ayYl1MsgAULD9cIgtW4xKyBaBgeWF0S1mxtiFbAAqWHy6VBWtMIekCULC8MLZYVqzLSBeAguWHdrJgXZ4mXwAKlheuKJIVaxz5AlCw/LCrLFg7ki8ABcsPh8qClbqShAEoWH7YUhasLUkYgILlhyv1JdZVZAxAwfLD1bJg7UrGABQsP4zTl1jXkDIABcsP18qC1Y6UAShYfrhMFqyincgZgILlhfR1smJdSs4AFCw/bCMLVv71JA1AwfJC4RhZsS4haQAKlh8ulgWrWUOyBqBgeaGksaxYF5E1AAXLDxfKgtV6W9IGoGB5ofQGWbG2IG0ACpYfzpcFq96N5A1AwfJC2XhZsc4hbwAKlh/OlgVryAQSB6BgeWHiUFmxhpE4AAXLDzvIgtVhOJkDULC8MHx7WbEGkzkABcsPZ8mCNbQJqQNQsLww4jxZsc4kdQAKlh/OkAWraSVyB6BgeaHBBbJiDSB3AAqWH06VBWtUAckDULC80Kq1rFhdSR6AguWH/rJgValL9gAULC80bCkrVj+yB6Bg+eEkWbAmFZI+AAXLCzcVy4p1AukDULD80EcWrMlp8gegYHlhSpGsWJXJH4CC5YfesmDdTP4AFCw/3CILVupYEgigYPnhGFmwjiaBAAqWH3rpS6ydySCAguWHW2XB6kEGARQsPxyhL7GmkkIABcsPPWXB2o8UAihYfrhNFqyiKeQQQMHyw+2yYk0jhwAKlh8OkQUrfzpJBFCwvFA4Q1asPUkigILlh4P0JdZMsgigYHmhZBdZse4giwAKlh8OlAWr2SzSCKBgeaH0BlmxdieNAAqWH/aQBatWW0YJoGB5oexOWbHuYpQACpYfZsuC1X4OowRQsLwwcStZse5mlAAKlh86yYLVoSOjBFCwvDB3a1mx7mGUAAqWH/aXBatzE0YJoGB5YcK9smLNZpQACpYf9pUFq2klRgmgYHlhXj1Zse5jlAAKlh/ulwWrSwGjBFCwvPBAa1mx5jNKAAXLD3vJglWtLqMEULC80LClrFh7M0oABcsPe8qCNamQUQIoWF6YmS8r1gJGCaBg+eFBWbBapBklgILlhTrFsmLdxigBFCw/PCQL1sMMEkDB8sPhRbJiLWSUAAqWHxbJgvUIgwRQsPzwqCxYqaMYJYCC5YfHZMF6nEECKFh+WKwvsXoxSgAFyw9PyIK1hEECKFh+WCoLVtEyRgmgYPnheFmxljNIAAXLD0/KglXcl1ECKFheSM+QFWsFowRQsPzQTxas/OaMEkDB8kLJSlmxnmKUAAqWH56WBavZKYwSQMHyQukzsmKdyigBFCw/PCsLVq3TGCWAguWFgtNlxXqOUQIoWH54Xhas9o0YJYCC5YWBg2TFeoFRAihYflglC9aQmowSQMHywtytZcXagVECKFh+GCYLVtX6jBJAwfLC8A6yYr3IKAEULD/sIwvWuZUYJYCC5YU558mK9RKjBFCw/LCdLFgjCxglgILlhba1ZMV6mVECKFh+qCELVrW6jBJAwfLCrNayYq1mlAAKlh9ekQVrlxJGCaBgeWF0S1mxGDyAguWJV2XBGlPIKAEULC+sKZYV6zVGCaBg+aGdLFjd04wSQMHywhVFsmKtZZQACpYfesiCtSODBFCw/HCkLFipKxklgILlh9dlwXqDQQIoWH54U19iXcUoARQsP1SXBestBgmgYPmhsr7EuoZRAlwVrBcWu3PkmgJzw3e8LFhvk2OAq4LlVssZZ0y1NXyXyZiK65BkQJAF6zcPL7Y0fOkTZUCXkmRAsAUrleozwdD4bSPDyW9OlgHhFqzUqDV2xq/kZBnOJWQZEHDBSm09xc4AXiyjaXYKaQYEXLBSp59mZgDrVpPRXESaASEXrNQbdr59d6EMpvW25BkQcsFKXWxmBEtHyWDeIc+AoAvWyDIzQ3i+DKZ9IxINCLlgpQaYGcKy8TKYc0g0IOiCNarAzBi+K4MZUpNMA0IuWKmnzYzhxKEymPfINCDoglXFzlHv78tgqtYn1YCQC1aqn5lBHL69DOZdUg0IumBNsrMXa50MZmgTcg2I7W1/C1bqSTOjOKe9DOZMcg2I7RWPC9ZkO+eQviODGV9GsgFx3e1xwUotNTOMDS6QwXxAsgFxLfC5YN1sZxw/lME8U0q2AXHvvhT7XLHsfH20VWsZzEdkGxDXrT4XrEfsjOPHMpiVJWQbEFM/nwtW6hMz4zi6pQzmU7INiKn0ZJ8L1md2BvIkGcyMNOkGxPS515dYdo79WqPvBq4n24C4+vtcsJbYGccvZDDducQC4iq72uOCVbTMzDhOKZLRVCbbgLhqPuFxxVpuZxzfksH0JNmA2CrV9rdgFd9kZhgP1dFsINmA+J68wduKtcLOKB4jgzmaVAMycSPrwsmeFqyWo80M4lE6mqtINSAjGu52au9HbndNf/uuv50h1I8vepBngGEHyjVu6Kj3tSFtLANQTqm+e9bGTjQ9ZTBfMuWAYXvINV7rNDPBdNMby3ZiygG7yu6Ui/w5M8Gku8tgXmXKAcNmyzVu6Kj3w2Qw+dOZcsCuiVvJRf6CmWAKx8hgvmLKAcM6hXTU+2r91LMhUw7YNXdruch3MBNMyS4ymBpMOWCYPrrH0FHvu8lgWm/LlAN2TbhXLvIXzQQTYWPZdkw5YNhdco2fO9BMMC/pjWVtmXLArnn15CI/30wwETaWfc2UA4btLtf4yAIzwRygN5bNYcoBu9rWkov8ZTPBRNhYNowpBwy7Q67xanXNBPONDKZDR6YcsGuWPur9YjPBzNUf+VrFlAOGfSXXeOMSM8G8IIPp3IQpB+yamS8X+TZmghmhN5ZtZMoBw6bJNT6m0Eww+8pgmlZiygG7Ihz1fpmZYOZdIIN5likHDPtSrvHL7Rz13kYG06WAKQfsOlwf9T7OTDAP6Kee85lywLAeco3vaCeYp2QwVeoy5YBdR+pDst40E0zDljKYb5lywLDX5Rrf0k4wtWUwkwqZcsCuDSEd9X6Tfur5JFMOGFY9pKPel8tgJqeZcsCuyvoS6xozwdTRl1ifM+WAYdfKNd7OTjBLZDDfMeOAYetDOup9md5YtpgpB+xKnxjSUe+fyWAeY8oBw74P6aj3R/UtuU+YcsCukpPlGn/FTjSPyGA+Y8oBwz4K6aj3xfoSaypTDthVWi2ko96fkME8xJQDhl0Y0lHvn+unnsuYcsDwJdaokI56v10Gs5wpBwz7IaSj3hfIYIrrMOWAXWXjAzrqPT1DBlObKQcMOzuko96/1RvLmjPlgF0ThwZ01HvJShnMXkw5YNj7IR31Pl9vLDuFKQfsGq6Per/HTDClz8hg2jDlgGHrQjrq/T791PM0phywa8R5AR31XnC6DGZfphww7IyQjnrfqJ96NmLKAbsa6KPe7zMTzMBBMpj9mXLAsFNDOur9npCeegIop1VIR73P3VoG8w1TDhjWP6Sj3u/WTz3rM+WAXRGOet/bTDAT7pXBHMCUA4atCOmo969lMOdWYsoBuyIc9b7ATDBz2stg9mDKAcP6yDXews5R77vLYEYWMOWAXVP0OaS3mQmmbS0ZzG5MOWCYPur9YTvB1JDBVKvLlAN2RTjqfaGZYGbpjWUHMeWAYY/LNd7TTjBfyWAOLmTKAbt66XNIjzITzMx8GcxhTDlgmD7q/XE7wUwL6akngHIW6kusXmaCWaM3lnVjygHDeso13ttOMF/KYLpziQUYpo96Tx1nJpjD9VPPI5hywDB91HsfO8H0COmpJ4ByIhz13tdMMEfq68UfmXLArghHvZ9kJ5qjZTDHMOWAYUEd9b4hpKeeAMqJcNR7fzvRVA/pqSeAcoI66r1ySE89AZQT4aj3D+1Ec7wM5gumHDDsWbnGW9s56n29DKaoL1MO2BXhqPczzASTPjGkp54Ayolw1PuNZoL5NKSnngDKiXDU+zozwZScLIP5mCkHDFsl1/iQmmaC6aqfev7ElAN2RTjq/X0zwZRWC+mpJ4Byhsk1XtXOUe8fhPTUE0A5HTvIRf6umWCCeuoJoDx91PuggWaCOTOkp54AyplznlzkP5gJpmx8QE89AZS3nVzj48vMBDM4pKeeAMppe4Fc5B+YCabJ0ICeegIo7yK5xkcVmAnmvZCeegIoJ8JR7x+ZCWb49jKYs5lywLBX5BpvXNdMMOfIYM4dyJQDdo1uKRf5p2aCGRHSU08A5V0q1/jPhWaC2SKkp54Ayhmrj3pfbyaYBvqp54VMOWBYO7nGL7dz1Psv+qlnKVMO2HWFPuq9splgWumnnhcz5YBhu8o1frOdYC7RTz1LmHLArkP1IVkbzAQT4ann90w5YNiWco0fbSeYX0N66gmgnCv1JdbOZoKJ8NTzMqYcMOxqucZ72Anm7ZCeegIoZ5y+xJpqJpignnoCKO9aucb3sxNMUE89AZTzmj7qfYqZYCI89XyTKQfsSl8n1/g0O9G8IYPZkikHDNtGH/U+3UwwQT31BFBO4Ri5xve0E01QTz0BlLNaX2LNNBNMhKee1zDlgF0lu8g1foedaPRTz3ZMOWDYy3KNN5tlJpgITz13YsoBZ9LH3fPF5Go3nLjf3b1KMvIDS2+Qi/x+O6Ojn3peSg4BjpSdv/J/S69Lp7mZ+JkvyTVeq62ZAQrqqSdg22uj/rz4tuqaiSJ4p1zkd5kZoQhPPV8hjwAH6v7N6advT4z/c1+Ua7z9HDODpJ96NmtIKgHZ/3Owx98tv4drxv7BE7eSi3x/M6MU4annReQSkPU/dv7h8ylXxz+/6hu5xjt0NDNO+qln623JJiDLVv3T+vsw9o+eq49672RmnCI89dyObAKyq06zf9xZdGzsH/6CXOOd65sZqfNlMPVuJJ+ArNrEx55axP5W+Yh75SI/wMxIRXjquQ/5BGTTLZtafwti//jn5Bo/t5KZsdJPPc+bQ0YBWfTQptZfi9jfKp+nj3rfw8xYRXjqOYyMArJHHAlzW+wG2sg13qXAzGjtENJTT8CeFZtefw/HbuABfdT7bmZGa7h+6rmKnAKypVUzsf4Wxm5iL7nGq9U1M15n6aeeTcgqIEtOVeuvZ+wmGuqj3g8yM14Rnno+T1YB2XFjPbn+jordSG3ZxsF2jnrXTz2bViKvgKxYp7/8e0zsRprny0YOMzNiEZ56DiCvgGyI8OZMKtUrdjMPyjbG2LnEkn9Ep0YVkFlAFrwboV6lesdupk6xbKSbmTFrpZ96Pk1mAZlXMD5KwUodF7uhh2Qb3dNmRq2/DKZKXXILyLgBkepV6ovYDS0rko2sNTNqEZ569iO3gEwraRytYBX1jd3UItnIjnbGbYUMZlIh2QVkWL9URL/GbupR3ciPZsbtJn1L7gSyC8is9OSoBSu/eezGHpONvGFn5PrIYCanyS8go25LRfZx7MaO1Y1cZWbkpuhbckvJLyCjnohesJr95KC1t+wM3RIZzHfkF5BJR6U2Q/yvuy91sX3ClQhPPY8lw4AMWrQ5BSsDx8EcLxt5287gPS6DeYwMA5zeh/mjd2I3eIKL7ROu9NIj9gk5BmTM8s2qVxk4DiZ9ooPtE87cKoNZRI4BmTI6f/MKVmpd7Cb1tq/8682M30I9YlPJMiBD+m9mvUoNiX1wfclK2cgldgawpwxmP7IMyIwGtTa3YKXei91oVxfbJ1zRu9iKppBnQEa8s9n1KlU19gnNpdVkI7/YGcLbZTAPkmdAJky4d/MLVurd2M0OcLF9wpVDZDDFdcg0IAPeq0C9Sg2NfRxMwemykS3MjGHhDBnMnmQaEN/ArSpSsFJnxm74TAfbJ5zZWz/1nEmuAQ7qxt8aXxa7Ug6SjZxjZhRLdpHB3EGuAXGVjqpYwUp9ELvpwQ62TzhzoH7qeQrZBsT0dAXrVQaOg2ky1MH2CWeF/wYZzP1kGxBP4c8VLViprrEb17f7Oww3M5L3yWBqtSXfgFgWVLheZeA4mOH6JMTBZkay4E4ZzF3kGxDL8RUvWKlPY7d+joPtE87MlsG0n0PCATEcEaNeZeA4mBHnyUaeNzOWE/X+kP3JOCCGx+IUrAwcB7OFbKNpJTOD2UnfkutIygEVdkusepWB42AaXCAbGWBmNOduLYPpRM4BFfZQvIKVqhy7B7842D7hzN0ymM5NSDqggsYWxyxY8Y+DadVaNvK0mfGM8Br5bLIOqKAVqbjiHwfzsYPtE87cFdItOcAvrZrFLljxj4MZ3VI20s/MiM6rJ4PZg7wDKuTDVHzxj4P51cH2CWful8F0KSDxgAq4UT+hGyn/xWexuxHhRtqTZsb0AX1L7kAyD6gAvc384bUujoP5wsH2CWfukMFUq0vqAZttrn6Rr1vetfLfPBS7IxFOcV1qZlRn6fuCe5N7wGYbHOXe0WsujoN5y8H2CWf2DOmWHOCLsvFRLgXS3R0cB3Oo/sNzsZlxnakPpT2E7AM207N6i3npv/7ZYS6OgznGwfYJZx6UwbRIk37AZimpItfVfb/9u8Ix8t/Vjt2ZH11sn3BljX7qeRv5B2yWb+WqGvT/e7JX6+NgmsfuzdUOtk84s59++kr+AZsjfaJcVav+cymmj4PZK3Z3jnCxfcKVw/VTz4VkILAZbtMH1vz+6abdXBwH09PB9glnFslgepKBwGZ4Qq6pfX7/pxGOg2kTuz/d9PaJZWYG91F9vXgUKQhEpu9y/+GElz30Pz4t9p+oevvEcjvDe7QM5nFyEIjsM7mifvnfPy7Tx8HsG7tHh7jYPuHKsfoSqxdJCESkX4bJH/2Hf36APg6mUdwuFc5wsH3Co7+4e5OFQER95Ho66Y//PMJxMC/E7tNBLrZPuLJUX2IdRxoCkYyWb48U9f3Tf+gU/ZlihUXYPvGUnSHWxz32IQ+BSPRXiZf8+T9EOA7mm9i9OtDF9glXTtC35PqSiEAE27be7FvC++vjYOrH7ZaT7ROuRNiYu4JMBCJ4R66lR/76XyIcB/Ni7H652D7hTL+QbskBuROh+Kwt95/2lf/n3NjHwUTYPvGcmVEuWSmD6U8uAtJ7Ffn8SYTjYF6K3bPZDrZPOPN0SLfkgFyZOLRCH5jTx8GMLIjdNRfbJ1wprSaDOZVsBITn9cGlJX/z3yIcB/Ny7L652D7hzICQbskBOfrFP0quo/l/+x9dHAfjZPuEKwWnB3RLDsiN+XIVnf73f9pFOA5mdeze6e0TVeubGernQ7olB+RCoX549fw//Fd9HEzjkrjdc7J9wpWBg2QwZ5GRwCbojyJUbfIP/zXCcTDbxO7fXXr7xEAzg60PUhtSk5QE/tntcg2994//d5r8v2Nin7gXYfvE+WYGu4l+ILsDKQn8I330fPs5//ifIxwH81rsHrrYPuHMsJBuyQHOPSZX0Bab+N/6OJjLY5+417aWg+0TrgzvENAtOcC1W/Tu61mb+O8RjoMZF7uPLrZPOLNPSLfkAMeWyPXz8Sb/fw/5/3eM3cdZeofqxWYGfM55Ad2SA9waK29CFV+/yR9wpP6Q5pWxe/mVg+0TzmwR0i05wKmTYn8GUx8Hs2XsXjrZPuFKgwsCuiUHuBRhr7r60PgGfYl1Vex+utg+4cxFId2SAxz6Ra6dz+TPqC5/Ro/Y/YywfeIyO78lQrolB7hzo/7r5Ef5QyrrS6xrYvf0SwfbJ5x5JaRbcoAz+hH7dxF+yrXyp7SL3VMn2ydcGd0yoFtygCtzt5cL57YIP2a9/ClFO8Xuq4vtE85cGtItOcCRVXLdTIqybiIcB/Nq7L5G2D7xppmBH+vijSYgLGXj5bLZO9IP+lQfBzM9dm9fd7B9wpl2MpjuaRIU+KNnM/V4veRk+ZNeid1bJ9snXLkipFtygAslVeSieTbij/pIv5DYMHZ/XWyfcCaoW3KAA3vLNTMo6rmCEY6DqRG7v062T7hyqIs3moBwpGfIJTM48g+7UP6s1tvG7rGL7RPObCmDeYMcBf6rWybPz4pw8M52sXvsZPuEK2+GdEsOyLqecsGcsxk/7Qd94l7b2NeELrZPOKNvye1KkgL/cWVmK0yELRJfx+7z9y62T7gyLqRbckCWPS6Xy4eb9fPOjvNp+IicbJ9wRt+Se5s0Bf5NbwTKH71ZP3CiPg5mWOxeO9k+4cpl+pZcXxIV+M0XcrWs2Myf+L78iR06xu21k+0TrqSvk8FcSqIC/zI6P+O/3YfrN6nvid1vJ9snXIlwS+56UhXIy/tYrpUlm/0z18mf2blJ7EssF9snXIlwS+4SUhXI21Z/87LXZv/QEfo4mI2xe+5i+4QzF+tbcj+RrIA+uOWxCvzUM+RPbVopbs+dbJ9wdonVWAbzC8mKxJugr4WOqMCPjXAczH2x++5i+4QzQd2SA7JkmFwnkyv0NaZT5c/tUhC37062T7gS4ZbcFqQrEi7Cml9QoR/cSt8amx+79y62Tzijb8nVu5GERbJtlKukSknFfnJ/ByfuRdg+scrMVES4JXcOCYtEi/B3yNMV/NEN9XEwe8fuv4vtE87oW3JDapKySLID5RoZWVDRn70iM8dabJKT7RMe/Xn+HimLBCtZKZfI8xX+4TcVZ+n22B+52D7hjL4lt/1wkhbJdZhcIVVj/EXVR/70FrGPg3GyfcKVCLfkBpO0SK7bs/o3yBR9HMxtsUP40MH2CWf0LbmhTchaJNXaLG+8XCJ//sOxY3CyfcKVCLfkziRtkVSPyOXxTqyfv0xfYi2MHYTePlGlrpkZ0bfkxpeRt0gmfbxUs1nxWtCfMu0ZOwon2ydciXBL7gMSF8nUWy6O/jFb6KW/VX5U7DBcbJ9wRt+SG1VA5iKJxsptB/G/Gaf/6DwmdhxOtk+4EuGWXFdSF0n0q1way2O3sVBfYvWK3YiL7RPOBHVLDsiYCPd+jovfyhOykd6x23CyfcKjafmU5EXyXCQXxqIMtPJ5ykFZdLF9wpmTZDA/F5K9SJp5Fzi4H54XZW/qF7HbcLJ9whV9azF1AumLpNlHLovvMtLOAhcn7rnYPuGMPnVtcpr8RbLM3d7RfZ/0DNnQSbEbcbJ9wpUIt+Qqk8BIllXONi99q0/cax67Eb194nE7c6P3x91MAiNRInzd8tsMNRXhEzYfx27EyfYJV27RwWwghZEk9zn4fvHv5rs4ca+ng+0TzhwjgzmaFEaC1H1GLokBGWusVDf2YexGnGyfcOVHHczOJDGS4yC5IM7N4Hc6n3Vx4p7ePtHHzvzcKoPpQRIjMSI8uXs3g80VnJ7lz9j8Rm+fKO5rZoKO0JdYU0ljJMVr+niWjB7n97yDE/ecbJ9wRt+S+5I0RlLo5bAuo+0NHOSgQSfbJ1zpprfbTiGPkQxvytVQq0FmW9S7vuKfuBdh+0R/M1OU7i6DmUYiIxn0U/NTM9zi3K0dnLgXYfvEKWbm6BB9vTidTEYSXCFf/Wj5U6bbHKbPE6sftw0n2ydcKdS35L4ilZEE+uXaFRlvc3gHB88lI2yfOM3MLOmdJ80akssI33T5+ZKiLDz/1x+HiH/iXoTtE2eYmaaSXWQwd5DMCN8lciE8lIVW57g4cW+jPmexkZl52i3rZxoB/ntAn3KQldeEt3Nw4p6T7ROulN4gg9mddEbodOHIzou1Tk7cc7F9wpk99O6TtuQzwjZB/2mWpa8J62/Ixz9xL8L2iffNTFXZnTKYr0lohO3unH1/d5aLE/dcbJ9w5gB9S24OGY2QTRwqF8GT2Wpb3+2Pf+LehHtlI2fbmaytZDB3k9II2Wy5BE7O2hlSo12cuPe1bGPQQDOz9Y0MpkNHchrhKu0il8DT2Wv9UgffkY+wfeIHM9MV4ZbcPSQ1wqX39owsyF7rTk7cc7F9wpn9ZTCdm5DVCFWEDxqcmc3233Zwx79tLQfbJ1yJcEtuI2mNUB2mn6Fl9Rf2FS5O3KvhYPuEM/vKYJpWIq8RqNtzvUtpVwfHTUfYPvGRmRmbp7fb3kdeI0zjcr6v51D9rfJjYzfyimyjcV0zc9ZGBtOlgMxGkPRZLFn/mMEbDl4McrJ9wpUIr37OJ7MRIn15k4HTtoQr9SXWJ7EbeVW28XOhmVnby8F2W8BDb8nUfyr7nbhadmJR7DYibJ9Yb2bWGurrxW/JbYRnjVzGLk6VWevixL12so3L02bmrbaD7baAd/Q+8wdddONaB98PdLJ9wpXm+TKYBWQ3QhPhT4tlLvqhD3HNwIl7evvEzXZm7kEZTIs0+Y3AXOTg5lEUEU7ci3+lF2H7xAYzM1dH35L7nPxGWCLsQDzKTU/0dvviOrEb2TJH31XNioccbLcFvPK1N0lfOEZ2pXbsRiJsn9jZzNwt07fkFpLhCMnc7f35s2J1ysHjSr19ooed2ftMBvMIKY6Q3OPRXsoIJ+7tFbuRcS62T7jyqIvttoA3yprKjO/nrjcRTtw7JXYjevvEfnbm7zEZzGckOcKhT4yq5vD9jggn7rWJ3YiT7ROuLNaXWI+S5QhF6TN+fdQuwol7p8VtI32dbGSanRl8QgazhDRHKPRt7nOdfgYuwol7+8ZuZBt9b3+6mRn8XF8vLiPPEYb0DN/Ovopw4l6juG1E2D6xp505PF4Gs5xERxgu0we4D3fbowgn7r3g4Loyf6aZOXzSxXZbwAc7ymRf57pLnXQNjX3iXoTtE3eEdJVcm0xHCN7Ut7gbuO5ThBP3vondyMt6+8QsM7P4rYvttkDuHSNT/VT3nYpw4l79uG1E2D5xv5lZjHBE21PkOuzTH4dq9pP7XkU4ce/F2I28pK8t25qZx6ddbLcFcu1tP29+7Otgq0WE7RN3mZnHCJvp2pDtsG66/JpSUd9c9GtePbn+XordyIs5P9gsg551sN0WyDF9Sl+O3qm7X3ZsZEHcNiJsn9jfzEwWnC6DeY58h20RzrV71NuevRy7kW9kGx06mpnLjQ622wI5tbtM8tdz1bU7HLyRHeE7YJ3MzOXAQQ622wI5NOI8meOLc9W3Wc1k31bHbuQFvX2iiZnZXOVguy2QQ3q7Uw5P6NtTdq5xSeyKrbdPzDYzm0622wI5M7GzzPAnc9e7mfrEvW1iN/KcZ1+qiGWYg+22QM7Mlgl+ci5PDZ4muzcmdvciHBe0h5n5dLLdFsiRCA/Cu+ayf2v0iXuvxW6kjWyjS4GZGf06pOtF4M92c7DVKZb9HNxii7B9YjczMzpHP0R5ibyHTRG+r/JDbnt4uD5xb1zsRp7y6oP2MW3n++8goKK28f+Rfg/ZxR1jt9GwpWzkIDNz2rZWQNeLwB91l7m9Q667eKQ+DubK2I3Ulm0cXGhmUmuEdL0I/E9l/SbHiJx38mjZyS1jt9Fcb584zMysztK35FaT+zBIn9buwbuyG/Ql1lWxG1ku22iRNjOtX4V0vQhE/2urtQ9fI6kuu9kjdht19PaJbmbmdXTLgK4Xgd/tKvN6Lxt/uKauid3IQ7KN7nYusV51sN0WcGwnuWPAk0MLrpXrr13sNpbp7RNrzczsmpCuF4H/d6nM6gf96Oh6fajxTrEbWeRg+4QzX4Z0vQj8JsLmo2V+9DR9ouzpq7EbeVT/4fmjmbk9PKTrReA3NRzcy86QT/WJe9NjN/KYbOQNO5PbI6TrRSDSNwo+8aWvJSfLvr4Su5FjXWyfcOXIkK4Xgby8u2RG3+xPZz/SJ+41jN3IE7KRt+xM7+shXS8CwzvIjF7qT29Lq8ne1ojdyFJ9VXKcmfndENL1ItBJ5vN1Pj1HulDvcd02diPHy0betjPB1UO6XkTSlTWV+fypT/0tHSX7u13sRk7Q2yf6mpnhyiFdLyLpXrL2Rv8P+lDjtnHbiLB94lc7U6y3237BOoANpTfIbL7Qs0vC8bLHX8dupJ/ePnG9mTleH9L1IpLtYnsf/j5bfwpnTtw2SlbKRi4xM8dhXS8iydJjZC6f7VufJw6VfR4Wu5GuevvET2Zm+dOQrheRZJfJVO4w3LtOv687HftQ4wjbJ34xM8sRttt+zFqAATvKTD7Lv04P3172+p7YjQxwsX3ClY9Cul5EculNhfVu9LDb6xycmBHhnMYtzMxzhOvFD1kN8N4bMo/b+NjtEfrEvY2xGznTZjH/ex+EdL2IpNLfHml2ipcdP0Ouv6axn20OHCQbOcfMTBfo7bbvsB7guXYyi/f0s+MN9Acm7ovdyGDZxpCaZqb6h5CuF5FM0+X3c4vqeNr1D+X661IQt40mevvEe2bmOsJ223WsCHhNHwL1pa9db6VP3Jsfu5H3LO75+CfvhnS9iCR6QC/6R73tfH8Hr0BG2D4x2MxsR9hu+z5rAh6738FBylkT4Tv0e8du5BzZxtAmZqZbXy9Wrc+igLci7A1Y7HH3V8jeTyp0MERnmpnvCNeL77Iq4K39Zf5e7vMBUDfpE/cWxG5kCwfbJ5zR220HDWRZwNd7Gp1l/p7gdQB9ZP9bxC64EbZPDAjpkvoH1gU8dYDM3pP9PsR8ij5x77bYjfwi2xhVYGbK35HBjC9jYcBLBXfK7P3I8xCWyAgejt1GhO0TT5uZ8wjXix+wMuCll2XujvT90mGZvsRaGLuRS2QbVeqamfSgrheRJCWNA7if8ZmM4bHYbYzW2yf6mZn1CNeLH7E24KHvHXygJet66eNgdordyK8Otk8487EMpnEJiwPeSU+WmbuDgTAekVHcFbuNsXr7xJNm5j3C9eL3rA54Rx9Vd6+FF8sWyzBOjN/I27KRyWkzE6+vF38uZHnAN/ow4H1NxPGECqN4Yuw2ImyfWGpm4iNcL65necAzV+nvT55mIpDPZSBT4jfylmzkOztTr68XL0+zQOCXXWXW7mUkkttVIG/Gb+NQfW9/sZmpj3C9WJkFAmNJmz/TSCjfqEjWZqCRYxxsn3BGXy/ezAqBV16VOTvNSCSFu7j4oteP+hLrEzOTH+F68U2WCDwS4VNSy4yE8qSMJCNnwVwtm/nMzvTrk5JeZ43AIzVkxvawEsrN8pt0GWnmCH1VMtXM9Ee4XtyZRQJvzLsgmIQ9SkbSJzMN9ZQNPWQnAa4O5xcWEuAuma/VrYTS28Fnkv+tm2yoaJmZBFirL7GuYZnAEx2HBLMPco182tk5Q98DTXeXg7bcTgpca/e0JCSO3AiQus7KzsFXZCj7Z6qpQ2RTxXXMpMBr+npxJxYKvDBwK5mtnxoJ5TT5sZTWDTLVVuEMOWy1zeRAhOvFV1kp8ML5Ds7zc0TfjKuRucYOko3lNzeTBIfpYKazVOCB0htkrl5oJJT68tiq4gyWkBK5RTX1lJksKBwjg3mFtQIPXCwz9Vwr51bpUzTezmRzB8rmmp1iJg1W62AasliQ+7sX+lfri1auFUfJUB7NaHv62rSNmTyIcL1Yg9WCnFsv87TD8GCuFW/NbIN7yAZrnWYmEfQZJK23Zbkg13aUefqClWvFFjKUzzPbYpk+GO05M4kQ4XpxO5YLcuxYmaX1GhkJRX/k+eBMf+t3tmyyfSMzqfCSvl5sy4JBbm0ps/R+K6E8JkPpmukmJ24VzPVppOvFfVgwyKmp4TzoukaG0jTzp653ko0O6WgmGV6UwZw3hyWDXPpS5uhXVkLpI0M5O/ONzt1atvqNmWSIcL04jCWDHLpJnphSZOV9uIb58piybFzr7C/XeNX6ZtJBv1TaoSOLBrnzlczQdlZC+SU3D+wm3BvMNrZ/XS/KNwVSq1g0yJkH5LvCmd1pmUUj2subcbOy0rB+fdHMiwJ5eS/IYDo3YdkgV+6X+bmllVCGyVD2zE7D8+rJll8ykxAj9PXi8ywb5Co9z5PpeayRUAYOdXF+agWr/sgCMynxnH7UWomFA1//ALjWSij6JZmsfZS8bS3Z9stmUiLC1/2fZeEgJ+rrR/LrjYRSUkWGcmXWGr8jnO+J5eW1kcF0KWDpIBf0PsGMv8qSLfrzc8dnr/FZzWTrq80kRYTnME+zdJADBfpNjIutxPKdDOWQLLa+p2y9cYmZtHhKBlOlLosH7l0YzsX/m7n9o2ym3LOa2sZMWkQ4BPxbFg/c3/bZJZzH8T1yfKd4mmx/TKGZxFghg5lUyPKBa5/qPYITjYTStyjHoayRbzilLjOTGPp1rdSTLB+4dnk4b+3WlqG8l+Ue7Cd7cHnaTGYsl8FMTrN+4NZSmZX31jQSyrbywVbWv0F4uLzGS40zkxp19CXWUhYQ3Kouk3JfK6GcIUP5MOt90HfRdrSTG0tkMN+xgODUkfrEASvHJ8ztII8AnenBeKbeNJMcy/T14mKWEFzSVwR3WAllsAxluYNevB7Oe+R5eY/LYB5jCcGhKfJ3qJlT1iPsfz3UQTc26Eusq8ykx6M6mE9YRHBHbxx61Uoo82UoRzvph74p2MNOfjwig1nEIoIzEXYzH24klPTPMpTKTjqiDxlLXWMmQRbqYKayjODKXjIdd7USSjcZygxHm4auDedz03l5PWUwD7GM4EgD/QWnna3Eov8SW+2oJ+tlT4p2MpMin+tgprCQ4Ib+rOTVVkK5RYZyeoGrP05PDOfGYF7e7TKYB1lIcGJ4B09u+2SAPldxtrO+fC/7kj/dTJIskMEU12EpwYUdZC5eZ+VdsebyLZIhw511puRkObCvmEmS9AwZTG2WEhwYqM/3/d5KLPrrxF877M1HsjfNGppJk7319WJzFhOy7/xwPkF+ozwywekLRqXV5NDWMJMmJStlMHuxmJD9VXVDOIe86GN/LnHaH/0R19bbmkkUvSO32SksJ+T+75amZVb+uO0sn727vTFcOkoO7nZ2frM9I4O5n+WELEuPkWl4gJVYfpCh9PauR7XamkmV+3Qwp7GgkF0nyCzsMNxIKCX6lpHrV3TLxnv1FCCeCK+V78uCQnbdLJNwfyuh9PPw4OqzZZ/azzGTK7N1MI1YUcimxTIH65nJwe4ylhOc92niUNmpYWaSZeKgcH67wSb9nbndrYSivyhQrcR9r97Xf3J3NJMt94QUDAyaGtCj6mNkLBfmoFfDt5fdWmUmXeZuLYPpxKJC9uhX776yEor+aOqgSrno1zp93mMTM/lytw6mPqsK2aLPyCwy80brpZ6eqzinvezYRjMJM+FevTX35dguXn/cQBYnytsznG/MtWomnx7k6HGcPnVsfJmZjPk65UZ+9dkjWJ/4yyKXJ46mjrQSy+7ebsNuqz+PeJ+ZlJlXL+VKrS0msETxR21k0rxhJZSa58nf2aNz1bcP5TB3KTCTM7un3NmqG2sU/zNC313ZYCWWTh5/3TPChex8M0kT4Xoxc4qGsUrxX2d5uDO8ggr0KzDLcte7/rJzjeuayZo7Ui69wDLFf9TXm2ousxLLy17/cTtan6K2t5m0adjMacXqykLF/9OvuR1caCSU9CQZyxG57N8K2b1JhWby5iunBav99axU/PuvKP3u/WorsegTtXL7VXq93y21wEzizMx3WrE+Y6niNx8E9OxKH/P5bW472Ed2cHLaTOZMc1qwUj+yVpGXV9JYZspLVmLZWYYysjS3PdTvDaVuM5M6a4qdFqy3WazIy/tUvxU20UosS2QsZ+a6i71lFx+2kzv7OS1YrXk7EXl5l4fz3v10+Rt/65y/XqxPpE4tNJM7x7n9m5Dto8hbKtPk3ppWYvlYxrIu9518XHayp53s6eG0YLF7FHnVZZrcZSWUeXLvdWsPDnr4RC/Mo8xkTy+nBWsayzXx9PJpbeYAlH1kLE/50M1HZDcft5M/R7ssWItYr4mnr+nNHElcX37Ss2isD/3UX89PHWomfza4LFiPsF6TTj9lz59pJZaNMuH386OjerNYbzsZVJ2CBXcelElyqZVQIhyu3MuPnn6ul+ZxZjKoMgULzjSUL+MWHW4lloNkvj/hS1dvl13tYyeHjqdgwZWnZI68ZSaWyTKW13zp6gLZ1eK+Zsb9BAoWHGmgv8F2lZVYxslQTvbmOwjpGbKzJ5lJovSJFCy48ZxMkavNxKIPgj3Qn85+Kzvb0syzjgjvdlGwkAk19VFNla3Eoh93nuvRiTQlK+XI9zeTRoW3U7Dgwg4yQ1qY+dSJftzp1bHKT+v9urPM5NFRxRQsZN/ArWSGbGMlFv24s71Xp9uV3iDH/kM7mfQ1BQvZ94NMkGpmTkQ4Vcbyjl8dfjagV6LyStpRsODBL/ndrMQyQR5G2Myzv7DK7rRWYjcZzZcULGRZV5kfTc0cnP6+jGWFb11+Xp+60MhOMpW8kE/BQjYV/izzY7aZX/BNZSxX+NbnifoO4jpL+XTkzRQsZNGTMj2qmvki7QAZi4cnrqySnR5S01JCpdfudwEFC9miXwG728zfI7vIWI71r9dz9fG17xvLqUqLN+5+SZ8YbqVg4e8tlKulnplbKPrVPC/3kw0L6BrXTVZSsJJLv8myu5lY9N2T733s9gT9osHZFCwKFv5lqlwrzU6xEsuPMpZn/NxPpvdbDhpIwaJgIcqBcq+YiWVXGYunB8HOkbvHUj9QsChYyLtJvv1VvCacWKo28bTr28mCNb4sUXlJwcLfqi1Xip1jwb+y+7izrf4e2YUULApW4rVqLRfKNVZi2VbGUquBt52vIedhVAEFi4KVdPpV4WPMxLKvjOUifzs/S//m+IiCRcFKuBHt5TJ500osc+VhhMXNPe7+K3ImGpdQsChYybZOrpKHzcTyoozlC5+7P7qlzT1kFCx4dFHiz/kySmkXGcuRXgfwquz/z4XJSU0KFsp7V66Rg82skY+svzA7Vn9eeD0Fi4KVYAXj5RJZbSWWCOdlLfU8BP2xzsvTiclNChbK+UCukC4FVmJZav9i8Qp53I+do4soWMi4ksZygexhJphHAtgV0EPGcDMFi4KVWP0CeuNWv8J9p/8Xi4fqD9dtoGBRsBIqfblcHveYCeaLIL7PsqWM4mgKFgUroT7XH+btaCWWhvLgg3stxHKlvsTamYJFwUqmJ+Ti+NpMLBfJWPY1EcfVMo4eFCwKViIdpc/vbGsllkbyzINmrUwEMk5fYk2lYFGwkmiR5VeF/+JuGctXRiK5VkayHwWLgpVAU+Smn/yZVmIZOFTFUtTXSCivyYJVNIWCRcFKnuVyZfxqJpaXZCy7WgklfZ2MZRoFi4KVOPqxWtHhVmIpqSIX+Y9mJmYbGUv+dAoWBStpnpLr4q2A1vi1diamcIyMZk8KFgUrYRroT4hfZSaY72QsCwxNzepUODcXKVjIjDPkqrjVTCwbZCzVSgxNTckuMp47KFgUrESJcNLwODPB6P0ZA0xNzsv6ZNtZFCwWcZK8L9dECzNfXtpJ7s/oPNHU5JTeIGfnfgoWizhBBm4ll8RhZoJZIWN539j06F0atdoGn6MULPzXmXJFVDFz1+cBeTxWvTnGpqfsTjk/d1GwkBilo+SCONBMMO/IWE41N0H6/J/2c0JPUgoWfve0XA9Ny6zEMreD3AQw2twETdR/su9PwUJCFP4sl8NsM8GskrE8aHCKvpFRdegYeJZSsPAfC+RqqFrfSiwRzv051OAURTgvshMFC8lwvFwMd5uJ5UAZy+sm5+gFGVfnJhQsJMFCuRbqNbISS1r/dTvO5CSNuDegP9spWIjhaLkUtjMTi/561IlGjx59TkZ2biUKFsJ3S0gvfujP0h9kdJrmyY8+GzozkoKFCntILoRLAiq+IwuszlObgE7lpmChosYWq3VQvMZMMF/KRb3R7ETpHfyGdvdSsFBB+s27L8zEcr0svkOG250p/YnFanUpWAhbq2ZyGVxjJpi9ZCz7GJ6qhi2DvUFHwUJEH8pF8LiZWG6U96Vbn2Z5rmrLuTq4kIKFkOk1nnrTTDBnyVg+Nj1ZzeU5IalDKFgI2Tq5BB42E8vEzvLcnzW2Z0ufxNYiHWyqUrAQ5RW118wEoz/qtcT4dNWRDxVS3ShYCNe7cgFMMnNXpK7+kPDO1udL75nrHuwlFgULET5tYOe507cB/XX7T5bJz9Wn1lKwEKoBevN0qZlgLpfBrLc/Y5/JIHekYCFQJY1l+t9nJpgjZCwrA3jm/6iMMvUjBQth0n9EDbLzAYA3ZDAvhzBnj8kw36BgIUjpE2XyrzITzJSigIrvJhyrL7GuomAhRLfJ1B9i5zvhryblE8L6AzpvUbAQIp36dt68069Eth8Rxqwt1ZdYx1GwEJ4fQzpO+H4ZzO6hzJv+Av/bFCyEZ5FM/F/MxFLzPHkYYcNQ5u0EOW9FfSlYCI2+S50/00ww+ti+S4OZuAjPSn6lYCE0ywNK+4KmMphl4cxcPxls/vUULIRltPxUSdFOZoK5UC7hYwKaupKVAX2Fn4KFSPrLpO9tJpbCSTKYhSHNXVd9ztFPFCyEpEGtgPYf6tvQ1wX1DYPSagE9L6FgIYJ3ZMobSoAdZTD9wpo9/dJ6620pWAjHBH3wuZ3PlHwS0jcnIik4XYa8BQUL4XgvpG/t9pbB/BDa/OmPq9a7kYKFUEwcGtBpBtPld4O3bhLaBA4cJCfwHAoWQvG8TPcqJWaCuUQGc1Z4MzhYv7hek4KFMJSOCujQ83nyeWfrtuFNYRN9jfweBQthmC+T/fQCM8F8LYPZK8Q51HchOwynYCEEhT/LZN9oJpj68qCy4rEhTuJwfUDbYAoWQrBApnrV+maCmS2D+TLMWTxHBj40rGcNFKyk0h9UGmYmlgi343qFOYsj5Bd1UmdSsGCfPl6m/RwzwayWwVQPdR63kKE3rRRSvBSshNLnrhjaJT05uWe3N7hAxj6AggXrbtGv+s8yE0xlGczJhcHO5C8y+FEFFCwYt0Sm+cd2gjlaBjM/3Jls1VpG35WCBdvGFge0DeAauWLPLQt4LvUe/yp1KVgw7SSZ5H3sBLM8aXuR/mx0yyR9V4eClUSz5Pl9hk61aygX7L0dg57NX+VkTgrnFh4FK4k+lCn+eEjBnJH0v+9TJ1CwYNeN+lH4lWaCmdA+oOedFfO2nM7JwXwcmoKVQPp9joftBKPf/10R+nzqwyVTSylYsGqufmPWzj7LgVvJYK4IfkbfkmPwHQULVg0O6SbtszKYReHP6KFyEFKLKViwqWy8zO69zQRT0lgGsyEBc/qGHIXHKFiwSV+TjLJzvMwhMpjbkzCnP+pLrE8oWLCopIrM7WftRHOzDGabRMzq1XIcPqNgwaK9ZWoPsvM9kitlMNXqJmJW1+pLrKkULNiTnhHSiyw9ZDB7JGRee8qReIiCBXu66ZOh7LzIMlZuQKo6kXn9j6JlFCwE+Jt4HzvB7BnQZ57jXjl3l2OxnIIFa/TjpFp2zu/bVn4Kqta8xMysfl5aXIeCBWM+k2n9i51gngspmLgK9c3J2hQs2KLfOssfbSaYuR1kMDMTNLcHyYKV35yCBVP6yKQ+yU4wZ4f0FcL4SnaR4/EUBQuWjM6Xj5L6mgmmtItcoEcmanYP1AeLnELBgiEfy5ReYieYrol5fy5qBb9BjkgbChbs0E/VDB2QnB4jg6mcsPndQz8CPo2CBTO2COma5HMZzMGFCZvfsjvlmDxHwYIVE86T+XyEnWhulcF8lLgZni3HpH0jChaMGCbTuYWdT39PlcGcXpC4GZ6oP7/6AgULRrJ5qMzmQ+xEow9eeDGBc9wppDdFKVjJ9rw+IbjETDAN5QaNIcMTOMdzt5aT/A0FCxaUjpK5PN9ONDVkMHclcpb3l+NStT4FCwbMD+mmjz5ZsVmrRM7yhHsD/1OZgpUQhStlJj8f0oXEKwmd57vkyJxbyXJ8FKyE0F8fqdrETDAD5fODojoJned59eREv0TBgvdul3n8np1gXpLBvJXYib5fjs3IAsPhUbCSQR9S0H6OmWAiHPxzVGJn+gH9/tXLFCx47hGZxe/YCeZ7Gcy1CZ7qO4I+SYiClQj6LPNms0L68/bJBM/1rGZyeFZTsOC13jKH+9sJ5lh9CVGS5MnWR3M0tjs+FKwkGFssDyi43k40+rv0HyR6tmfKtwAMH4dNwUqCk0L6mPBO8rv0gyole7qnyekeY/bLOxSsBGjYUmbwcSFV3x0SPt9r5AV16jUKFrz1i8zfz+wE84C8p1xvTtInfD854ZenjYZGwQqffvEu9aOdaPRnU9skfsYPl381p8ZRsOCpfWT2fmcnmJry7V5DJytmTQ855TtSsOCnudvL7L3NTjT3yGCmMeV5R8pRSr1JwYKXVsncnWTnmVHBeBnNLUx5Xt7Rcpi2pGDBR2V6iX9rJ5rdQl2IGbZBX2JdRcGCh+4L6dWy9CQZzVqm/DfV5UD1oGDBPxG+bDDATjSXyWBOTDPnv6msL7GuoWDBOwfJvLW0L7ynjGZvpvz/XSuHqh0FC979DTVD5u1gO9HcEvbH6TJqvRyrop0oWPBMt6AOqtM7uJ9nyn//VXWiHKxXKVgw9zfUOXaCuV6+I9dhOFP+O/2Zw/zpFCx45UqZtLXa2onmqZCqb9aVnBzi0UIUrKA9LnP2QzvB3FhLBdO6LVP+Px/pz8w2pGDBI1fIl2Bb/mQnmnUhfTbVgdJqcsBqULDgkS9kxq6wE8zEzvKx1xqm/I8ulNPfelsKFrwxWn4rt6ivnWiel8vvIab8z5dYo+SQbUfBgjcuCWmJ170h0LfjsuiHoJ65ULACF+FIzV52otlbBvMwU/4XEV58/5qCBU9sJ7P1aEPRXC6juYwp/6uzQzrwm4IVtgnnyWw9wk40a2UwKwuZ87+aOFQO2zAKFrwwTObqZENfNthSRrMbU17e+3LYOnQ0FRAFK8G/XBfYiWYKhxFWyHD9fexVFCx4YKPM1ColdqLRZ4Pew5T/Hb3btnMTChZyLsIenKftRPOTPAq2/Qjm/O+M0HcyN1KwkHMH6u/KPHqcGXpH2e5M+d87Qw5d00oULORYycpUorQ8hTn/ew30MbrPUrCQY4clq16lfmXK/8mp+i7WG3Z0p2AF6faEFazDmfJ/0qp1gvKAgmXTuITVq8eZ8n/Wn4IFz92asIK1mCn/Zw1bUrDgtUMTVq9acBjhppxEwYLXeiesYH3KlG/KTcUULHhsbHGy6tUzdZnzTepDwQJ/AnjjB6Z80/SbmBQs5Eyj1smqV1WbMOfcI6BgmXV+wi6wzmLKlWVFFCz4alGy6lWteUy59DgFC76qmqyCdQczrvWiYMFTDZJVr4qvZ8ojuJWCBT/VSVbBaseMR7GQggU/HZ6sgvUoMx5JTwoWvNQ8UfXqaiY8ms8pWPDSxETtc+/GhEeUiC8O9WCe7WmcoHo1icMIo3oyCfnAhxwNeipBBetppjuq9IwE5MM3zLM9S5NTr8YXMN2RfZuAhFjLNNtTckNiCta7zPZm5EX49wrqcZquRQOSUq8G1WeyN8P84BPiKybZorozElKwDmSuN0dptcDzoeg4JtmkOrUSUa8W8WXkzfN94AnxIFNsNTOTsBfr5wlM9OZJ7xp0Qmw/iym26oP88OvVA0zz5mowMuCEKGYTsWHdQv/IzCKuryqgb7hpUXQf02vZA+1CLldDB3D/qkLGhrrnpdlHTK5xR05rHWhyVhs8nOmtoAlfBJkSK6cytfbVX7/Pkuq3h+WNrzZewdVVHEeE9xr0oNkFzCsQ6rX3/ScHdCrFVg9+T7kCgtZkypWLgzC1AZMJAAAAAAAAAAAAAAAAAAAAAAAAAAAAAAAAAAAAAAAAAAAAAAAAAAAAAAAAAAAAAAAAAAAAAAAAAAAAAAAAAAAAAAAAAAAAAAAAAAAAAAAAAAAAAAAAAAAAAAAAAAAAAAAAAAAAAAAAAAAAAAAAAAAAAAAAAAAAAAAAAAAAAAAAAAAAAAAAAAAAAAAAAAAAAAAAAAAAAAAAAAAAAAAAAAAAAAAAAAAAAAAAAAAAAAAAAAAAAAAAAAAAAAAAAAAAAAAAAAAAAAAAAAAAAAAAAAAAAAAAAAAAAAAAAAAAAAAAAAAAAAAAAAAAAAAAAAAAAAAAAAAAAAAAAAAAAAAAAAAAAAAAAAAAAAAAAAAAAAAAAAAAAAAAAAAAAAAAAAAAAAAAAAAAAAAAAAAAAAAAAAAAAAAAAAAAAAAAAAAAAAAAAAAAAAAAAAAAAAAAAAAAAAAAAAAAAAAAAAAAAAAAJMP/AQfM6fNgx0/TAAAAJXRFWHRkYXRlOmNyZWF0ZQAyMDIxLTExLTExVDE0OjQzOjA0KzAwOjAwcuiEjAAAACV0RVh0ZGF0ZTptb2RpZnkAMjAyMS0xMS0xMVQxNDo0MzowNCswMDowMAO1PDAAAAAASUVORK5CYII=;" vertex="1" parent="1">
          <mxGeometry x="650" y="460" width="80" height="80" as="geometry" />
        </mxCell>
        <mxCell id="8tucULJYZbGx7OZ7GhKJ-12" value="" style="shape=image;verticalLabelPosition=bottom;labelBackgroundColor=default;verticalAlign=top;aspect=fixed;imageAspect=0;image=data:image/png,iVBORw0KGgoAAAANSUhEUgAABLAAAASwCAMAAADc/0P9AAAABGdBTUEAALGPC/xhBQAAACBjSFJNAAB6JgAAgIQAAPoAAACA6AAAdTAAAOpgAAA6mAAAF3CculE8AAAC61BMVEXYZhPZaxvjklfuu5b118H66t/88uz89e/89O766+D228fvwZ/lmmTbcCPcdizuvJf99fD////++vjxx6jfgDvZaBfrsYf9+fb//fzabh/cdCn23crfgT3dejLhikvbcyb56d3YZxT00rr56d7abR7no3DuvJj78en+/PrefDXpp3fwxqf449P+/fvcdy7vwqHmnWj++/ntt5DuvprcdSryzrPtuZPzz7X9+PXstIv99vHacCLrsIX89O3qrH777uTZahnnonDmnmn559rYZxXlmWLnoG3gh0b//v7klVvlmmP34dHfg0DjkFT007v23MnhiEfhi0z12MP01r/ijlHhiUnz0bjghUL34M/yzLDll1///v3fgDz45NXxyKrmnGbYaBb56Nvww6LdeTDZaRjuvpvopXTcdiv77+btupXpqXvabBz88uvstY3qroL99/L88+zss4nabyHqrYDsto/78erbcSX9+PTpqHn77uX++vfopHLvwJ767ePnn2vwxKTdezPxyaz45dfefznkll344tLfgz/jkVbijE7hiUr22sfghUP3387449TefTb67OLbcyfZaxr78OjbcSTabR355tnefjj44tPfgj723cvghkX22sbghkTklFr34NDyyq7efTf45dbefDTvwaDdeC/77+ftuJLqq33bcibss4rabiDrr4T99/PcdCjopnbuvZncdy3noW/lmGHyy67z0Lb3383jj1P01Lz12cXhiEj12cT01b7ij1L23Mjz0Lfjk1jghEHyy6/lmGDxx6n56NzwwqLnoW767OHopnXtuZTpqnzstYzrr4PqrH/pp3joo3HmnmrwxaXxyq3efzrklVzjkVX118L11sDijU/z0bnyzbLuu5XqrYHrsonrsojsto7opHPvv5znoGzwxKPhi0vmm2X01L3klFnkl17yzbHijlDzzrTwxabtuJHrsIbpqn3mnWf33szlm2TpqXrijE3deTH55tjvv53xyKsztHjNAAAAAWJLR0QR4rU9ugAAAAd0SU1FB+ULCw4rBFEPgvsAAERoSURBVHja7d15gFfT/8fxKaJF+LRoiuSjqKhIRVo0GJlE2YpMNDKylDZEiBSyMy0K0SJKhEJZ0qLsIZKd7JIlO3/+vr6/r+8XQ6/b3M/nfM773Ofj75pz3ue8z3vu3HvuPXl5AAAAAAAAAAAAAAAAAAAAAAAAAAAAAAAAAAAAAAAAAAAAAAAAAAAAAAAAAAAAAAAAAAAAAAAAAAAAAAAAAAAAAAAAAAAAAAAAAAAAAAAAAAAAAAAAAAAAAAAAAAAAAAAAAAAAAAAAAAAAAAAAAAAAAAAAAAAAAAAAAAAAAAAAAAAAAAAAAAAAAAAAAAAAAAAAAAAAAAAAAAAAAAAAAAAAAAAAAAAAAAAAAAAAAAAAAAAAAAAAAAAAAAAAAAAAAAAAAAAAAAAAAAAAAAAAAAAAAAAAAAAAAAAAAAAAAAAAAAAAAAAAAAAAAAAAAAAAAAAAAAAAAAAAAAAAAAAAAAAAAAAAAAAAAAAAAAAAAAAAAAAAAAAAAAAAAAAAAAAAAAAAAAAAAAAAAAAAAAAAAAAAAAAAAAAAAAAAAAAAAAAAAAAAAAAAAAAAAAAAAAAAAAAAAAAAAAAAAAAAAAAAAAAAAACDKlXeYssqW22dPFWrVa+xTU0SALBj2+22TyVZrdp1SALAhro71EslXX6N+iQCYECDHVNIparsRCoA3mtYjWL1b9vvTDIAnmu0C6Xq94rFjSzAb+ldKVT/1bgJCQH4bDfK1B/sTkIAHmvSlCr1B82akxKAv/agSP3JnqQE4K8W1Kg/admQnAB81YoS9Rd7kRSAr/amQv1F61ZkBeCpfahQf9WGrAA8tScFqtx70G1JC8BP7ShQ5exLWgB+2o/6VE77RuQFQMGyYn/yAqBgWdGhI4kBULCs6ERiABQsKzrz8VGAgmXGAWQGQMGyomklUgOgYFmxB6kBULCs6FJAbgAULCsOJDcACpYV1eqSHAAFy4qDSA6AgmXFwYVkB0DBsuIQsgOgYFnRIk16AKYKVteaoTq0SFasbqQHYKpgHZbka8vuXGIBFCw/HK4vsY4gPwAKlh96yILVk/wAKFh+OFLfdz+KBAEoWH44WhasY0gQgILlh2P1JVYvMgSgYPmhuixYvckQgILlh8r6Eus4UgSgYPnheFmw+pAiAAXLDyfIglXclxwBKFheSJ8oK9ZJ5AhAwfJDP1mw8puTJAAFywslJ8uK1Z8kAShYfugqC1azU8gSgILlhdJqsmKdSpYAFCw/DJAFq9ZppAlAwfJCwemyYp1BmgAULD+cKQtW+0bkCUDB8sLAQbJinUWeABQsPwyWBWtITRIFoGB5oclQWbF2IFEACpYfhsmCVbU+mQJQsLwwfHtZsc4mUwAKlh/OkQXr3IGkCkDB8sKI82TFOp9UAShYfthCFqyRBeQKQMHyQoMLZMW6kFwBKFh+uEgWrFGlJAtAwfJCq9ayYl1MsgAULD9cIgtW4xKyBaBgeWF0S1mxtiFbAAqWHy6VBWtMIekCULC8MLZYVqzLSBeAguWHdrJgXZ4mXwAKlheuKJIVaxz5AlCw/LCrLFg7ki8ABcsPh8qClbqShAEoWH7YUhasLUkYgILlhyv1JdZVZAxAwfLD1bJg7UrGABQsP4zTl1jXkDIABcsP18qC1Y6UAShYfrhMFqyincgZgILlhfR1smJdSs4AFCw/bCMLVv71JA1AwfJC4RhZsS4haQAKlh8ulgWrWUOyBqBgeaGksaxYF5E1AAXLDxfKgtV6W9IGoGB5ofQGWbG2IG0ACpYfzpcFq96N5A1AwfJC2XhZsc4hbwAKlh/OlgVryAQSB6BgeWHiUFmxhpE4AAXLDzvIgtVhOJkDULC8MHx7WbEGkzkABcsPZ8mCNbQJqQNQsLww4jxZsc4kdQAKlh/OkAWraSVyB6BgeaHBBbJiDSB3AAqWH06VBWtUAckDULC80Kq1rFhdSR6AguWH/rJgValL9gAULC80bCkrVj+yB6Bg+eEkWbAmFZI+AAXLCzcVy4p1AukDULD80EcWrMlp8gegYHlhSpGsWJXJH4CC5YfesmDdTP4AFCw/3CILVupYEgigYPnhGFmwjiaBAAqWH3rpS6ydySCAguWHW2XB6kEGARQsPxyhL7GmkkIABcsPPWXB2o8UAihYfrhNFqyiKeQQQMHyw+2yYk0jhwAKlh8OkQUrfzpJBFCwvFA4Q1asPUkigILlh4P0JdZMsgigYHmhZBdZse4giwAKlh8OlAWr2SzSCKBgeaH0BlmxdieNAAqWH/aQBatWW0YJoGB5oexOWbHuYpQACpYfZsuC1X4OowRQsLwwcStZse5mlAAKlh86yYLVoSOjBFCwvDB3a1mx7mGUAAqWH/aXBatzE0YJoGB5YcK9smLNZpQACpYf9pUFq2klRgmgYHlhXj1Zse5jlAAKlh/ulwWrSwGjBFCwvPBAa1mx5jNKAAXLD3vJglWtLqMEULC80LClrFh7M0oABcsPe8qCNamQUQIoWF6YmS8r1gJGCaBg+eFBWbBapBklgILlhTrFsmLdxigBFCw/PCQL1sMMEkDB8sPhRbJiLWSUAAqWHxbJgvUIgwRQsPzwqCxYqaMYJYCC5YfHZMF6nEECKFh+WKwvsXoxSgAFyw9PyIK1hEECKFh+WCoLVtEyRgmgYPnheFmxljNIAAXLD0/KglXcl1ECKFheSM+QFWsFowRQsPzQTxas/OaMEkDB8kLJSlmxnmKUAAqWH56WBavZKYwSQMHyQukzsmKdyigBFCw/PCsLVq3TGCWAguWFgtNlxXqOUQIoWH54Xhas9o0YJYCC5YWBg2TFeoFRAihYflglC9aQmowSQMHywtytZcXagVECKFh+GCYLVtX6jBJAwfLC8A6yYr3IKAEULD/sIwvWuZUYJYCC5YU558mK9RKjBFCw/LCdLFgjCxglgILlhba1ZMV6mVECKFh+qCELVrW6jBJAwfLCrNayYq1mlAAKlh9ekQVrlxJGCaBgeWF0S1mxGDyAguWJV2XBGlPIKAEULC+sKZYV6zVGCaBg+aGdLFjd04wSQMHywhVFsmKtZZQACpYfesiCtSODBFCw/HCkLFipKxklgILlh9dlwXqDQQIoWH54U19iXcUoARQsP1SXBestBgmgYPmhsr7EuoZRAlwVrBcWu3PkmgJzw3e8LFhvk2OAq4LlVssZZ0y1NXyXyZiK65BkQJAF6zcPL7Y0fOkTZUCXkmRAsAUrleozwdD4bSPDyW9OlgHhFqzUqDV2xq/kZBnOJWQZEHDBSm09xc4AXiyjaXYKaQYEXLBSp59mZgDrVpPRXESaASEXrNQbdr59d6EMpvW25BkQcsFKXWxmBEtHyWDeIc+AoAvWyDIzQ3i+DKZ9IxINCLlgpQaYGcKy8TKYc0g0IOiCNarAzBi+K4MZUpNMA0IuWKmnzYzhxKEymPfINCDoglXFzlHv78tgqtYn1YCQC1aqn5lBHL69DOZdUg0IumBNsrMXa50MZmgTcg2I7W1/C1bqSTOjOKe9DOZMcg2I7RWPC9ZkO+eQviODGV9GsgFx3e1xwUotNTOMDS6QwXxAsgFxLfC5YN1sZxw/lME8U0q2AXHvvhT7XLHsfH20VWsZzEdkGxDXrT4XrEfsjOPHMpiVJWQbEFM/nwtW6hMz4zi6pQzmU7INiKn0ZJ8L1md2BvIkGcyMNOkGxPS515dYdo79WqPvBq4n24C4+vtcsJbYGccvZDDducQC4iq72uOCVbTMzDhOKZLRVCbbgLhqPuFxxVpuZxzfksH0JNmA2CrV9rdgFd9kZhgP1dFsINmA+J68wduKtcLOKB4jgzmaVAMycSPrwsmeFqyWo80M4lE6mqtINSAjGu52au9HbndNf/uuv50h1I8vepBngGEHyjVu6Kj3tSFtLANQTqm+e9bGTjQ9ZTBfMuWAYXvINV7rNDPBdNMby3ZiygG7yu6Ui/w5M8Gku8tgXmXKAcNmyzVu6Kj3w2Qw+dOZcsCuiVvJRf6CmWAKx8hgvmLKAcM6hXTU+2r91LMhUw7YNXdruch3MBNMyS4ymBpMOWCYPrrH0FHvu8lgWm/LlAN2TbhXLvIXzQQTYWPZdkw5YNhdco2fO9BMMC/pjWVtmXLArnn15CI/30wwETaWfc2UA4btLtf4yAIzwRygN5bNYcoBu9rWkov8ZTPBRNhYNowpBwy7Q67xanXNBPONDKZDR6YcsGuWPur9YjPBzNUf+VrFlAOGfSXXeOMSM8G8IIPp3IQpB+yamS8X+TZmghmhN5ZtZMoBw6bJNT6m0Eww+8pgmlZiygG7Ihz1fpmZYOZdIIN5likHDPtSrvHL7Rz13kYG06WAKQfsOlwf9T7OTDAP6Kee85lywLAeco3vaCeYp2QwVeoy5YBdR+pDst40E0zDljKYb5lywLDX5Rrf0k4wtWUwkwqZcsCuDSEd9X6Tfur5JFMOGFY9pKPel8tgJqeZcsCuyvoS6xozwdTRl1ifM+WAYdfKNd7OTjBLZDDfMeOAYetDOup9md5YtpgpB+xKnxjSUe+fyWAeY8oBw74P6aj3R/UtuU+YcsCukpPlGn/FTjSPyGA+Y8oBwz4K6aj3xfoSaypTDthVWi2ko96fkME8xJQDhl0Y0lHvn+unnsuYcsDwJdaokI56v10Gs5wpBwz7IaSj3hfIYIrrMOWAXWXjAzrqPT1DBlObKQcMOzuko96/1RvLmjPlgF0ThwZ01HvJShnMXkw5YNj7IR31Pl9vLDuFKQfsGq6Per/HTDClz8hg2jDlgGHrQjrq/T791PM0phywa8R5AR31XnC6DGZfphww7IyQjnrfqJ96NmLKAbsa6KPe7zMTzMBBMpj9mXLAsFNDOur9npCeegIop1VIR73P3VoG8w1TDhjWP6Sj3u/WTz3rM+WAXRGOet/bTDAT7pXBHMCUA4atCOmo969lMOdWYsoBuyIc9b7ATDBz2stg9mDKAcP6yDXews5R77vLYEYWMOWAXVP0OaS3mQmmbS0ZzG5MOWCYPur9YTvB1JDBVKvLlAN2RTjqfaGZYGbpjWUHMeWAYY/LNd7TTjBfyWAOLmTKAbt66XNIjzITzMx8GcxhTDlgmD7q/XE7wUwL6akngHIW6kusXmaCWaM3lnVjygHDeso13ttOMF/KYLpziQUYpo96Tx1nJpjD9VPPI5hywDB91HsfO8H0COmpJ4ByIhz13tdMMEfq68UfmXLArghHvZ9kJ5qjZTDHMOWAYUEd9b4hpKeeAMqJcNR7fzvRVA/pqSeAcoI66r1ySE89AZQT4aj3D+1Ec7wM5gumHDDsWbnGW9s56n29DKaoL1MO2BXhqPczzASTPjGkp54Ayolw1PuNZoL5NKSnngDKiXDU+zozwZScLIP5mCkHDFsl1/iQmmaC6aqfev7ElAN2RTjq/X0zwZRWC+mpJ4Byhsk1XtXOUe8fhPTUE0A5HTvIRf6umWCCeuoJoDx91PuggWaCOTOkp54AyplznlzkP5gJpmx8QE89AZS3nVzj48vMBDM4pKeeAMppe4Fc5B+YCabJ0ICeegIo7yK5xkcVmAnmvZCeegIoJ8JR7x+ZCWb49jKYs5lywLBX5BpvXNdMMOfIYM4dyJQDdo1uKRf5p2aCGRHSU08A5V0q1/jPhWaC2SKkp54Ayhmrj3pfbyaYBvqp54VMOWBYO7nGL7dz1Psv+qlnKVMO2HWFPuq9splgWumnnhcz5YBhu8o1frOdYC7RTz1LmHLArkP1IVkbzAQT4ann90w5YNiWco0fbSeYX0N66gmgnCv1JdbOZoKJ8NTzMqYcMOxqucZ72Anm7ZCeegIoZ5y+xJpqJpignnoCKO9aucb3sxNMUE89AZTzmj7qfYqZYCI89XyTKQfsSl8n1/g0O9G8IYPZkikHDNtGH/U+3UwwQT31BFBO4Ri5xve0E01QTz0BlLNaX2LNNBNMhKee1zDlgF0lu8g1foedaPRTz3ZMOWDYy3KNN5tlJpgITz13YsoBZ9LH3fPF5Go3nLjf3b1KMvIDS2+Qi/x+O6Ojn3peSg4BjpSdv/J/S69Lp7mZ+JkvyTVeq62ZAQrqqSdg22uj/rz4tuqaiSJ4p1zkd5kZoQhPPV8hjwAH6v7N6advT4z/c1+Ua7z9HDODpJ96NmtIKgHZ/3Owx98tv4drxv7BE7eSi3x/M6MU4annReQSkPU/dv7h8ylXxz+/6hu5xjt0NDNO+qln623JJiDLVv3T+vsw9o+eq49672RmnCI89dyObAKyq06zf9xZdGzsH/6CXOOd65sZqfNlMPVuJJ+ArNrEx55axP5W+Yh75SI/wMxIRXjquQ/5BGTTLZtafwti//jn5Bo/t5KZsdJPPc+bQ0YBWfTQptZfi9jfKp+nj3rfw8xYRXjqOYyMArJHHAlzW+wG2sg13qXAzGjtENJTT8CeFZtefw/HbuABfdT7bmZGa7h+6rmKnAKypVUzsf4Wxm5iL7nGq9U1M15n6aeeTcgqIEtOVeuvZ+wmGuqj3g8yM14Rnno+T1YB2XFjPbn+jordSG3ZxsF2jnrXTz2bViKvgKxYp7/8e0zsRprny0YOMzNiEZ56DiCvgGyI8OZMKtUrdjMPyjbG2LnEkn9Ep0YVkFlAFrwboV6lesdupk6xbKSbmTFrpZ96Pk1mAZlXMD5KwUodF7uhh2Qb3dNmRq2/DKZKXXILyLgBkepV6ovYDS0rko2sNTNqEZ569iO3gEwraRytYBX1jd3UItnIjnbGbYUMZlIh2QVkWL9URL/GbupR3ciPZsbtJn1L7gSyC8is9OSoBSu/eezGHpONvGFn5PrIYCanyS8go25LRfZx7MaO1Y1cZWbkpuhbckvJLyCjnohesJr95KC1t+wM3RIZzHfkF5BJR6U2Q/yvuy91sX3ClQhPPY8lw4AMWrQ5BSsDx8EcLxt5287gPS6DeYwMA5zeh/mjd2I3eIKL7ROu9NIj9gk5BmTM8s2qVxk4DiZ9ooPtE87cKoNZRI4BmTI6f/MKVmpd7Cb1tq/8682M30I9YlPJMiBD+m9mvUoNiX1wfclK2cgldgawpwxmP7IMyIwGtTa3YKXei91oVxfbJ1zRu9iKppBnQEa8s9n1KlU19gnNpdVkI7/YGcLbZTAPkmdAJky4d/MLVurd2M0OcLF9wpVDZDDFdcg0IAPeq0C9Sg2NfRxMwemykS3MjGHhDBnMnmQaEN/ArSpSsFJnxm74TAfbJ5zZWz/1nEmuAQ7qxt8aXxa7Ug6SjZxjZhRLdpHB3EGuAXGVjqpYwUp9ELvpwQ62TzhzoH7qeQrZBsT0dAXrVQaOg2ky1MH2CWeF/wYZzP1kGxBP4c8VLViprrEb17f7Oww3M5L3yWBqtSXfgFgWVLheZeA4mOH6JMTBZkay4E4ZzF3kGxDL8RUvWKlPY7d+joPtE87MlsG0n0PCATEcEaNeZeA4mBHnyUaeNzOWE/X+kP3JOCCGx+IUrAwcB7OFbKNpJTOD2UnfkutIygEVdkusepWB42AaXCAbGWBmNOduLYPpRM4BFfZQvIKVqhy7B7842D7hzN0ymM5NSDqggsYWxyxY8Y+DadVaNvK0mfGM8Br5bLIOqKAVqbjiHwfzsYPtE87cFdItOcAvrZrFLljxj4MZ3VI20s/MiM6rJ4PZg7wDKuTDVHzxj4P51cH2CWful8F0KSDxgAq4UT+hGyn/xWexuxHhRtqTZsb0AX1L7kAyD6gAvc384bUujoP5wsH2CWfukMFUq0vqAZttrn6Rr1vetfLfPBS7IxFOcV1qZlRn6fuCe5N7wGYbHOXe0WsujoN5y8H2CWf2DOmWHOCLsvFRLgXS3R0cB3Oo/sNzsZlxnakPpT2E7AM207N6i3npv/7ZYS6OgznGwfYJZx6UwbRIk37AZimpItfVfb/9u8Ix8t/Vjt2ZH11sn3BljX7qeRv5B2yWb+WqGvT/e7JX6+NgmsfuzdUOtk84s59++kr+AZsjfaJcVav+cymmj4PZK3Z3jnCxfcKVw/VTz4VkILAZbtMH1vz+6abdXBwH09PB9glnFslgepKBwGZ4Qq6pfX7/pxGOg2kTuz/d9PaJZWYG91F9vXgUKQhEpu9y/+GElz30Pz4t9p+oevvEcjvDe7QM5nFyEIjsM7mifvnfPy7Tx8HsG7tHh7jYPuHKsfoSqxdJCESkX4bJH/2Hf36APg6mUdwuFc5wsH3Co7+4e5OFQER95Ho66Y//PMJxMC/E7tNBLrZPuLJUX2IdRxoCkYyWb48U9f3Tf+gU/ZlihUXYPvGUnSHWxz32IQ+BSPRXiZf8+T9EOA7mm9i9OtDF9glXTtC35PqSiEAE27be7FvC++vjYOrH7ZaT7ROuRNiYu4JMBCJ4R66lR/76XyIcB/Ni7H652D7hTL+QbskBuROh+Kwt95/2lf/n3NjHwUTYPvGcmVEuWSmD6U8uAtJ7Ffn8SYTjYF6K3bPZDrZPOPN0SLfkgFyZOLRCH5jTx8GMLIjdNRfbJ1wprSaDOZVsBITn9cGlJX/z3yIcB/Ny7L652D7hzICQbskBOfrFP0quo/l/+x9dHAfjZPuEKwWnB3RLDsiN+XIVnf73f9pFOA5mdeze6e0TVeubGernQ7olB+RCoX549fw//Fd9HEzjkrjdc7J9wpWBg2QwZ5GRwCbojyJUbfIP/zXCcTDbxO7fXXr7xEAzg60PUhtSk5QE/tntcg2994//d5r8v2Nin7gXYfvE+WYGu4l+ILsDKQn8I330fPs5//ifIxwH81rsHrrYPuHMsJBuyQHOPSZX0Bab+N/6OJjLY5+417aWg+0TrgzvENAtOcC1W/Tu61mb+O8RjoMZF7uPLrZPOLNPSLfkAMeWyPXz8Sb/fw/5/3eM3cdZeofqxWYGfM55Ad2SA9waK29CFV+/yR9wpP6Q5pWxe/mVg+0TzmwR0i05wKmTYn8GUx8Hs2XsXjrZPuFKgwsCuiUHuBRhr7r60PgGfYl1Vex+utg+4cxFId2SAxz6Ra6dz+TPqC5/Ro/Y/YywfeIyO78lQrolB7hzo/7r5Ef5QyrrS6xrYvf0SwfbJ5x5JaRbcoAz+hH7dxF+yrXyp7SL3VMn2ydcGd0yoFtygCtzt5cL57YIP2a9/ClFO8Xuq4vtE85cGtItOcCRVXLdTIqybiIcB/Nq7L5G2D7xppmBH+vijSYgLGXj5bLZO9IP+lQfBzM9dm9fd7B9wpl2MpjuaRIU+KNnM/V4veRk+ZNeid1bJ9snXLkipFtygAslVeSieTbij/pIv5DYMHZ/XWyfcCaoW3KAA3vLNTMo6rmCEY6DqRG7v062T7hyqIs3moBwpGfIJTM48g+7UP6s1tvG7rGL7RPObCmDeYMcBf6rWybPz4pw8M52sXvsZPuEK2+GdEsOyLqecsGcsxk/7Qd94l7b2NeELrZPOKNvye1KkgL/cWVmK0yELRJfx+7z9y62T7gyLqRbckCWPS6Xy4eb9fPOjvNp+IicbJ9wRt+Se5s0Bf5NbwTKH71ZP3CiPg5mWOxeO9k+4cpl+pZcXxIV+M0XcrWs2Myf+L78iR06xu21k+0TrqSvk8FcSqIC/zI6P+O/3YfrN6nvid1vJ9snXIlwS+56UhXIy/tYrpUlm/0z18mf2blJ7EssF9snXIlwS+4SUhXI21Z/87LXZv/QEfo4mI2xe+5i+4QzF+tbcj+RrIA+uOWxCvzUM+RPbVopbs+dbJ9wdonVWAbzC8mKxJugr4WOqMCPjXAczH2x++5i+4QzQd2SA7JkmFwnkyv0NaZT5c/tUhC37062T7gS4ZbcFqQrEi7Cml9QoR/cSt8amx+79y62Tzijb8nVu5GERbJtlKukSknFfnJ/ByfuRdg+scrMVES4JXcOCYtEi/B3yNMV/NEN9XEwe8fuv4vtE87oW3JDapKySLID5RoZWVDRn70iM8dabJKT7RMe/Xn+HimLBCtZKZfI8xX+4TcVZ+n22B+52D7hjL4lt/1wkhbJdZhcIVVj/EXVR/70FrGPg3GyfcKVCLfkBpO0SK7bs/o3yBR9HMxtsUP40MH2CWf0LbmhTchaJNXaLG+8XCJ//sOxY3CyfcKVCLfkziRtkVSPyOXxTqyfv0xfYi2MHYTePlGlrpkZ0bfkxpeRt0gmfbxUs1nxWtCfMu0ZOwon2ydciXBL7gMSF8nUWy6O/jFb6KW/VX5U7DBcbJ9wRt+SG1VA5iKJxsptB/G/Gaf/6DwmdhxOtk+4EuGWXFdSF0n0q1way2O3sVBfYvWK3YiL7RPOBHVLDsiYCPd+jovfyhOykd6x23CyfcKjafmU5EXyXCQXxqIMtPJ5ykFZdLF9wpmTZDA/F5K9SJp5Fzi4H54XZW/qF7HbcLJ9whV9azF1AumLpNlHLovvMtLOAhcn7rnYPuGMPnVtcpr8RbLM3d7RfZ/0DNnQSbEbcbJ9wpUIt+Qqk8BIllXONi99q0/cax67Eb194nE7c6P3x91MAiNRInzd8tsMNRXhEzYfx27EyfYJV27RwWwghZEk9zn4fvHv5rs4ca+ng+0TzhwjgzmaFEaC1H1GLokBGWusVDf2YexGnGyfcOVHHczOJDGS4yC5IM7N4Hc6n3Vx4p7ePtHHzvzcKoPpQRIjMSI8uXs3g80VnJ7lz9j8Rm+fKO5rZoKO0JdYU0ljJMVr+niWjB7n97yDE/ecbJ9wRt+S+5I0RlLo5bAuo+0NHOSgQSfbJ1zpprfbTiGPkQxvytVQq0FmW9S7vuKfuBdh+0R/M1OU7i6DmUYiIxn0U/NTM9zi3K0dnLgXYfvEKWbm6BB9vTidTEYSXCFf/Wj5U6bbHKbPE6sftw0n2ydcKdS35L4ilZEE+uXaFRlvc3gHB88lI2yfOM3MLOmdJ80akssI33T5+ZKiLDz/1x+HiH/iXoTtE2eYmaaSXWQwd5DMCN8lciE8lIVW57g4cW+jPmexkZl52i3rZxoB/ntAn3KQldeEt3Nw4p6T7ROulN4gg9mddEbodOHIzou1Tk7cc7F9wpk99O6TtuQzwjZB/2mWpa8J62/Ixz9xL8L2iffNTFXZnTKYr0lohO3unH1/d5aLE/dcbJ9w5gB9S24OGY2QTRwqF8GT2Wpb3+2Pf+LehHtlI2fbmaytZDB3k9II2Wy5BE7O2hlSo12cuPe1bGPQQDOz9Y0MpkNHchrhKu0il8DT2Wv9UgffkY+wfeIHM9MV4ZbcPSQ1wqX39owsyF7rTk7cc7F9wpn9ZTCdm5DVCFWEDxqcmc3233Zwx79tLQfbJ1yJcEtuI2mNUB2mn6Fl9Rf2FS5O3KvhYPuEM/vKYJpWIq8RqNtzvUtpVwfHTUfYPvGRmRmbp7fb3kdeI0zjcr6v51D9rfJjYzfyimyjcV0zc9ZGBtOlgMxGkPRZLFn/mMEbDl4McrJ9wpUIr37OJ7MRIn15k4HTtoQr9SXWJ7EbeVW28XOhmVnby8F2W8BDb8nUfyr7nbhadmJR7DYibJ9Yb2bWGurrxW/JbYRnjVzGLk6VWevixL12so3L02bmrbaD7baAd/Q+8wdddONaB98PdLJ9wpXm+TKYBWQ3QhPhT4tlLvqhD3HNwIl7evvEzXZm7kEZTIs0+Y3AXOTg5lEUEU7ci3+lF2H7xAYzM1dH35L7nPxGWCLsQDzKTU/0dvviOrEb2TJH31XNioccbLcFvPK1N0lfOEZ2pXbsRiJsn9jZzNwt07fkFpLhCMnc7f35s2J1ysHjSr19ooed2ftMBvMIKY6Q3OPRXsoIJ+7tFbuRcS62T7jyqIvttoA3yprKjO/nrjcRTtw7JXYjevvEfnbm7zEZzGckOcKhT4yq5vD9jggn7rWJ3YiT7ROuLNaXWI+S5QhF6TN+fdQuwol7p8VtI32dbGSanRl8QgazhDRHKPRt7nOdfgYuwol7+8ZuZBt9b3+6mRn8XF8vLiPPEYb0DN/Ovopw4l6juG1E2D6xp505PF4Gs5xERxgu0we4D3fbowgn7r3g4Loyf6aZOXzSxXZbwAc7ymRf57pLnXQNjX3iXoTtE3eEdJVcm0xHCN7Ut7gbuO5ThBP3vondyMt6+8QsM7P4rYvttkDuHSNT/VT3nYpw4l79uG1E2D5xv5lZjHBE21PkOuzTH4dq9pP7XkU4ce/F2I28pK8t25qZx6ddbLcFcu1tP29+7Otgq0WE7RN3mZnHCJvp2pDtsG66/JpSUd9c9GtePbn+XordyIs5P9gsg551sN0WyDF9Sl+O3qm7X3ZsZEHcNiJsn9jfzEwWnC6DeY58h20RzrV71NuevRy7kW9kGx06mpnLjQ622wI5tbtM8tdz1bU7HLyRHeE7YJ3MzOXAQQ622wI5NOI8meOLc9W3Wc1k31bHbuQFvX2iiZnZXOVguy2QQ3q7Uw5P6NtTdq5xSeyKrbdPzDYzm0622wI5M7GzzPAnc9e7mfrEvW1iN/KcZ1+qiGWYg+22QM7Mlgl+ci5PDZ4muzcmdvciHBe0h5n5dLLdFsiRCA/Cu+ayf2v0iXuvxW6kjWyjS4GZGf06pOtF4M92c7DVKZb9HNxii7B9YjczMzpHP0R5ibyHTRG+r/JDbnt4uD5xb1zsRp7y6oP2MW3n++8goKK28f+Rfg/ZxR1jt9GwpWzkIDNz2rZWQNeLwB91l7m9Q667eKQ+DubK2I3Ulm0cXGhmUmuEdL0I/E9l/SbHiJx38mjZyS1jt9Fcb584zMysztK35FaT+zBIn9buwbuyG/Ql1lWxG1ku22iRNjOtX4V0vQhE/2urtQ9fI6kuu9kjdht19PaJbmbmdXTLgK4Xgd/tKvN6Lxt/uKauid3IQ7KN7nYusV51sN0WcGwnuWPAk0MLrpXrr13sNpbp7RNrzczsmpCuF4H/d6nM6gf96Oh6fajxTrEbWeRg+4QzX4Z0vQj8JsLmo2V+9DR9ouzpq7EbeVT/4fmjmbk9PKTrReA3NRzcy86QT/WJe9NjN/KYbOQNO5PbI6TrRSDSNwo+8aWvJSfLvr4Su5FjXWyfcOXIkK4Xgby8u2RG3+xPZz/SJ+41jN3IE7KRt+xM7+shXS8CwzvIjF7qT29Lq8ne1ojdyFJ9VXKcmfndENL1ItBJ5vN1Pj1HulDvcd02diPHy0betjPB1UO6XkTSlTWV+fypT/0tHSX7u13sRk7Q2yf6mpnhyiFdLyLpXrL2Rv8P+lDjtnHbiLB94lc7U6y3237BOoANpTfIbL7Qs0vC8bLHX8dupJ/ePnG9mTleH9L1IpLtYnsf/j5bfwpnTtw2SlbKRi4xM8dhXS8iydJjZC6f7VufJw6VfR4Wu5GuevvET2Zm+dOQrheRZJfJVO4w3LtOv687HftQ4wjbJ34xM8sRttt+zFqAATvKTD7Lv04P3172+p7YjQxwsX3ClY9Cul5EculNhfVu9LDb6xycmBHhnMYtzMxzhOvFD1kN8N4bMo/b+NjtEfrEvY2xGznTZjH/ex+EdL2IpNLfHml2ipcdP0Ouv6axn20OHCQbOcfMTBfo7bbvsB7guXYyi/f0s+MN9Acm7ovdyGDZxpCaZqb6h5CuF5FM0+X3c4vqeNr1D+X661IQt40mevvEe2bmOsJ223WsCHhNHwL1pa9db6VP3Jsfu5H3LO75+CfvhnS9iCR6QC/6R73tfH8Hr0BG2D4x2MxsR9hu+z5rAh6738FBylkT4Tv0e8du5BzZxtAmZqZbXy9Wrc+igLci7A1Y7HH3V8jeTyp0MERnmpnvCNeL77Iq4K39Zf5e7vMBUDfpE/cWxG5kCwfbJ5zR220HDWRZwNd7Gp1l/p7gdQB9ZP9bxC64EbZPDAjpkvoH1gU8dYDM3pP9PsR8ij5x77bYjfwi2xhVYGbK35HBjC9jYcBLBXfK7P3I8xCWyAgejt1GhO0TT5uZ8wjXix+wMuCll2XujvT90mGZvsRaGLuRS2QbVeqamfSgrheRJCWNA7if8ZmM4bHYbYzW2yf6mZn1CNeLH7E24KHvHXygJet66eNgdordyK8Otk8487EMpnEJiwPeSU+WmbuDgTAekVHcFbuNsXr7xJNm5j3C9eL3rA54Rx9Vd6+FF8sWyzBOjN/I27KRyWkzE6+vF38uZHnAN/ow4H1NxPGECqN4Yuw2ImyfWGpm4iNcL65necAzV+nvT55mIpDPZSBT4jfylmzkOztTr68XL0+zQOCXXWXW7mUkkttVIG/Gb+NQfW9/sZmpj3C9WJkFAmNJmz/TSCjfqEjWZqCRYxxsn3BGXy/ezAqBV16VOTvNSCSFu7j4oteP+hLrEzOTH+F68U2WCDwS4VNSy4yE8qSMJCNnwVwtm/nMzvTrk5JeZ43AIzVkxvawEsrN8pt0GWnmCH1VMtXM9Ee4XtyZRQJvzLsgmIQ9SkbSJzMN9ZQNPWQnAa4O5xcWEuAuma/VrYTS28Fnkv+tm2yoaJmZBFirL7GuYZnAEx2HBLMPco182tk5Q98DTXeXg7bcTgpca/e0JCSO3AiQus7KzsFXZCj7Z6qpQ2RTxXXMpMBr+npxJxYKvDBwK5mtnxoJ5TT5sZTWDTLVVuEMOWy1zeRAhOvFV1kp8ML5Ds7zc0TfjKuRucYOko3lNzeTBIfpYKazVOCB0htkrl5oJJT68tiq4gyWkBK5RTX1lJksKBwjg3mFtQIPXCwz9Vwr51bpUzTezmRzB8rmmp1iJg1W62AasliQ+7sX+lfri1auFUfJUB7NaHv62rSNmTyIcL1Yg9WCnFsv87TD8GCuFW/NbIN7yAZrnWYmEfQZJK23Zbkg13aUefqClWvFFjKUzzPbYpk+GO05M4kQ4XpxO5YLcuxYmaX1GhkJRX/k+eBMf+t3tmyyfSMzqfCSvl5sy4JBbm0ps/R+K6E8JkPpmukmJ24VzPVppOvFfVgwyKmp4TzoukaG0jTzp653ko0O6WgmGV6UwZw3hyWDXPpS5uhXVkLpI0M5O/ONzt1atvqNmWSIcL04jCWDHLpJnphSZOV9uIb58piybFzr7C/XeNX6ZtJBv1TaoSOLBrnzlczQdlZC+SU3D+wm3BvMNrZ/XS/KNwVSq1g0yJkH5LvCmd1pmUUj2subcbOy0rB+fdHMiwJ5eS/IYDo3YdkgV+6X+bmllVCGyVD2zE7D8+rJll8ykxAj9PXi8ywb5Co9z5PpeayRUAYOdXF+agWr/sgCMynxnH7UWomFA1//ALjWSij6JZmsfZS8bS3Z9stmUiLC1/2fZeEgJ+rrR/LrjYRSUkWGcmXWGr8jnO+J5eW1kcF0KWDpIBf0PsGMv8qSLfrzc8dnr/FZzWTrq80kRYTnME+zdJADBfpNjIutxPKdDOWQLLa+p2y9cYmZtHhKBlOlLosH7l0YzsX/m7n9o2ym3LOa2sZMWkQ4BPxbFg/c3/bZJZzH8T1yfKd4mmx/TKGZxFghg5lUyPKBa5/qPYITjYTStyjHoayRbzilLjOTGPp1rdSTLB+4dnk4b+3WlqG8l+Ue7Cd7cHnaTGYsl8FMTrN+4NZSmZX31jQSyrbywVbWv0F4uLzGS40zkxp19CXWUhYQ3Kouk3JfK6GcIUP5MOt90HfRdrSTG0tkMN+xgODUkfrEASvHJ8ztII8AnenBeKbeNJMcy/T14mKWEFzSVwR3WAllsAxluYNevB7Oe+R5eY/LYB5jCcGhKfJ3qJlT1iPsfz3UQTc26Eusq8ykx6M6mE9YRHBHbxx61Uoo82UoRzvph74p2MNOfjwig1nEIoIzEXYzH24klPTPMpTKTjqiDxlLXWMmQRbqYKayjODKXjIdd7USSjcZygxHm4auDedz03l5PWUwD7GM4EgD/QWnna3Eov8SW+2oJ+tlT4p2MpMin+tgprCQ4Ib+rOTVVkK5RYZyeoGrP05PDOfGYF7e7TKYB1lIcGJ4B09u+2SAPldxtrO+fC/7kj/dTJIskMEU12EpwYUdZC5eZ+VdsebyLZIhw511puRkObCvmEmS9AwZTG2WEhwYqM/3/d5KLPrrxF877M1HsjfNGppJk7319WJzFhOy7/xwPkF+ozwywekLRqXV5NDWMJMmJStlMHuxmJD9VXVDOIe86GN/LnHaH/0R19bbmkkUvSO32SksJ+T+75amZVb+uO0sn727vTFcOkoO7nZ2frM9I4O5n+WELEuPkWl4gJVYfpCh9PauR7XamkmV+3Qwp7GgkF0nyCzsMNxIKCX6lpHrV3TLxnv1FCCeCK+V78uCQnbdLJNwfyuh9PPw4OqzZZ/azzGTK7N1MI1YUcimxTIH65nJwe4ylhOc92niUNmpYWaSZeKgcH67wSb9nbndrYSivyhQrcR9r97Xf3J3NJMt94QUDAyaGtCj6mNkLBfmoFfDt5fdWmUmXeZuLYPpxKJC9uhX776yEor+aOqgSrno1zp93mMTM/lytw6mPqsK2aLPyCwy80brpZ6eqzinvezYRjMJM+FevTX35dguXn/cQBYnytsznG/MtWomnx7k6HGcPnVsfJmZjPk65UZ+9dkjWJ/4yyKXJ46mjrQSy+7ebsNuqz+PeJ+ZlJlXL+VKrS0msETxR21k0rxhJZSa58nf2aNz1bcP5TB3KTCTM7un3NmqG2sU/zNC313ZYCWWTh5/3TPChex8M0kT4Xoxc4qGsUrxX2d5uDO8ggr0KzDLcte7/rJzjeuayZo7Ui69wDLFf9TXm2ousxLLy17/cTtan6K2t5m0adjMacXqykLF/9OvuR1caCSU9CQZyxG57N8K2b1JhWby5iunBav99axU/PuvKP3u/WorsegTtXL7VXq93y21wEzizMx3WrE+Y6niNx8E9OxKH/P5bW472Ed2cHLaTOZMc1qwUj+yVpGXV9JYZspLVmLZWYYysjS3PdTvDaVuM5M6a4qdFqy3WazIy/tUvxU20UosS2QsZ+a6i71lFx+2kzv7OS1YrXk7EXl5l4fz3v10+Rt/65y/XqxPpE4tNJM7x7n9m5Dto8hbKtPk3ppWYvlYxrIu9518XHayp53s6eG0YLF7FHnVZZrcZSWUeXLvdWsPDnr4RC/Mo8xkTy+nBWsayzXx9PJpbeYAlH1kLE/50M1HZDcft5M/R7ssWItYr4mnr+nNHElcX37Ss2isD/3UX89PHWomfza4LFiPsF6TTj9lz59pJZaNMuH386OjerNYbzsZVJ2CBXcelElyqZVQIhyu3MuPnn6ul+ZxZjKoMgULzjSUL+MWHW4lloNkvj/hS1dvl13tYyeHjqdgwZWnZI68ZSaWyTKW13zp6gLZ1eK+Zsb9BAoWHGmgv8F2lZVYxslQTvbmOwjpGbKzJ5lJovSJFCy48ZxMkavNxKIPgj3Qn85+Kzvb0syzjgjvdlGwkAk19VFNla3Eoh93nuvRiTQlK+XI9zeTRoW3U7Dgwg4yQ1qY+dSJftzp1bHKT+v9urPM5NFRxRQsZN/ArWSGbGMlFv24s71Xp9uV3iDH/kM7mfQ1BQvZ94NMkGpmTkQ4Vcbyjl8dfjagV6LyStpRsODBL/ndrMQyQR5G2Myzv7DK7rRWYjcZzZcULGRZV5kfTc0cnP6+jGWFb11+Xp+60MhOMpW8kE/BQjYV/izzY7aZX/BNZSxX+NbnifoO4jpL+XTkzRQsZNGTMj2qmvki7QAZi4cnrqySnR5S01JCpdfudwEFC9miXwG728zfI7vIWI71r9dz9fG17xvLqUqLN+5+SZ8YbqVg4e8tlKulnplbKPrVPC/3kw0L6BrXTVZSsJJLv8myu5lY9N2T733s9gT9osHZFCwKFv5lqlwrzU6xEsuPMpZn/NxPpvdbDhpIwaJgIcqBcq+YiWVXGYunB8HOkbvHUj9QsChYyLtJvv1VvCacWKo28bTr28mCNb4sUXlJwcLfqi1Xip1jwb+y+7izrf4e2YUULApW4rVqLRfKNVZi2VbGUquBt52vIedhVAEFi4KVdPpV4WPMxLKvjOUifzs/S//m+IiCRcFKuBHt5TJ500osc+VhhMXNPe7+K3ImGpdQsChYybZOrpKHzcTyoozlC5+7P7qlzT1kFCx4dFHiz/kySmkXGcuRXgfwquz/z4XJSU0KFsp7V66Rg82skY+svzA7Vn9eeD0Fi4KVYAXj5RJZbSWWCOdlLfU8BP2xzsvTiclNChbK+UCukC4FVmJZav9i8Qp53I+do4soWMi4ksZygexhJphHAtgV0EPGcDMFi4KVWP0CeuNWv8J9p/8Xi4fqD9dtoGBRsBIqfblcHveYCeaLIL7PsqWM4mgKFgUroT7XH+btaCWWhvLgg3stxHKlvsTamYJFwUqmJ+Ti+NpMLBfJWPY1EcfVMo4eFCwKViIdpc/vbGsllkbyzINmrUwEMk5fYk2lYFGwkmiR5VeF/+JuGctXRiK5VkayHwWLgpVAU+Smn/yZVmIZOFTFUtTXSCivyYJVNIWCRcFKnuVyZfxqJpaXZCy7WgklfZ2MZRoFi4KVOPqxWtHhVmIpqSIX+Y9mJmYbGUv+dAoWBStpnpLr4q2A1vi1diamcIyMZk8KFgUrYRroT4hfZSaY72QsCwxNzepUODcXKVjIjDPkqrjVTCwbZCzVSgxNTckuMp47KFgUrESJcNLwODPB6P0ZA0xNzsv6ZNtZFCwWcZK8L9dECzNfXtpJ7s/oPNHU5JTeIGfnfgoWizhBBm4ll8RhZoJZIWN539j06F0atdoGn6MULPzXmXJFVDFz1+cBeTxWvTnGpqfsTjk/d1GwkBilo+SCONBMMO/IWE41N0H6/J/2c0JPUgoWfve0XA9Ny6zEMreD3AQw2twETdR/su9PwUJCFP4sl8NsM8GskrE8aHCKvpFRdegYeJZSsPAfC+RqqFrfSiwRzv051OAURTgvshMFC8lwvFwMd5uJ5UAZy+sm5+gFGVfnJhQsJMFCuRbqNbISS1r/dTvO5CSNuDegP9spWIjhaLkUtjMTi/561IlGjx59TkZ2biUKFsJ3S0gvfujP0h9kdJrmyY8+GzozkoKFCntILoRLAiq+IwuszlObgE7lpmChosYWq3VQvMZMMF/KRb3R7ETpHfyGdvdSsFBB+s27L8zEcr0svkOG250p/YnFanUpWAhbq2ZyGVxjJpi9ZCz7GJ6qhi2DvUFHwUJEH8pF8LiZWG6U96Vbn2Z5rmrLuTq4kIKFkOk1nnrTTDBnyVg+Nj1ZzeU5IalDKFgI2Tq5BB42E8vEzvLcnzW2Z0ufxNYiHWyqUrAQ5RW118wEoz/qtcT4dNWRDxVS3ShYCNe7cgFMMnNXpK7+kPDO1udL75nrHuwlFgULET5tYOe507cB/XX7T5bJz9Wn1lKwEKoBevN0qZlgLpfBrLc/Y5/JIHekYCFQJY1l+t9nJpgjZCwrA3jm/6iMMvUjBQth0n9EDbLzAYA3ZDAvhzBnj8kw36BgIUjpE2XyrzITzJSigIrvJhyrL7GuomAhRLfJ1B9i5zvhryblE8L6AzpvUbAQIp36dt68069Eth8Rxqwt1ZdYx1GwEJ4fQzpO+H4ZzO6hzJv+Av/bFCyEZ5FM/F/MxFLzPHkYYcNQ5u0EOW9FfSlYCI2+S50/00ww+ti+S4OZuAjPSn6lYCE0ywNK+4KmMphl4cxcPxls/vUULIRltPxUSdFOZoK5UC7hYwKaupKVAX2Fn4KFSPrLpO9tJpbCSTKYhSHNXVd9ztFPFCyEpEGtgPYf6tvQ1wX1DYPSagE9L6FgIYJ3ZMobSoAdZTD9wpo9/dJ6620pWAjHBH3wuZ3PlHwS0jcnIik4XYa8BQUL4XgvpG/t9pbB/BDa/OmPq9a7kYKFUEwcGtBpBtPld4O3bhLaBA4cJCfwHAoWQvG8TPcqJWaCuUQGc1Z4MzhYv7hek4KFMJSOCujQ83nyeWfrtuFNYRN9jfweBQthmC+T/fQCM8F8LYPZK8Q51HchOwynYCEEhT/LZN9oJpj68qCy4rEhTuJwfUDbYAoWQrBApnrV+maCmS2D+TLMWTxHBj40rGcNFKyk0h9UGmYmlgi343qFOYsj5Bd1UmdSsGCfPl6m/RwzwayWwVQPdR63kKE3rRRSvBSshNLnrhjaJT05uWe3N7hAxj6AggXrbtGv+s8yE0xlGczJhcHO5C8y+FEFFCwYt0Sm+cd2gjlaBjM/3Jls1VpG35WCBdvGFge0DeAauWLPLQt4LvUe/yp1KVgw7SSZ5H3sBLM8aXuR/mx0yyR9V4eClUSz5Pl9hk61aygX7L0dg57NX+VkTgrnFh4FK4k+lCn+eEjBnJH0v+9TJ1CwYNeN+lH4lWaCmdA+oOedFfO2nM7JwXwcmoKVQPp9joftBKPf/10R+nzqwyVTSylYsGqufmPWzj7LgVvJYK4IfkbfkmPwHQULVg0O6SbtszKYReHP6KFyEFKLKViwqWy8zO69zQRT0lgGsyEBc/qGHIXHKFiwSV+TjLJzvMwhMpjbkzCnP+pLrE8oWLCopIrM7WftRHOzDGabRMzq1XIcPqNgwaK9ZWoPsvM9kitlMNXqJmJW1+pLrKkULNiTnhHSiyw9ZDB7JGRee8qReIiCBXu66ZOh7LzIMlZuQKo6kXn9j6JlFCwE+Jt4HzvB7BnQZ57jXjl3l2OxnIIFa/TjpFp2zu/bVn4Kqta8xMysfl5aXIeCBWM+k2n9i51gngspmLgK9c3J2hQs2KLfOssfbSaYuR1kMDMTNLcHyYKV35yCBVP6yKQ+yU4wZ4f0FcL4SnaR4/EUBQuWjM6Xj5L6mgmmtItcoEcmanYP1AeLnELBgiEfy5ReYieYrol5fy5qBb9BjkgbChbs0E/VDB2QnB4jg6mcsPndQz8CPo2CBTO2COma5HMZzMGFCZvfsjvlmDxHwYIVE86T+XyEnWhulcF8lLgZni3HpH0jChaMGCbTuYWdT39PlcGcXpC4GZ6oP7/6AgULRrJ5qMzmQ+xEow9eeDGBc9wppDdFKVjJ9rw+IbjETDAN5QaNIcMTOMdzt5aT/A0FCxaUjpK5PN9ONDVkMHclcpb3l+NStT4FCwbMD+mmjz5ZsVmrRM7yhHsD/1OZgpUQhStlJj8f0oXEKwmd57vkyJxbyXJ8FKyE0F8fqdrETDAD5fODojoJned59eREv0TBgvdul3n8np1gXpLBvJXYib5fjs3IAsPhUbCSQR9S0H6OmWAiHPxzVGJn+gH9/tXLFCx47hGZxe/YCeZ7Gcy1CZ7qO4I+SYiClQj6LPNms0L68/bJBM/1rGZyeFZTsOC13jKH+9sJ5lh9CVGS5MnWR3M0tjs+FKwkGFssDyi43k40+rv0HyR6tmfKtwAMH4dNwUqCk0L6mPBO8rv0gyole7qnyekeY/bLOxSsBGjYUmbwcSFV3x0SPt9r5AV16jUKFrz1i8zfz+wE84C8p1xvTtInfD854ZenjYZGwQqffvEu9aOdaPRnU9skfsYPl381p8ZRsOCpfWT2fmcnmJry7V5DJytmTQ855TtSsOCnudvL7L3NTjT3yGCmMeV5R8pRSr1JwYKXVsncnWTnmVHBeBnNLUx5Xt7Rcpi2pGDBR2V6iX9rJ5rdQl2IGbZBX2JdRcGCh+4L6dWy9CQZzVqm/DfV5UD1oGDBPxG+bDDATjSXyWBOTDPnv6msL7GuoWDBOwfJvLW0L7ynjGZvpvz/XSuHqh0FC979DTVD5u1gO9HcEvbH6TJqvRyrop0oWPBMt6AOqtM7uJ9nyn//VXWiHKxXKVgw9zfUOXaCuV6+I9dhOFP+O/2Zw/zpFCx45UqZtLXa2onmqZCqb9aVnBzi0UIUrKA9LnP2QzvB3FhLBdO6LVP+Px/pz8w2pGDBI1fIl2Bb/mQnmnUhfTbVgdJqcsBqULDgkS9kxq6wE8zEzvKx1xqm/I8ulNPfelsKFrwxWn4rt6ivnWiel8vvIab8z5dYo+SQbUfBgjcuCWmJ170h0LfjsuiHoJ65ULACF+FIzV52otlbBvMwU/4XEV58/5qCBU9sJ7P1aEPRXC6juYwp/6uzQzrwm4IVtgnnyWw9wk40a2UwKwuZ87+aOFQO2zAKFrwwTObqZENfNthSRrMbU17e+3LYOnQ0FRAFK8G/XBfYiWYKhxFWyHD9fexVFCx4YKPM1ColdqLRZ4Pew5T/Hb3btnMTChZyLsIenKftRPOTPAq2/Qjm/O+M0HcyN1KwkHMH6u/KPHqcGXpH2e5M+d87Qw5d00oULORYycpUorQ8hTn/ew30MbrPUrCQY4clq16lfmXK/8mp+i7WG3Z0p2AF6faEFazDmfJ/0qp1gvKAgmXTuITVq8eZ8n/Wn4IFz92asIK1mCn/Zw1bUrDgtUMTVq9acBjhppxEwYLXeiesYH3KlG/KTcUULHhsbHGy6tUzdZnzTepDwQJ/AnjjB6Z80/SbmBQs5Eyj1smqV1WbMOfcI6BgmXV+wi6wzmLKlWVFFCz4alGy6lWteUy59DgFC76qmqyCdQczrvWiYMFTDZJVr4qvZ8ojuJWCBT/VSVbBaseMR7GQggU/HZ6sgvUoMx5JTwoWvNQ8UfXqaiY8ms8pWPDSxETtc+/GhEeUiC8O9WCe7WmcoHo1icMIo3oyCfnAhxwNeipBBetppjuq9IwE5MM3zLM9S5NTr8YXMN2RfZuAhFjLNNtTckNiCta7zPZm5EX49wrqcZquRQOSUq8G1WeyN8P84BPiKybZorozElKwDmSuN0dptcDzoeg4JtmkOrUSUa8W8WXkzfN94AnxIFNsNTOTsBfr5wlM9OZJ7xp0Qmw/iym26oP88OvVA0zz5mowMuCEKGYTsWHdQv/IzCKuryqgb7hpUXQf02vZA+1CLldDB3D/qkLGhrrnpdlHTK5xR05rHWhyVhs8nOmtoAlfBJkSK6cytfbVX7/Pkuq3h+WNrzZewdVVHEeE9xr0oNkFzCsQ6rX3/ScHdCrFVg9+T7kCgtZkypWLgzC1AZMJAAAAAAAAAAAAAAAAAAAAAAAAAAAAAAAAAAAAAAAAAAAAAAAAAAAAAAAAAAAAAAAAAAAAAAAAAAAAAAAAAAAAAAAAAAAAAAAAAAAAAAAAAAAAAAAAAAAAAAAAAAAAAAAAAAAAAAAAAAAAAAAAAAAAAAAAAAAAAAAAAAAAAAAAAAAAAAAAAAAAAAAAAAAAAAAAAAAAAAAAAAAAAAAAAAAAAAAAAAAAAAAAAAAAAAAAAAAAAAAAAAAAAAAAAAAAAAAAAAAAAAAAAAAAAAAAAAAAAAAAAAAAAAAAAAAAAAAAAAAAAAAAAAAAAAAAAAAAAAAAAAAAAAAAAAAAAAAAAAAAAAAAAAAAAAAAAAAAAAAAAAAAAAAAAAAAAAAAAAAAAAAAAAAAAAAAAAAAAAAAAAAAAAAAAAAAAAAAAAAAAAAAAAAAAAAAAAAAAAAAAAAAAAAAAAAAAAAAAAAAAAAAJMP/AQfM6fNgx0/TAAAAJXRFWHRkYXRlOmNyZWF0ZQAyMDIxLTExLTExVDE0OjQzOjA0KzAwOjAwcuiEjAAAACV0RVh0ZGF0ZTptb2RpZnkAMjAyMS0xMS0xMVQxNDo0MzowNCswMDowMAO1PDAAAAAASUVORK5CYII=;" vertex="1" parent="1">
          <mxGeometry x="960" y="385" width="80" height="80" as="geometry" />
        </mxCell>
        <mxCell id="8tucULJYZbGx7OZ7GhKJ-13" value="" style="endArrow=classic;startArrow=classic;html=1;rounded=0;exitX=1;exitY=0.5;exitDx=0;exitDy=0;entryX=0;entryY=0.5;entryDx=0;entryDy=0;" edge="1" parent="1" target="8tucULJYZbGx7OZ7GhKJ-11">
          <mxGeometry width="50" height="50" relative="1" as="geometry">
            <mxPoint x="519.5900000000001" y="425" as="sourcePoint" />
            <mxPoint x="560" y="430" as="targetPoint" />
            <Array as="points">
              <mxPoint x="590" y="425" />
              <mxPoint x="590" y="500" />
            </Array>
          </mxGeometry>
        </mxCell>
        <mxCell id="8tucULJYZbGx7OZ7GhKJ-14" value="API Gateway" style="text;strokeColor=none;fillColor=none;html=1;fontSize=24;fontStyle=1;verticalAlign=middle;align=center;" vertex="1" parent="1">
          <mxGeometry x="70" y="330" width="100" height="40" as="geometry" />
        </mxCell>
        <mxCell id="8tucULJYZbGx7OZ7GhKJ-15" value="Postgres Storage" style="text;strokeColor=none;fillColor=none;html=1;fontSize=24;fontStyle=1;verticalAlign=middle;align=center;" vertex="1" parent="1">
          <mxGeometry x="429.59000000000003" y="330" width="100" height="40" as="geometry" />
        </mxCell>
        <mxCell id="8tucULJYZbGx7OZ7GhKJ-16" value="Eventbridge Scheduler" style="text;strokeColor=none;fillColor=none;html=1;fontSize=24;fontStyle=1;verticalAlign=middle;align=center;" vertex="1" parent="1">
          <mxGeometry x="640" y="250" width="100" height="40" as="geometry" />
        </mxCell>
        <mxCell id="8tucULJYZbGx7OZ7GhKJ-17" value="Schedulers" style="text;strokeColor=none;fillColor=none;html=1;fontSize=24;fontStyle=1;verticalAlign=middle;align=center;" vertex="1" parent="1">
          <mxGeometry x="640" y="560" width="100" height="40" as="geometry" />
        </mxCell>
        <mxCell id="8tucULJYZbGx7OZ7GhKJ-18" value="Executor" style="text;strokeColor=none;fillColor=none;html=1;fontSize=24;fontStyle=1;verticalAlign=middle;align=center;" vertex="1" parent="1">
          <mxGeometry x="950" y="330" width="100" height="40" as="geometry" />
        </mxCell>
        <mxCell id="8tucULJYZbGx7OZ7GhKJ-19" value="Event Queue" style="text;strokeColor=none;fillColor=none;html=1;fontSize=24;fontStyle=1;verticalAlign=middle;align=center;" vertex="1" parent="1">
          <mxGeometry x="790" y="330" width="100" height="40" as="geometry" />
        </mxCell>
        <mxCell id="8tucULJYZbGx7OZ7GhKJ-20" value="CRUD Lambdas" style="text;strokeColor=none;fillColor=none;html=1;fontSize=24;fontStyle=1;verticalAlign=middle;align=center;" vertex="1" parent="1">
          <mxGeometry x="230" y="480" width="100" height="40" as="geometry" />
        </mxCell>
        <mxCell id="8tucULJYZbGx7OZ7GhKJ-21" value="" style="shape=image;verticalLabelPosition=bottom;labelBackgroundColor=default;verticalAlign=top;aspect=fixed;imageAspect=0;image=data:image/png,iVBORw0KGgoAAAANSUhEUgAAAIAAAACECAMAAABvcdPvAAAAmVBMVEX///8zZ5EAAAAvZZAsY48gXosdXIoXWon09vgAU4Xw8PD4+Pje3t719fUmYY37+/vl6u+7u7vOzs7l5eVsbGyenp7c4+l5eXnY2NgODg5ReZ3F0NvHx8c2NjZUVFRLS0uYrcGrq6uFhYVcgaIpKSmVlZWNjY0gICAXFxeywdBEcZhwj6w9PT1gYGB+mbOMpLumt8kASX8AQntd5fiJAAAOGklEQVR4nL1bCbequg4GmVERRXHAWbcDOJ33/3/ca5KCDG3xnLW9WXetfa5CmyZfxkZN+3WKRsPdfrxZXTqd+fm2nv4Ml71/WKbrR73ebNbrRX5f8kg/6i13k9P+9DPZLWe9qK/5s919de406LIaD/+GCX+5H6/hBEDn1WY8nSz9Qe2Z4XRd3eq4Gd+ae7/pvvM/2r33sxG+fx5PRsVDw7tqq07ndt8zsex2k/10PX9/PJ217T4YKg/R2ezYEv7kvSaTz2ZzO76fWO93s5qwtNlkusq/Hgn3zWnJt59v7qfdqBcxmi2Hk/H6Vkh7vjnxxW7j3Szy/X6/7/tRtJzcb0zTUVe8st878bWnkXR7f8yVNWycodtbTtZlUVx+Gs9oA7WOB0taYb6TPDDCr4+TxsIFzSacxc1QuVWYXF/PRwb03F6TsPiiR++vhXY1QZXu3iJ03ZCR71ae6g7Hl3OxvRvHCVAch2+23aftWFYQmIyCwLIs0zhc4/yUiPCzAIwn+GLs5wu/HofFIgVaHLLnNXbfG0SkxEG4zRa67QDZRnrIXnHOa/gIDP1Nhm465uFF33bxoJ2GCPFjrpzkoXu2aRi4CPtjWo7nHB7XsPzC6wDPFHuwp2xPfyT82zi19QoZhmM9iYXRRcDBED4jC0kML9CbZASWZz0SLqKr5xiCh0zHe3Jhv2yzsYLHWViXTkvUK3iKD7ZoZU6Wl7Q9ZJkZsRAvrOaXKYloWpcB+LUJHt8Unb4g+4oP6aqHmKi2iGQ3s5tf2s83B2+ftAP84dKeanvd2ZL4lQ8Bnzod9OkIvlu4BQeFSwLHAkwnghdKFGSf7c8O6jzQal6CBU09znGwKVkAQCI2FOqHVQGBiVJHBdkHtJmriIMUOBgcCxgMmJ+fwz8W6rXtFyhWzeSbAtxG24o4MEAL4Hg3CJYlF4CI2xIZKTycfSYAeN6Rc7AABY1zHLJ/rJhwB6n6bHbSjpIqOQjFR9MWdLSFGWNgz/5GTBnTdgswDoxrt4XJ2isGyED8DkOIz8L6jWsAJJHVPZfgOCJUqzjQAbah4GTOlUR/9NEiz+xP2LJWCgL4q+11MDk0haYSgodG8Y+FxRs5oRbtWlvxSi1kPcTIRUSD/1tqPoPACbDS9NxlcsCs/woB/D2QtUi6GkXAIWIR/IGudkKpRJmtZIZi7HBPMEQ2InAwymXQCW0/9gElCg6aUHYFA6AIcMNqGwiYQQ0Wf68BPfcfDfRw+xtqP8RAooSAkTLn6f+LBsAboJuvM19ggFnhCgCuZMDM2l21lJyXyMi4FQzBG6xbGUAItHgqOYH4avozDzwKLyEZugNOlQxAXOke/gkCOjfFqiGgI9qjI1qTH1IyYARhq6tUvQ7Bz63AEP0a0/4l+owBSKMKLRqG8WFSgAk9oz/XugYhsnSZ8I/9jxggDMIRDMvRF4fDYaE7rYgwnDTbJnEYxklc9+N2XETDTzCAGntauhWkzwSLJDdODi2BwdKvlaouLltxynQadXDrMeWGSitAjWWOkxcdREmgEoK31arklhhAVIAj/EEontscEZYDi1e9bA4Vwcm75vuyAhclUY4kqFOywtwTxio/j8kIl+fAj5PrlerQOJBxgErT3OSRpjpUuIMqA+hXoBrqkT9k5XqoArZXiN59ZTrg2kthCW0rkZuBMTBO/1jZY+EwONYwAAt2WSJy8ykiQLWuMqycgeTgWYZhH7bbh/EHzjiQhAcUQOgt8L2rZQR1Z8wEOJuT/cFfSMoXCkQRA/ECC16SLosMoJeHWHP4XeYQDraWsaiaIUJgSBjEjAiS46cCBF6IZkgsWhzej0xqPJgOhyz9D9FYiOdSNmG9yA+i6POcUBXrQAJu/r5hY9E1OKBihdAxwMyZzgP9+cpYJY+Ye5iV9aAg7aBd3akuiRV+BSX6/l8rcQfxIkC5CJ9H142gC1BskJMMSrHM0qgswYoczTECo25hoGT0QZoyJ0TeQSwBv4x61EgppbeefFtsSaBDGlU5rBNu1fA6wVOOQoieb5GCRkpuwEq4F6BeWY+jUbIUMvASnVWRJkGseZdkmNCV3EDKauJ+hxwgo/6G50RyECBqD42mUyVIV4jM0CweHJQfxD7HjlemQCwc3frKrB8tr8EAClqMXdRy4SbRDbwZQO7GFAiQWDSYz5SFn4QBW5onYR1TCJ38UJHPgEKiM9legcKhpko6JQx4saz4Nkyw9LzYqqoAsQtucJoHmC7/H3nhQyBsMACydMXVCqIm14Gx6JYYQC+0qXTpNjwlkPpCR2zxTiK1XpR6nIMA3EIOMfymdyHccTpRRNb+KBloyho+lrkPdJOF0OJ3XYWymZRsQMtLJEX1XXPFnzCAms4rwqDkCR2Xx4HSxUnEXZEsvUC1DcR8ycsV9w0QfJD+jU5gVGpSIs3JFUnzQk+cMqEVyEpmVBu3PeddFwQgzGm9WT4lEEg9AQZeU8iANDFFsLkU4dCM0dXjpz5cHFUut4bcLUnEiW6lKR7DCFXtXQQOiYDqiiD/8FSFIFjFmTzBSxwOsJRthgqK+lLbxcNqQbEAlD74ClREndqlEcSjrnQ1DHtN5t4Fm0IE+BqKEJ7EVsGQKqIK7SlFlyBKwgA1DeRBnJrLgJGCARs+OVa8INGIw1KcE0iOKk/JchEA+MG/5gxYuQA29SLLP3NDFOqAwmkdhORtlZc3eDnCghg+CiJ0Sd2d5t0pb9t2xTmB0AzxOC2NFRABZMcgwm2ANz6jdypUpp0yJGMAq39ouznIFTLwUa/2Fv9gr2gtFACmaFMpqBFuz+phsQvc0uKnzCh0KGxiwQyV4FF0dXwjwbhCECAK4woDBgSY9saZByLIwGO5NpTIg02RjdeIF+viPF+3APAVi0OewtbOIfrABJ5N/pdwE1gJb/l73D2KdYDyDsu3tVSaqjvs+BywDmjJ0DEK762JVqQbWYEE65RqAMwsVcVUwTrdlLJgGnM538T743fymxu6s3y8c/un9lnvFiMWQBhk2FcIAHWANycSV4C1/tbjWvA+vr+gdn2IV4XTeiJSIWagx0h6MWbY1O0wUe2U9392gYM23AXIoA/CMOj3RsvlqDbNsuMeQpKYYc0PwxG6bX7iBd/k5IMPYILjaLnb3284B3ScVuzB5wBxJcmxybUZvjLrD9brH16gGGm3QFmNzpX5rmkOQ0nf51WVmHvIdOEYRYNzDy0hau7PMrOyDEbcFYhzU5odqKrNTT6QgpXRhE1055NMx819P4x8H6emfsrrwXAJSEsEQ7oAHF3G1Vyqm7UBgY9MoJJnI0azKA8FoPRVHYbgpwVZgYXGhKMm5/1k+E5o2m6yyIFIaFyLzP0jZQXNQtg6dCtaxMr+moBty7NSJDSBcGs8wure2Oq911ODE7fEujMy0QT9YmYO4/nTcQ7o5FUR0QDJhaljWHp2jUPXdf0wTK7Zw+UHqqhAi5h5rvpNEeAx+sUwGxb2MJiA+lU2+tFlb9FjmY4TpGmqB573ZwuwHIAATlXB7DkKKu0aPgpRjDDiOxQHvDYdNFt5RuDRoNEAB9tqg56Ayw6goOwOaXgI525ghhAxzHcFBpRJAb4bGNArgf9M20kf1Pn2cartR6vRKZfwoTBwcgDMjcFgKvcbIXVfMNC0S+CR6mbActo0PbxiDsblsVBmhaBdg+4wzBs8FtrRsHNbvp9KdMSIqbeaAY2RDMIYRv7eV0h9kme9PqKduCnG1By30QEsS7y6yYEQEqR+SRsSBmLBHtFPCUwNGuechQsnCGgiKpqvqJRx42uW8rsq+0AnUjLgubXlu9HwTvPCx6UmJDBFKp67zFxJgitMVQavQ2rz60LDCra8vFLOfgBKe5NZv8uo31tOxoUtj4Wpaa6ECjoHvJerxU/d8xzbth1P3xaeTcmAlS9Yo7tqwBg1NC6Kh96qcL6og9frmvAvfcivmrMJb8KisJEHHBWTvUgI0dUQd4n4EPNFMJDM4mkLAxiKfiqbb6bL9glvMpLVdL8fX4pX9zW2ezyWqRjIL8lvm+OR5uxbzp7TriqzCbGxmeTv+8sJZRctDGAufX/3xT+nWWmMmgGml8+7z8/H1e14LuTSJgFoEB7/hQGtO7ofmfbnx/sIzK3/U5qRL5GaAbwsgmpEPdEuI3+2XM4KY4gmdRZ2F7p1VplhSAGudar/M4p2pzGO2R/X00kPG6yasj7BCbgR3Yf8FnX7vu/3yQm2SgDdwK6e/v8erdoYwCbCiUq+b9AG714VDGBtPqZb+m/QGrMnRUaUu4FGW/CXaNzKQEyp1/o7+wMDUXU4RcAAXNCJMp/foD0ZuJwBKCfy4d1v0A+5OCkDBuRM+dj0N2hHDR8pA2Z+SfwPoeAjGvJpVBlhkxBC+5fcAEgXyihpfYxFwUbWmfwFGlHuKL2zwN+DrPJJjS9Q74yp/VN628evycX5/y+Qf6NJQGk41MgIvoVB8MXgZGUZCWKQTw1/icZ43ym7OrT4BP23HLGGx4uK69EG4U9SvuiGNOyxyO/asKxmEJh/ywsw6m4QheKkDKc4pl80QqBTZw7ZlsgTYGM1+ueM+EPqUaQLm+1lDxub069CEOhCjr7+66sAe/RYF38pH81pwnX8ev/8zjBsndqSMKrS6EL9MkUXfgeTpJYVmGZgWebiRb0D+P3Q8cv7U1uN/1Bym2XZ45XkTZnh/IuB+E19Fu3mgnuoHvQ1L18GABJeBP1UL2P7szEc/1v1SI2wl3CbFCwMlnvqHdxlv9r/beI9oNt0smPVa95Sv30vCDdo1PzB/Pg/3J5Rf7cqbX5c7/4L8NVotJtuVqvN+DQc/Z3q/w+Y0RNGIniN2gAAAABJRU5ErkJggg==;" vertex="1" parent="1">
          <mxGeometry x="439.59000000000003" y="385" width="80" height="82.5" as="geometry" />
        </mxCell>
      </root>
    </mxGraphModel>
  </diagram>
</mxfile>
